<?xml version="1.0" encoding="UTF-8"?>
<svg id="Layer_1" data-name="Layer 1" xmlns="http://www.w3.org/2000/svg" viewBox="0 0 599.71 465.61">
  <defs>
    <style>
      .cls-1 {
        fill: #002356;
      }
    </style>
  </defs>
  <path class="cls-1" d="M31.97,175.02c0,2.86-2.32,5.19-5.19,5.19s-5.19-2.32-5.19-5.19,2.32-5.19,5.19-5.19,5.19,2.32,5.19,5.19ZM29.95,175.02c0-1.77-1.43-3.2-3.2-3.2s-3.2,1.43-3.2,3.2,1.43,3.2,3.2,3.2,3.2-1.43,3.2-3.2Z"/>
  <g>
    <path class="cls-1" d="M570.95,167.42c.77-.06,1.5.62,1.34,1.35-.11.47-6.55,6.69-7.13,6.57-.62-.13-.99-.94-.59-1.72.36-.71,5.68-6.15,6.38-6.2Z"/>
    <path class="cls-1" d="M550.31,167.35c.6-.13,5.93,5.59,6.28,6.27.4.78.03,1.59-.59,1.72-.79.16-6.05-5.25-6.33-6.24-.21-.77-.11-1.6.63-1.75Z"/>
    <rect class="cls-1" x="567.12" y="181.77" width="2.05" height="9.7" transform="translate(34.45 456.4) rotate(-45)"/>
    <path class="cls-1" d="M556.01,182.78c.69.62,1.09.71.58,1.71-.2.39-5.85,6.24-6.29,6.26-3.64.2,4.5-8.02,5.71-7.97Z"/>
    <rect class="cls-1" x="559.72" y="184.48" width="1.71" height="10.28"/>
    <path class="cls-1" d="M561.43,163.35v9.42c0,.37-1.22,1.1-1.71.86v-10.28h1.71Z"/>
    <path class="cls-1" d="M555.15,179.91h-9.42c-.85,0-.85-1.71,0-1.71h8.57c.37,0,1.1,1.22.86,1.71Z"/>
    <path class="cls-1" d="M566.86,178.2h8.57c.85,0,.85,1.71,0,1.71h-8.57c-.61,0-1.11-1.28,0-1.71Z"/>
  </g>
  <g>
    <path class="cls-1" d="M16.57,280.43c-.66.23-2.28-.25-2.28-.86v-8.57c0-.98,2.28-.98,2.28,0v9.42Z"/>
    <path class="cls-1" d="M15.15,249.02c2.25-.47,1.78,9.45.55,9.7-2.25.47-1.78-9.45-.55-9.7Z"/>
    <path class="cls-1" d="M4,275.86c-.98-.88,5.55-6.78,6.27-7.15,1-.51,1.08-.11,1.71.58-.8,1.47-6.36,8.03-7.98,6.57Z"/>
    <path class="cls-1" d="M4.87,253.02c.78-.16,6.23,5.45,6.67,6.47.3.7.52,1.34-.4,1.52-.55.11-6.48-5.55-6.86-6.27-.4-.78-.03-1.59.59-1.72Z"/>
    <path class="cls-1" d="M26.84,275.86c-1.06,1.06-8.46-6.32-7.42-7.42,1.82-.29,8.47,6.37,7.42,7.42Z"/>
    <path class="cls-1" d="M19.42,260.44c-1.07-1.07,5.83-7.57,6.56-7.42.62.13.99.94.59,1.72-.42.82-6.24,6.61-7.15,5.7Z"/>
    <path class="cls-1" d="M8.86,263.87c.44.13,1.16,1.29.85,1.71-.41.56-8.24-.34-9.71,0v-1.71c2.38.43,6.81-.59,8.86,0Z"/>
    <path class="cls-1" d="M30.84,263.87v1.71h-8.85c-.37,0-1.1-1.22-.86-1.71h9.71Z"/>
  </g>
  <g>
    <path class="cls-1" d="M250.17,26.28c1.36-1.2,7.99,5.48,7.98,5.99,0,.1-1.32,1.42-1.42,1.42-.5,0-7.09-6.95-6.57-7.41Z"/>
    <path class="cls-1" d="M242.73,26.28c.25,1.08-.61,1.35-1.14,2-.71.87-5.29,5.84-6.28,4.85-1.04-1.04,5.85-8.23,7.42-6.85Z"/>
    <path class="cls-1" d="M256.73,10.29c.61-.01.83,1,.62,1.74-.34,1.22-5.43,5.84-6.32,5.67s-.78-.69-.3-1.43c.56-.86,5.43-5.97,6-5.99Z"/>
    <path class="cls-1" d="M242.73,17.7c-.75.69-4.98-2.99-5.72-3.7-.78-.76-1.98-1.55-1.71-2.85.19-.92.69-.78,1.43-.3.98.64,4,3.82,4.86,4.86.3.37,1.72,1.47,1.14,2Z"/>
    <path class="cls-1" d="M247.31,6.28v9.42c0,.85-1.71.85-1.71,0V6.28h1.71Z"/>
    <path class="cls-1" d="M245.59,28.27c.29-1.03,1.71-.71,1.71,0v8.57c0,.85-1.71.85-1.71,0,0-2-.4-7.12,0-8.57Z"/>
    <path class="cls-1" d="M240.45,21.13v1.71h-8.85c-.85,0-.85-1.71,0-1.71h8.85Z"/>
    <rect class="cls-1" x="252.45" y="21.13" width="9.14" height="1.71"/>
  </g>
  <g>
    <path class="cls-1" d="M34,97.66c.68-.11,1.39,1.05,2.3,1.16,1.65.2,2.53-1.9,3.67-.3-1.17,1.96-4.73,1.91-6.27.57-.79-.69-.19-1.35.3-1.43Z"/>
    <path class="cls-1" d="M37.69,91.96c.13.13,1.09,3.36,1.04,3.63-.18.96-2.18,2.01-2.74,1.5s.92-1.61,1.04-2.12c.07-.28-1.08-4.78.66-3.01Z"/>
  </g>
  <g>
    <g>
      <path class="cls-1" d="M77.47,320.04c2.39,2.36,3.75,5.93,4.2,9.23.23,1.7-.39,4.15.1,5.62.38,1.14,2.25,1.19,3.04,2.1,3.35,3.91-.22,17.85.88,23.13,0,1.97-1.22,3.24-3.02,3.83-2.94.97-24.15.9-28.13.46-2.58-.29-4.53-1.54-4.87-4.28-.47-3.88-.53-17.39.06-21.12.52-3.25,3.4-2.69,3.87-4.12.51-1.54-.08-4.72.15-6.7,1.31-11.28,15.69-16.05,23.72-8.14ZM56.55,326.98c-.42,2.39.31,5.76,0,8.28h2.28c-2.06-7.38,2.44-15.93,11.01-14.15,6.72,1.4,7.2,8.52,6.7,14.15h2.28c1.56-8.75-3.35-17.94-13.17-16.31-3.63.6-8.45,4.32-9.11,8.03ZM74.25,335.26c2.49-15.51-15.54-15.56-13.14,0h13.14ZM53.52,338.23c-.51.15-1.03.55-1.26,1.02-.52,1.07-.54,16.95-.29,19.15.1.88.35,2.38,1.15,2.85,1.26.75,20.44.26,23.73.25,2.5,0,6.02,1.59,6.57-2.52.46-3.44.44-14.85,0-18.33-.1-.8-.13-1.48-.83-2.03-2.04-1.61-24.84.06-29.07-.4Z"/>
      <path class="cls-1" d="M66.67,342.21c3.28-.68,6.15,2.31,5.53,5.51-.23,1.16-1.17,2.23-1.21,3.13-.07,1.63,2.09,5.94.03,6.61-.81.26-5.24.26-6.19.08-2.99-.55-.24-4.52-.46-6.5-.18-1.64-1.99-2.42-1.45-5.07.3-1.46,2.3-3.45,3.75-3.75ZM66.62,345.04c-2.88.98.55,4.36.65,4.85.2.94-2.61,6.34.98,5.35,1.74-.48-.41-3.92-.18-5.31.12-.75,4.15-6.8-1.45-4.9Z"/>
    </g>
    <g>
      <path class="cls-1" d="M150.64,343.38c3.21-.85,3.92,1.5,6.14,1.63,2.25.14,6.67-3.06,7.43.46.39,1.8-3.39,8.04-4.13,10.06,7.7,7.34,21.42,26.89,8.94,35.37-5.59,3.8-18.61,3.85-25.01,2.24-20.2-5.09-6.71-28.49,3.26-37.13l-5.06-9.04c.2-.96,4.06-1.15,5.26-1.61s2.19-1.72,3.17-1.99ZM161.06,346.69c-1.58.06-3.24,1.22-4.82,1.12s-2.8-1.8-4.56-1.69-3.48,2.48-5.46,2.56c.84.78,3.14,6.25,3.51,6.48.33.21,6.23.24,7.05.09,1.85-.34,3.65-6.62,4.28-8.56ZM150.01,357.7c-7.72,4.99-20.65,24.76-9.34,31.37,5.87,3.43,25.48,3.72,29.45-2.77,4.35-7.11-5.26-24.7-11.72-28.14-1.66-.88-6.14.68-8.38-.46Z"/>
      <path class="cls-1" d="M173.63,352.4c.21.2,4.76-.66,4.99,1.41.3,2.6-4.51.95-4.99,1.44-.21.21.16,3.73,0,4.57-4.29,1.08-2.34-4.07-2.85-4.57-.27-.26-4.1.64-4.57-.86-.96-3.06,4.56-1.59,5.13-2-.95-1.89-1-3.85.87-5.13,2.24-.46,1.13,4.86,1.42,5.14Z"/>
      <path class="cls-1" d="M147.36,383.8c-.66-.58,8.79-13.28,9.47-14.8.4-1.65,4.3-2.69,3.12-.32-.64,1.28-9.04,13.69-9.71,14.28s-2.31,1.33-2.87.83Z"/>
      <path class="cls-1" d="M162.06,375.96c3.57,3.36-1.05,10.83-5.55,6.97-4.04-3.47,1.39-10.88,5.55-6.97ZM158.5,376.96c-1.41.44-1.53,5.97,1.13,5.13,1.41-.44,1.53-5.97-1.13-5.13Z"/>
      <path class="cls-1" d="M147.78,367.33c5.6-1,6.6,9.14.42,8.99-4.54-.11-5.09-8.16-.42-8.99ZM149.58,369.59c-2.51-1.57-3.9,3.11-2.27,4.26,3.03,2.13,3.41-3.54,2.27-4.26Z"/>
    </g>
  </g>
  <g>
    <g>
      <path class="cls-1" d="M431.21,273.01c-.31,4.02-5.69,6.24-8.56,3.13.43-2.56,2.11-.13,4.01-.53,1.77-.37,2.81-2.41,4.56-2.6Z"/>
      <path class="cls-1" d="M424.93,266.73c.47.33.45,3.73.65,3.95.24.27,1.49-.09,1.64.04.3.28-.02,2.01-.93,2.25-4.25,1.11-3.57-7.82-1.36-6.24Z"/>
      <g>
        <path class="cls-1" d="M450.49,230.86c3.69-.52,3.25,1.56,2.99,4.73-.92,11.31-13.86,16.6-21.02,6.76-.69-.95-2.96-4.77-2.87-5.63.12-1.17,8.24-2.04,9.98-2.48,3.28-.82,7.91-2.95,10.92-3.38ZM450.63,233.6l-17.7,4.85c5.4,11.22,18.18,6.94,17.7-4.85Z"/>
        <path class="cls-1" d="M437.21,209.62c.2,0,1.44,1.25,1.35,1.89-.34,2.29-8.87,9.17-5.29,11.76,1.49,1.07,4.03.67,5.37,2.06.7,3.19-9.27,1.76-8.97-3.92.1-1.89,6.35-11.79,7.54-11.79Z"/>
        <path class="cls-1" d="M489.47,224.45c1.58-.33,7.54,4.31,4.27,5.15-1.61.41-3.95-3.12-5.09-2.85-.59.14-1.59,3.33-3.17,2.28-1.17-.78,1.21-5.87,2.03-6.81,1.24-1.42,4.82-3.23,6.78-2.9.62.11,2.03,1.04,2.02,1.43-.03,1.36-6.44.98-6.84,3.71Z"/>
        <path class="cls-1" d="M447.04,202.31c2.63-.61,10.88,1.6,9.61,4.45-1.11,2.5-4.21-1.7-6.59-2.07-1.94-.3-4.64,1.53-5.15-1.07.54-.66,1.29-1.11,2.12-1.31Z"/>
        <path class="cls-1" d="M430,209.11c.92,1.91,1.31,5.26-1.39,5.65-4.75.68-3.43-7.14,1.39-5.65Z"/>
        <path class="cls-1" d="M447.61,211.4c3.66-1.05,3.82,4.79,1.5,5.55-4.05,1.33-4.39-4.72-1.5-5.55Z"/>
      </g>
    </g>
    <g>
      <path class="cls-1" d="M551.44,289c1.26-.07,4.29-1.95,3.46,1.72-1.69,7.53-13.02,5.78-12.89-1.72,3.12-.13,6.3.18,9.42,0ZM552.29,290.71c-1.98.1-4.02-.15-6,0-.63.05-1.9-.32-1.41.85,1.16,2.79,7.13,2.68,7.42-.85Z"/>
      <path class="cls-1" d="M548.29,279.86c.41,1.59-.98,4.03-.61,5.37.15.57,2.3.41,2.32,1.19.03,1.2-4.71,1.69-4.55-1.65.03-.63,1.73-6.25,2.85-4.92Z"/>
      <path class="cls-1" d="M551.72,233.03c1.47,1.54-2.79,2.93-4.21,2.84-1.94-.14-4.67-1.66-4.35-3.98,1.73.22,2.47,2.01,4.43,2.18,1.25.11,3.63-1.57,4.13-1.04Z"/>
      <path class="cls-1" d="M549.43,223.89c.23.23,1.28,4.72,1.09,5.32-.43,1.35-3.2,1.73-3.94.95-1.17-1.25,2.19-1.6,2.29-1.72.16-.21-1.59-6.75.56-4.55Z"/>
      <path class="cls-1" d="M523.16,266.73c1.48,1.59-3.01,2.87-4.23,2.82-1.43-.06-5.52-2.27-5.46-3.69.1-2.45,3.21,1.03,3.42,1.13,2.03.93,6.05-.51,6.27-.27Z"/>
      <path class="cls-1" d="M521.45,257.02c-.15,1.52,1.24,5,.49,6.2-.27.43-3.68.9-3.92.65-1.14-1.19,1.04-2.29,2.29-1.71.38-1.94-1.91-5,1.13-5.14Z"/>
      <path class="cls-1" d="M527.73,260.44c-1.52.63-1.36-1.7-1.99-1.7-.18,0-3.21,2.55-2.57-.29.48-2.12,5.74-1.47,4.56,1.99Z"/>
      <path class="cls-1" d="M516.88,258.15c-.49.54-1.57-.9-2.07-.99-.7-.13-4.08,1.33-2.45-1.23,1.06-1.66,6.01.58,4.52,2.23Z"/>
      <g>
        <g>
          <path class="cls-1" d="M571.43,306.14c.39.01,2.2,3.31,5.45,2.63.82-.17,4.55-2.84,3.97-.08s-9.04,2.8-10.05-.81c-.21-.74.02-1.77.62-1.74Z"/>
          <path class="cls-1" d="M577.29,302.81c1.54,2.58-3.68,1.98-3.72-.47-.01-.99,2.29-5.32,3-5.33,2.39-.05-.93,4.57-.86,4.83.13.52,1.43.72,1.58.97Z"/>
        </g>
        <g>
          <path class="cls-1" d="M576.27,267.89c1.44,1.72-2.8,5-4.89,5.08-5.83.23-7.03-7.11-5.02-7.43.5-.08,9.58,1.96,9.91,2.35ZM568.44,270c.98.9,4.07,1.26,4.98-.13l-5.69-2c-.25.32.36,1.8.72,2.13Z"/>
          <path class="cls-1" d="M573.43,259.3c.57.54-1.82,3.31-1.75,4.24.04.53,1.69.66,1.74,1.18.09.94-2.89,1.42-3.74-.29-.56-1.13,2.33-6.47,3.75-5.13Z"/>
          <path class="cls-1" d="M580.28,228.46c-1.31,6.2-9.84,5.15-8.57-1.72l8.57,1.72Z"/>
          <path class="cls-1" d="M577.42,221.61c.61,1.22-.95,2.69-.95,3.15,0,.4,1.51,1.49.95,1.98-.36.32-2.5.05-2.81-.92-.35-1.07,1.19-4.28,2.81-4.22Z"/>
        </g>
      </g>
      <path class="cls-1" d="M524.31,219.32c1.91,2.2-5.47,4.24-6.84.85-.67-1.66,3.55-.25,4.26-.25s2.41-.8,2.59-.6Z"/>
      <path class="cls-1" d="M520.89,213.61c2.51-.39,2.07,4.88.85,5.13-.64.13-1.82-1-1.83-1.41,0-.31,1.73-2.41.99-3.72Z"/>
    </g>
  </g>
  <g>
    <path class="cls-1" d="M395.8,38.27c1.62,1.73-4.15,3.92-5.49,3.95-1.21.03-5.26-1.42-5.35-2.52-.12-1.37,1.52-.29,1.88-.19,1.18.35,2.11,1.06,3.49,1.01,1.47-.05,5.22-2.52,5.47-2.25Z"/>
    <path class="cls-1" d="M390.09,29.13c.51.58-1.84,5.03-1.14,5.71.11.1,2.85-.14,2.85.86,0,1.18-4.3,1.58-4.56-1.15-.09-.96,1.57-6.86,2.85-5.41Z"/>
    <path class="cls-1" d="M386.66,26.85c1.48,2.07-4.84.87-5.71,1.71-.36-2.6,5.05-2.62,5.71-1.71Z"/>
    <path class="cls-1" d="M393.52,26.85c.61-.85,5-.77,5.7.85l-4.87.67c-.63-.09-1.12-1.12-.83-1.52Z"/>
  </g>
  <g>
    <path class="cls-1" d="M139.36,31.41l35.44-5.96c2.24-5.93-2.87-22.17,5.07-24.62l39.59-.12c3.63,1.09,5.24,3.97,5.58,7.56.6,6.35.97,30.34-.15,35.87-.86,4.23-4.89,6.69-9.01,6.7l4.53,23.17c45.03.65,89.95.81,135,.26.96-1.97,8.9-13.69,8.84-14.58-.02-.33-3.05-2.97-3.6-4.83-1.26-4.25-.91-9.64-.24-13.98.92-10.01-1.65-21.66-.6-31.44.48-4.48,3.5-9.03,8.28-9.42l46.59.25c4.58,1.33,6.39,5.94,6.8,10.33,1.11,11.77-1.77,24.84.03,36.52.14.9,1.14,1.65,1.15,2.33,0,1.32-1.58,1.07-1.76,1.81-.21.88.17,2.08-.11,3.19-2.91,11.44-25.05,4.77-33.56,6.99l-24,30.26v12.28c16.32.07,32.51.55,48.85.6,1.21,0,2.32-.6,3.4-.59,5.1.03,10.52,4.18,11.15,9.41.87,7.13.87,28.88,0,36.01-.3,2.44-2.13,5.35-4.05,6.8-.42.32-3.47,2.04-3.68,2.04h-10.57v55.69c.02.71.37,1,.9,1.38.46.33,9.51,4.38,10.25,4.6,1.07.31.76-.17.84-.83.18-1.43-.14-3.08,0-4.57.23-2.33,1.51-6.51,1.14-8.55-.22-1.22-4.05-5.18-5.03-6.99-5.51-10.2-2.47-23.86,8.07-29.42.6-.32,1.9-.36,2.03-.51.33-.38-.08-3.7.07-4.79,1.9-13.74,17.96-21.22,30.08-14.67,1.14.62,4.24,3.36,4.54,3.42.72.14,9.33-2.84,12.5-2.79,4.93.08,11.97,3.62,15.14,7.33.99,1.16,3.12,5.95,3.41,6.14.81.55,3.93.58,5.27,1.01,9.1,2.95,16.33,12.51,15.24,22.33-.18,1.63-1.82,5.23-1.57,6.23s3.31,3.14,3.43,4.9c3.57-.55,7.43-1.18,10.76.64l-10.84-60.71c-6.6-1.06-10.99-7.55-7.35-13.74,4.88-8.31,19.46-2.63,15.21,8.36-.62,1.62-2.2,2.42-1.95,3.84l24.97,74.76c3.45.08,6.08-.33,9.27,1.3,7.28,3.71,6.81,17.29,3.03,23.4-1.92,3.11-5.45,4.01-4.36,8.48.69.81,3.85-4.21,4.55-4.86,2.01-1.85,4.63-3.01,7.3-3.55,2.17-.44,4.38.8,3.97-2.64-.14-1.21-1.68-3.05-1.98-4.78-.98-5.65,1.32-16.74,8.18-17.82,13.96-2.19,15.11,14.01,7.97,22.25-1.18,1.36-3.76,2.3-3.71,4.29.04,1.55,3.41,3.1,4.55,4.56,2.08,2.65,4.43,11.48,3.95,14.8-.2,1.38-3.82,10.86-4.6,12.53-.48,1.02-.96,2.03-1.63,2.94-1.04,1.41-4.48,3.67-4.85,4.29s-.48,3.23-.28,3.42c.1.1,2.09.07,2.87.26,5.07,1.25,10.06,3.36,11.81,8.76,1.74,5.36-1.24,18.38-4.75,22.92-1.97,2.56-6.34,4.17-5.4,8.22.1.43,3.73,2.24,4.61,2.96,7.59,6.17,6.47,17.22,5.69,26.01,1.45.24,7.66-.69,8,.86.12.56-.64,1.42-.85,1.42h-18.56c2.58,6.74,3.17,13.1,2.88,20.3-1.1,26.88-4.46,56.34-6.88,83.36-.15,1.66-.78,9.16-1.27,9.86-.22.31-1.94.93-2.15.71.04-1.99-.08-4,0-5.99,1.36-31.19,6.57-62.44,7.99-93.67-.93-16.29-10.6-27.17-27.11-28.29-14.59-1-36.84-.96-51.45,0-19.54,1.27-30.19,15.84-32.81,34.02-4.4,30.65-6.07,61.81-10.31,92.5-.48,2.39-3.01,2.07-2.8-1.03,1.26-17.81,4.2-37.48,6.31-55.42,1.58-13.47,2.55-30.84,5.45-43.66,2.56-11.3,10.51-21.4,21.31-25.81,0-.99-2.5-.63-3.16-.59-13.23.73-24.43,9.7-28.82,22.01-6.65,34.67-9.07,70.21-14.21,105.16.17,1.03-.91,1.04-1.48.79-.92-.4-.92-1.7-.91-2.56.06-5.65,1.7-14.47,2.41-20.49,2.79-23.79,5.43-48.96,9.15-72.53,2.69-17.07,13.73-35.21,33.33-35.21h59.68c-2.8-19.33-11.33-37.94-28.26-48.56-24.92-15.63-61.6-11.65-87.13.85-15.18,7.44-23.23,16.65-32.2,30.62-14.19,22.08-24.04,47.13-34.58,71.08l-79.17-3.77c-7.48,9.17-9.21,22.4-7.51,33.86.22,1.52.77,5.28,1.89,6.11,18.06,5.53,36.71,9.85,55.45,12.52,17.33,2.47,42.49,5.6,58.65-1.7,18.32-8.28,34.72-38.53,43.12-56.26.88-1.85,4.88-12.77,6.08-12.76.43.47,1.17.89,1.35,1.54.36,1.36-8.99,20.76-10.47,23.59-8.38,15.99-18.93,32.27-33.43,43.23-.9,9.45-1.18,19.04-2.25,28.47-.23,2.07-1.46,2.95-2.8,1.02l2.2-27.6c-11.57,5.83-24.67,6.26-37.43,5.73-16.88-.7-35.82-4.05-52.34-7.62-7.48-1.62-21.54-4.27-28.03-7.38-4.14-1.98-4.21-5.94-4.41-10.15-3.94.69-7.58,1.47-11.65,1.08-1.45-.14-3.35-1.22-4.62-1.09s-4.33,3.47-6.43,3.29c-15.81.37-33.83,1.6-49.54.13-20.88-1.96-11.15-20.41,1.41-27.13,4.11-2.2,12.22-3.3,14.28-4.57.38-.23,2.74-4.72,4.57-6.28,12.14-10.35,29.69-8.68,43.39-3.4,2.22.86,13.75,6.64,14.54,6.59.23-.01,1.95-3.19,2.65-3.7,2.1-1.53,9.91.1,12.81.23,16.76.78,33.5,1.94,50.26,2.86,5.08.28,10.25.34,15.34.5l15.21-34.76h-66.82l.57,6.85h20.28c2.51,0,8.35,4.72,9.54,7.02.88,1.71,2.5,7.12.45,8.11l-136.75.23c-4.45-.29-1.78-6.91-.22-9.28,1.74-2.65,6.72-6.09,9.9-6.09h18.56l.57-6.85h-44.26c-1.14,0-.27,2.33-.26,3.11.14,9.63-.26,19.06-.62,28.57-.29,7.64,2.19,18.69-8.8,19.76-15.81,1.54-34.16-1.17-50.24-.08-3.62-.28-8.33-5.3-8.33-8.8v-42.55h-16.28c-.06,0-.86.8-.86.86v15.99c0,.5-2.43,4.26-3.13,4.86-1.52,1.3-4.94,2.55-6.93,2.78-15.65-.71-32.43,1.16-47.94.09-4.43-.3-7.79-1.17-10.54-4.88-.32-.43-1.71-2.69-1.71-2.86v-16.85H1.72c-.11,0-.11-2.28,0-2.28h30.84v-36.27c0-2.79,5.84-7.74,8.9-7.66,16.52.85,34.45-1.31,50.81-.07,3.47.26,7.1,1.56,9.09,4.62.29.45,1.45,2.88,1.45,3.12v36.27h17.13c-.58-9.04,2.57-13.67,11.68-14.3,15.28-1.06,31.88.73,47.29.16,7.04,1.6,9.33,7.42,8.99,14.14h45.12l3.43-23.42h-111.66c-2.79,0-7.65-4.46-9.09-6.9-4.64-7.88-1-17.27-2.02-25.97-.07-.58-.26-1.97-.89-1.97h-50.83c-2.26,0-6.59-5.41-7-7.85-.74-4.39-.75-29.88.25-33.74.63-2.42,4.86-6.96,7.32-6.96h51.12v-37.12h-62.54c-.25,0-3.41-1.48-3.91-1.81-3.7-2.43-4.68-6.27-4.97-10.45-.55-7.89-.86-24.32.17-31.86.43-3.17,2.08-6.55,4.8-8.34.49-.33,3.65-1.81,3.91-1.81h44.83v-67.11c0-1.11,2.34-4.94,2.04-5.44s-9.31-6.12-9.88-6.2c-.66-.1-7.55,3.54-9.42,4.09-7.66,2.23-15.38,1.82-22.71-1.3,1.16,9.21,1.89,20.14,1.16,29.43-.35,4.48-1.49,8.23-6.58,8.85-5.23.63-23.5.73-28.53-.05-3.06-.47-5.4-3.13-5.9-6.1-.9-5.37-.65-20.95-.16-26.73.17-1.98.63-4.49,2.06-5.93.56-.57,4.01-2.33,4.52-2.33h27.7l-5.16-4.27c-10.91-11.63-13.29-27.79-5.22-41.81,13.01-22.62,45.18-21.89,58.64-.19.26-4.41-.22-9.52,5.17-10.82,9.15.6,19.26-.8,28.25-.33,2.1.11,4.25.68,5.71,2.29.31.34,1.71,2.7,1.71,2.86v11.71ZM182.61,2.42c-3.2.58-5.08,2.76-5.51,5.91-.95,7.03-.76,25.8-.07,33.1.46,4.91,3.01,6.74,7.71,7.14,7.59.65,24.01.81,31.43-.02,3.79-.43,6.24-2.09,6.59-5.97,1.02-11.06-.82-23.65-.01-34.88-.43-3.68-3.25-5.07-6.59-5.4-6.35-.64-27.75-.93-33.56.12ZM410.14,58.76c.97.85,4.55-.55,5.67-1.34,5.26-3.73,2.71-12.21,2.81-17.76.17-9.17,1.34-18.74.62-27.98-.4-5.04-1.54-8.89-7.13-9.43-13.7-1.33-29.52,1.06-43.45.02-8.87,1.72-5.91,10.74-5.94,16.87-.04,8.55-.46,16.44-.02,25.1.15,2.86-.42,6.43,0,9.13.42,2.65,4.92,6.33,7.6,5.4.41-.14,3.12-5.87,4.62-7.39,1.8-1.82,4.61-3.58,7.16-3.98-1.19-1.7-2.79-3.18-3.9-4.95-.89-1.42-1.27-3.78-2.11-4.74-1.41-1.61-3.72-1.14-4.24-4.92-.73-5.27,2.67-4.46,3.31-5.47.25-.39.09-7.07.69-9.3,3.67-13.65,25.24-13.56,29.37-.88,1.18,3.61.2,7.18.85,9.87.19.77,3.98,1.48,3.43,5.78-.44,3.41-3.34,3.4-4.4,4.48s-2.99,8.71-5.86,10.12c4.68,1.22,8.42,5.04,10.4,9.33.26.57.4,1.93.51,2.03ZM109.09,82.82l-13.6-20.43c.55-4.06,3.33-7.2,4.3-11.44C106.56,21.36,72.56-.74,49.11,18.56c-25.93,21.34-5.27,64.16,28.58,55.42,3.85-.99,6.85-3.36,10.42-4.79l20.97,13.63ZM105.52,16.7c-9.53,1.58-3.26,16.6-2.72,22.43.21,2.21-.62,12.3-.29,12.85.58.97,2.38,1.07,3.41,1.16,6.3.57,20.73.7,26.88-.01,3.1-.36,4.04-1.96,4.3-4.84.57-6.24.7-20.79-.01-26.88-.37-3.2-2.44-4.5-5.44-4.84-5.09-.58-21.28-.67-26.13.14ZM381.89,18.96c-2.22.42-1.13,5.26-2.2,7.47-.65,1.34-2.61,2.2-2.68,3.51s.84,6.32,1.27,7.87c4.15,15.23,24,12.48,25.52-3.83.63-6.73-1.43-4.82-2.89-8.52-.91-2.3.44-6.9-2.27-6.39-3.47.66-4.83,2.4-9.42,2.09-2.29-.16-6.38-2.37-7.33-2.19ZM106.24,74.25h107.37l-10.94-23.32c-6.77-1.13-20.86,2.41-25.62-3.23-2.82-3.34-1.56-13.94-2.27-18.87-.11-.79.32-.97-.87-.86l-34.49,5.79c-1.09,6.22,3,18.63-4.88,21.11-3.9,1.23-23.63.97-28.61.56-1.85-.15-3.11-.76-4.83-1.17.09,2.25-3.07,5.72-2.77,7.58.45,2.84,7.06,9.05,7.91,12.41ZM375.81,35.41l-.85-6.28c-2.5,1.75-1.55,4.96.85,6.28ZM405.52,35.41c2.42-.84,3.07-5.21.84-6.28-1.15-.55-.81.94-.85,1.41-.12,1.61.08,3.26,0,4.86ZM395.8,48.55c-3.34,1.58-5.86,1.27-9.3.45-.52-.12-1.32-1.09-.98.41,1.13,5.03,9.75,4.89,10.28-.86ZM372.96,58.83h35.41c-1.77-3.91-3.62-7.35-7.83-9.01-4.53-1.79-2.37.56-4.78,2.97-2.57,2.59-7.12,2.66-9.87.25-1.53-1.34-1.64-3.94-2.92-3.97-3.84-.08-9.55,5.95-10.01,9.76ZM213.55,50.89c-.33-.28-8.44-1-8.5.22-.07,1.5,10.1,18.44,10.73,21.82l1.82,1.31c-.67-2.85-3.14-22.6-4.05-23.36ZM383.81,61.11h-16.28c-.23,0-.83-.79-1.4-.57l-26.86,46.26c2.99-2.27,6.88-3.51,10.59-2.52l33.95-43.17ZM46.64,80.15c2.19,2.28,1.92,5.79,2.75,8.39.67,2.11,2.55,4.03,2.61,6.58.05,1.9-1.11,2.91-1.22,4.55s.69,2.98.6,4.5c-.09,1.41-3.25,6.81-.35,6.57,1.85-.16,3.6-2.96,3.81-4.77.68-5.82.57-19.78,0-25.74-.3-3.26-1.32-5.57-4.86-5.99-5.6-.66-21.26-.66-26.87,0-2.35.28-4.43,1.93-4.81,4.33-.75,4.77-.64,22.4-.05,27.4.34,2.88,1.96,5.25,5.15,4.84.03-1.85-1.18-2.87-1.19-4.85s1.28-3.54,1.09-5.01c-.16-1.19-1.62-3.37-1.92-4.96-.93-5.01,1.18-5.93,2.89-9.73,1.31-2.92.55-6.12,5-7.57,4.09-1.34,5.4.42,8.23.57.92.05,1.77-.84,2.79-.98,2.2-.31,4.77.24,6.34,1.88ZM353.54,77.1H108.52c1.31,2.99,5.67,6.83,6.6,9.68.28.84.33,2.14-.62,2.31-1.23.23-11.06-8.17-13.25-8.49-1.38-.21-2.45,1.41-2.45,2.49v67.68h14.85v-20.28c0-4.96,8.22-12.51,13.43-12.27l202.08-.1c8.53-13.37,16.45-27.26,24.37-41.03ZM43.89,90.33c-.23-.36-6.39-2.65-6.48-5.24-1.47,3.22-4.65,5.64-8.25,5.74-1.86,6.77,4.95,16.11,11.69,10.84,2.27-1.77,4.4-9.17,3.04-11.34ZM360.39,103.95v-8.57l-6.85,8.56h6.85ZM47.98,110.8c-1.35-3.72-5.66-5.47-9.4-5.73-5.76-.41-10.14.8-13.45,5.73h22.85ZM326.7,167.92l23.73-11.96c21.11-1.54,44.88,1.93,65.67-.01,4.94-.46,7.71-3.4,8.26-8.3.86-7.59.71-24.84.02-32.58-.39-4.4-2.7-7.49-7.15-8.27-22.95,1.63-48.83-2.13-71.43,0-3.18.3-7.13,2.75-7.66,6.05-1.59,10.02,1.22,23.69-.15,34.12l-11.3,20.97ZM335.26,123.08v-9.42l-21.71,36.26,21.71-26.84ZM327.84,120.51H127.08c-4.55,0-11.14,7.85-11.14,12.28v17.99h8.85c1.19,0,3.81,2.1,4.85,2.86v-14.56c0-.06.8-.86.86-.86h186.76l10.57-17.71ZM510.23,124.71c-5.59,5.63,4.4,15.84,9.42,7.43,3.82-6.39-4.48-12.41-9.42-7.43ZM335.26,138.22v-11.42l-8.57,11.42h8.57ZM518.6,137.07l-2.2.84,11.93,61.54c3.21,2.25,7.22,5.31,8.83,9.01,1.07,2.45.79,5.71,2.56,7.43.09-2.42,3.7-2.28,3.34-4.7l-24.47-74.11ZM313.84,140.5h-181.91c.32,4.72-.42,9.93-.02,14.59.17,1.95,1.07,3.42,1.17,5.11.23,3.8-.87,16.36.88,18.54,1.95,2.41,6.56,5.04,8.82,7.46v-9.99c0-3.65,3.73-6.27,7.11-6.6,12.93-1.26,27.94.95,41.1.08,2.06-.4,6.05,3.92,6.05,5.37v23.13l7.92-1.79c1.4-6.7-3.55-24.22,5.2-26.5l39.67-.23c2.07.17,6.03,3.39,6.03,5.39v16.28l10.8-2.34c.58-6.78-2.61-18.48,7.17-19.39,3.71-.35,24.22.65,25.35-.07l16.53-28.3.12-1.3c-.84-.33-1.6.53-2,.57ZM302.14,169.63h9.99c1.58,0,5.43,4.09,5.43,5.43v18.56l13.06-5.22c.56-6.15-1.97-13.83,5.07-16.92l37.52-.1c10.15,1.56,4.55,23.26,6.11,30.44.24.7,9.8,4.77,10.2,4.36.06-4.47-.06-8.96-.02-13.44.05-5.64-.08-11.37,0-17.13.06-4.81,1.21-10.44.62-15.43-.07-.58-.26-1.97-.89-1.97h-38.84l-25.96,14.03c-1.82.55-3.31.39-2.34-1.78,2.49-5.56,12.66-20.2,13.18-24.52.23-1.88-.18-4.08-.02-6.01-3.06,1.1-7.8-.09-10.45.69-2.34.69-19.47,25.46-22.68,29.01ZM147.92,193.62c-6.18-4.01-11.14-9.65-16.83-14.3-2.02-9.15,4.67-25.05-9.13-26.28-21.79-1.95-46.46,1.51-68.56.02-3.73.49-6.49,2.24-8.02,5.69l-.23,37.4c1.24,4.28,4.53,6.24,8.8,6.62,21.79,1.95,46.47-1.51,68.56-.02,3.59-.56,6.32-1.93,7.74-5.4.53-1.29.28-3.89,1.47-4.28,4.73.26,10.11,1.36,14.78,1.1.64-.04,1.57.38,1.41-.56ZM405.51,158.21h-13.14v49.69l13.14,5.71v-55.4ZM145.07,196.47v31.13c0,2.33,4.55,4.07,6.58,4.28,8.91.9,27.57.82,36.57.03,5.45-.48,6.63-2.55,7.11-7.74.61-6.7-.62-16.18-.59-23.43s1.42-15.27.54-22.76c-.55-4.67-2.4-6.24-7.05-6.65-9.28-.82-27.31-.81-36.6,0-2.83.25-5.48.96-6.27,4.01-.54,2.07-.63,11.9.27,13.47.96,1.67,7.78,5.81,7.45,7.38-.44,2.08-7.67-.03-7.99.29ZM212.32,171.48c-2.74.46-4.67,1.8-5,4.71-1.33,11.47,1.03,25.41,0,37.15.37,3.18,2.42,4.59,5.41,4.87,11.42,1.05,24.42-.85,36.02-.01,3.44-.33,5.14-3.42,5.44-6.55.75-7.75.83-26.07-.03-33.73-.41-3.66-2.15-6.12-5.99-6.58-6.4-.77-29.76-.87-35.86.15ZM270.33,173.23c-.69.74-1.22,2.49-1.33,3.52-.9,8.01-.8,27.33-.01,35.45.33,3.46,1.79,5.55,5.44,5.98,7.87.94,27.38.76,35.45.01s5.92-13.05,6-19.18.51-14,0-19.99c-.4-4.66-1.59-7.24-6.56-7.72-7.83-.76-26.59-.85-34.3.03-1.36.16-3.77.91-4.68,1.89ZM370.15,216.98c.32.27,2.35.09,2.97-.07,2.24-.57,3.47-2.6,3.78-4.78.9-6.33.84-27.19.07-33.66-.44-3.65-2.52-5.11-5.98-5.44-7.39-.71-24.72-.79-32.01.03-9.43,1.05-4.74,10.09-6.27,16.58-1.37,1.14-12.12,4.77-12.29,5.42-.29,1.12.49.82,1.12,1.14,3.55,1.85,7.74,3.16,11.36,4.94.84,4.38-2.05,13.85,3.49,15.65,3.95,1.28,3.17-1.57,4.69-3.94,1.4-2.19,3.51-3.43,5.81-4.5.81-.38,3.37-.58,2.1-2.16-.91-1.12-9.12.57-9.71-4.85-.93-8.51,2.4-23.11,12.42-24.72,13.33-2.13,18.24,8.69,18.98,20.15.6,9.31-2.2,7.34-9.02,9.25-.52.15-1.77.04-1.24,1.02.28.52,5.59,2.64,7.15,4.27,1.7,1.79,2.36,5.47,2.6,5.67ZM346.19,190.84c-1.26,6.14,2.25,15.51,9.77,14.66,6.33-.71,8.3-9.24,7.3-14.46-.33-1.7-4.81-3.17-4.58-5.99-3.58,4.08-7.32,4.93-12.48,5.79ZM463.77,186.77c-2.93,1.2-5.37,3.37-8.41,4.44-7.4,2.62-13.93,2.06-21.11-.9-1.46-.6-3.87-3.15-5.03-1.84-.82.93-4.15,12.09-3.71,12.58,1.68-.76,8.06-1.2,7.9,1.32,0,.14-.42,1.49-.49,1.54-.36.28-7.31-2.28-8.3,1.1-2.05,6.99-2.52,22.08-1.96,29.45,1.65,22,19.57,33.03,40.27,25.44,1.21-.44,7.27-3.89,7.7-3.44-.07,5.7-6.64,11.95-11.12,14.86-2.86,1.85-6.51,2.74-8.87,5.12,13.11-2.71,26.64-3.81,39.98-2.28-1.02-7.67-1.31-16.01-3.02-23.53-.34-1.51-1.35-3.35-1.84-5.02-.36-1.23-.69-5.2-.96-5.61-.32-.48-4.51-1.37-3.89-3.81.5-1.96,3.46.74,4.57,1.13,6.04,2.09,14-2.17,15.6-8.38,3.05-11.77-7.91-19.58-17.26-11.54-1.44,1.24-2.27,4.54-4.96,2.55-1.2-.88-2.41-5.75-2.48-7.27-.08-1.71,1.1-5.32.43-6.39-.2-.31-5.3-2.45-6.6-3.39-5.66-4.05-7.07-9.33-6.44-16.12ZM266.72,191.33c-1.46.59-10.44,1.91-10.82,2.31-.2.2-.13,3.49.22,4.01s10.23,1.49,10.61,1.11v-7.43ZM142.79,196.47l-9.36-.61c-.16.71-1.49,3-1.49,3.18v43.69l17.83-6.47,2.18.51c.19,1.13-1.11,2.49-1.75,3.38-4.19,5.88-10.45,11.29-14.72,17.27-.77,7.69.64,16.29-.12,23.86-.44,4.43-2.74,5.08-3.31,6.98s.17,4.94-.12,7.02h235.31c.03-1.46-1.32-2.54-1.44-3.94-.2-2.2,2.89-2.79.32-5.51-3.72-3.94-10.85-4.37-15.73-5.96-6.99-2.28-20.56-11.29-21.41-19.14-.34-3.16-.45-13.05,1.14-15.42.68-1.02,2.92-2.11,2.86-2.28-1.02-2.51-6.88-8.81-8.8-11.76-2.58-3.98-8.19-12.19-2.91-15.94,4.1-2.91,7.8,1.23,10.86,3.98,1.94,1.74,9.18,10.48,10.38,10.78,1.09.28,2.98-.99,4.47-1.08,2.27-.14,3.56,1.07,5.17,1.14,1.7.08,3.31-1.23,5.64-1.13,1.98.08,3.94,1.44,5.24,1.56,1.56.14,3.23-.63,5.5-.26,10.72,1.77,16.47,23.75,20.26,32.28.31.69.29,1.69,1.29,1.85-.96-10.42.13-20.7.03-31.15-.01-1.35-.58-2.6-.62-3.95-.17-5.61.41-11.28-.26-16.88l-9.99-6.85c.31,5.57.32,11.17-5.7,13.44l-36.72.14c-7.9-2.58-5.89-10.4-6.19-16.94l-13.07-5.2v17.99c0,2.01-5.13,5.1-7.19,5.38-7.55,1.03-26.92.74-34.81.07-2.95-.25-5.65-.91-7.38-3.47-.29-.43-1.45-2.89-1.45-3.12v-12.85l-10.85-.57v14.56c0,2.01-5.13,5.1-7.19,5.38-7.59,1.03-27.47.77-35.38.07-2.88-.25-8.26-2.84-8.26-6.02v-15.71l-7.94,1.77c-.88,1.02.51,23.12-.09,27.04-.55,3.57-3.67,5.73-7.07,6.06-12.95,1.25-27.95-.97-41.12-.06-2.43-.06-6.03-4.53-6.03-6.54v-30.56ZM517.46,209.03c.64.73,3.61-2.99,4.77-2.79.66.11,2.62,2.68,3.52,3.35,5.05,3.74,6.88,2.45,4.44,10.18-1.08,3.42-5.06,5.97-4.08,8.88.26.77,5.59,3.23,7.07,4.93,1.18,1.34,5.15,9.14,5.69,9.15,3.14-3.34-.12-4.92-1.36-7.76-2.95-6.77.59-13.27-1.01-20.7-2.04-9.5-10.49-16.67-20.23-13.44.87,2.78,1.53,5.23,1.19,8.21ZM129.65,202.76c-1.38.05-3.65,2.28-4.85,2.28h-8.85l.86,37.12h10.85c.38,0,1.39,1.12,2,1.14v-40.55ZM358.68,206.76c-1.48-.13-2.78.58-4.25.59-2.15.02-6-2.21-2.59,2.55,4.42,6.17,7.56-2.42,6.85-3.14ZM528.81,214.27c-1.58-.02-6.79-5.18-7.35-4.97-.3.11-3.9,2.67-4,2.89-.72,1.49,2.62,0,1.7,2.27-.57,1.42-2.16.25-2.24.32-.23.17-1.71,4.98-1.73,5.46-.09,2.31,2.31,4.24,4.4,4.67,6.2,1.27,9.06-5.45,9.22-10.63ZM340.97,217.03h13.14c1.41-1.89-4.57-7.39-5.41-7.41-2.84-.06-7.01,4.73-7.73,7.41ZM368.39,217.03c-.16-2.87-4.88-7.73-7.7-7.46-1.3.13-3.23,4.21-5.18,4.61-.45.48.17,2.85.32,2.85h12.57ZM419.79,222.17l-29.13-11.71,29.13,20.28v-8.57ZM546.43,213.74c-10.25,1.88-11.51,26.31,2.13,25.59,12.2-.65,14.32-28.61-2.13-25.59ZM405.51,274.72v-50.55l-13.14-9.42v49.69c0,.13,2.13-.21,2.6.54l10.54,9.74ZM344.97,231.89c-1.13,1.03,6.83,7.82,6.28,9.98-.09.37-.91.98-1.42.86-.77-.17-8.81-10.41-10.28-12-3.2-3.44-8.18-8.87-11.71-11.71-3.57-2.87-7.32-3.09-5.9,2.47,1.64,6.39,11.65,17.69,15.73,23.68,1.49,2.2,6.9,9.68,7.21,11.68.41,2.72-2.65,2.09-4.15.68-2.1-1.97-4.36-12.51-6.9-12.5-1.92,0-2.48,6.63-2.56,8.27-.53,10.75,3.93,15.13,12.61,20.51s18.16,4.3,25.38,11.15c5.04-7.46,11.38-13.25,19.05-17.94-3.78-6.7-5.59-14.35-8.96-21.25-2.71-5.54-6.92-13.08-13.81-13.32-.23.18,4.75,4.58.85,4.58-1.33,0-3.05-3.5-5.29-4.44-1.98-.83-3.72-.85-5.84-.72.91,1.96,4.7,3.53,3.97,5.94-.14.45-.83,1.02-1.39.9-.66-.15-4.58-5.08-6.55-6.03-2.19-1.06-3.92-.92-6.31-.82ZM570.74,220.62c-2.45,3.04-1.59,10.62,2.28,12.52,7.48,3.69,14.6-6.74,9.27-12.12-.53-.53-8.45-1.79-9.57-1.56-.35.07-1.76.89-1.98,1.16ZM514.02,223.32c-3.47.58-3.31,5.29-3.98,7.99l4.6-3.23c1.24-1.89-.03-3.03-.62-4.76ZM408.37,226.17v51.69c1.83,1.42,11.04,11.81,12.17,11.63.27-.04,3.67-2.22,3.75-2.55.79-3.38-4.05-4.27-5.92-5.94-3.01-2.69-3.38-6.01-4.93-9.35-2.07-4.48-5.77-7.79-2.9-13.32.45-.86,3.55-5.55,4.12-6.16,2.05-2.18,6.22-3.34,9.13-3.15-.35-1.76-1.43-3.24-2-5.13-.72-2.39-1.21-8.62-1.96-9.89s-9.63-6.34-11.46-7.82ZM523.73,226.74c-1.3,1.22-6.6-.26-6.85,0-.11.11.03,2.11-.54,3.04-.38.62-1.66.63-1.75,1.53,3.03-1.3,6.86,3.58,8.35,3.86,1.57.3,5.43-1.54,7.64-.43-2.78-2.9-7.69-2.61-6.86-7.99ZM531.74,268.43c2.51.35,2.62-2.85,4.26-4.58,2.92-3.09,6.67-3.32,6.64-9.41-.03-5.08-4.02-5.5-5.8-7.95-1.62-2.23-.36-6.54-4.95-8.76-4.32-2.1-8.31.8-10.03.36-1.2-.3-3.03-3.55-5.52-4.21-8.62-2.28-9.33,5.05-13.71,9.74-4.1,4.39-8.74,4.17-7.41,11.95.68,3.98,5.97,7.4,9.91,7.21,1.23-.33.79-8.96,1.74-10.36.36-.53,8.2-.56,11.74-4.25,1.07-1.11,1.87-4.23,3.71-3.71.63.18,1.42,3.64,2.1,4.76,1.16,1.9,4.18,4.26,6.19,5.23,3.3,1.6,3.85-.58,3.35,4.5-.31,3.23-1.35,6.39-2.21,9.49ZM577.42,235.88c-1.82,1.38-4.39-.86-5.93-.62-.67.11-.56,2.09-1.48,2.63-1.07.63-5.43.49-7.67,1.47-2.48,1.08-4.33,3.57-5.4,5.96l5.34,3.7c2.39-7.82,15.2-8.15,20.85-4-1.16-4.19-7.43-3.62-5.71-9.14ZM146.21,240.46c-4.2.21-12.74,5.59-16.28,5.47-1.01-.03-3.07-1.31-5.11-1.5-19.05-1.74-40.69,1.36-60.01,0-4.8.13-7.24,3.86-7.68,8.31-.68,6.77-.63,20.61-.03,27.43.37,4.21,2.74,7.82,7.16,8.26,19.6-1.42,41.86,1.89,61.14.03,2.93-.28,6.58-2.33,7.08-5.49,1.23-7.75-1.05-17.97.29-25.99l13.45-16.53ZM551.15,241.02c-3.2,1.52-6.06.13-9.13-.57.97,1.79-1.78,4.66-1.66,5.35s2.44,2.31,3.06,3.25c2.07,3.15,1.6,6.76.89,10.25,3.11.2,6.67-.74,9.34,1.22.81.59.98,1.59,1.92,2.08.56.29,3.94.92,4.15.7-.71-2.79,2.22-9.23,1.4-11.45-1.65-4.48-12.25-3.41-9.97-10.82ZM531.73,257.02c-4.88-.62-8.2-4.6-10.57-8.57-2.23,3.86-7.91,5.93-12.25,5.74-2.05,7.67-1.1,19.17,8.8,19.98,10.54.86,13.28-8.49,14.02-17.15ZM492.89,250.73l-2.21.65,2.21,20.48c5.02-1.48,9.56-2.53,14.84-1.14.4-.38-1.15-2.72-1.44-3.43-.27-.66-.2-2.16-.29-2.26-.21-.21-4.04-.03-5.86-.71-4.9-1.85-8.96-8.38-7.26-13.59ZM434.07,261.58l-8.52-9.46c-1.93-2-7.97.37-9.48,2.03-1.19,1.31-.88,2.53-1.52,3.62-.77,1.32-2.38,1.14-2.56,3.61-.05.76.89,5.23,1.24,5.35,1.53.54,1.28-5.71,2.82-6.16,6.02,2.34,11.82,1.2,18.01,1.01ZM568.08,251.95c-.93.18-2.49,3.26-3.21,4.21-.56.74-1.72.78-2.16,1.83-3.94,9.23,4.15,22,14.35,15.49,2.64-1.68,6.62-8.53,5.98-11.49-.15-.7-1.12-1.34-1.35-2.1-.38-1.26.07-3.75-.78-4.35-.46-.33-4.92-.41-6.57-.85-1.53-.41-5.49-2.89-6.24-2.74ZM559.59,266.29c-.88-.86-3.45-.55-4.86-1.14-1.6-.67-2.48-2.97-4.55-3.45-8.03-1.84-17.66,5.4-14.44,14.15,1.14-.78.92-2.79,2.02-3.96,2.37-2.52,6.16-.21,9.08-.01,3.22.22,6.75-1.13,9.61-.47,2.48.57,2.47,3.23,4.4,4.44.94-1.93.05-8.28-1.27-9.57ZM436.36,262.16c.95,5,2.51,8.77,1.11,13.96-.52,1.92-2.73,4.02-.83,5.45,1.51-1.56,11.29-3.29,11.52-4.8-.95-2.43-.42-10.18-1.8-11.75-.65-.73-8.38-1.9-10-2.85ZM434.01,263.93c-3.91.06-7.73.75-11.67.53-4.33-.24-5.69-3.05-6.41,3.85-.82,7.85,7.56,16.94,15.48,12.02,5.81-3.61,4.2-10.92,2.61-16.41ZM391.23,323.84c6.64-12.45,14.95-24.28,26.24-32.92l-23.74-23.53c-10.77,4.91-19.72,13.76-25.13,24.18l22.64,32.26ZM532.88,270.72c-1.34-1.29-5.97,2.93-7.06,3.95-1.56,1.47,3.39,2.2,4.39,3.57l4.38,3.9c-.35-3.9-2.37-7.39-1.71-11.42ZM535.16,298.71c1.44-8.02-1.3-15.55-8.39-19.88-4.88-2.97-6.62-1.36-11.61-2.67-3.39-.89-6.5-3.24-10.05-3.66-3.78-.45-7.04.23-10.5,1.66-.14.82.99.77,1.59.96,4.92,1.57,9.48,2.34,14.38,4.47,10.01,4.35,17.37,11.14,24.57,19.11ZM540.65,273.13c-.78.15-1.25,1.14-1.61,1.77-5.52,9.59-1.56,25.91,11.79,23.77,7.58-1.21,11.45-12.8,9.01-19.22-.29-.77-3.37-5.58-3.94-5.78-2.16-.75-6.06,1.04-8.41.99-1.72-.04-5.79-1.74-6.85-1.53ZM574,277.57c-3.81.52-6.47-.59-9.71-2.28.07,1.5-1.45,3.21-1.6,4.41-.35,2.8.55,6.1-.37,9.89-.91,3.74-5.34,8.51-5.47,9.42-.59,4.35,2.74,6.08,6.29,7.11-.06-6.39.68-18.59,5.69-23.16,2.39-2.17,6.17-1.48,5.17-5.4ZM129.65,295.28v-5.71c-.18-.24-1.66,1.14-2,1.14h-11.14v4.57h13.14ZM566.75,294.88c-.69.98-1.38,6.63-1.32,8.08.56,13.43,16.35,16.3,21.42,3.73.42-1.05,1.44-4.43,1.48-5.44.21-5.93-12.72-8.46-16.41-11.62-1.04-.1-2.15,2.63-3.02,3.69-.6.74-1.83,1.13-2.14,1.56ZM536.88,295.28c-1.74,4.07-.88,6.47,1.98,9.66,2.77-.92,2.11-3.43,1.92-5.86l-3.9-3.8ZM554.58,299.85c-3.71,1.68-7.49,1.36-11.42.57.01,1.5.19,2.98-.43,4.42-.59,1.36-2.9,2.26-2.94,2.7-.04.41,2.91,6.12,3.38,7.42,1.66,4.55,3.12,9.23,3.99,14l3.43-5.41c2.24-2.63,4.73-4.6,8.1-5.61,3.35-1.01,9.92-.24,7.46-5.96s-13.34-3.64-11.57-12.15ZM278.23,309.88c0-3.72-3.02-6.74-6.74-6.74s-6.74,3.02-6.74,6.74,3.02,6.74,6.74,6.74,6.74-3.02,6.74-6.74ZM40.39,307.97c-3.53,1.53-5.16,4.4-5.54,8.17-1.52,15.12,1.14,32.61-.03,47.99.18,4.81,2.72,8.38,7.7,8.86,16.05,1.55,34.56-1.23,50.87-.02,4.48-.79,6.76-3.9,7.15-8.27,1.42-16.09-.79-34.77-.41-51.03-.76-2.93-3.63-5.71-6.75-5.82l-53,.12ZM578.85,348.97c2.21.71,7.9-.52,10.57,0v-15.14c0-1.08-2.03-5.79-2.86-6.85-1.54-1.97-6.58-4.27-7.14-5.42-.61-1.26-.07-4.37-.28-4.58s-4.81.15-5.96-.03c-1.3-.21-3.34-1.81-4-1.66-1.04.23-.97,3.05-2.04,3.69-1.38.84-5.9.81-8.15,1.56-5.57,1.87-9.82,8.58-10.7,14.15,9.12-.14,18.22,1.43,25.14,7.71,1.33,1.21,5.01,6.44,5.42,6.57ZM234.74,358.11h73.11l-4.65-32.48-63.92.17-4.53,32.31ZM389.52,325.55h-83.39l2.86,23.41,68.27.05,12.26-23.46ZM124.71,397.89c1.25,1.24,4.04,2.29,5.8,2.48,14.7-.83,30.59,1.1,45.15.02,5.33-.4,8.63-2.03,9.4-7.73-1.08-15.24,1.43-32.43.02-47.43-.37-3.95-2.39-7.14-6.58-7.7-15.58,1.16-33.27-1.5-48.59-.02-5.81.56-7.64,5.29-7.73,10.6-.23,13.49-1.06,28.72.03,42.28.19,2.37.79,5.79,2.5,7.5ZM273.58,414.36c.43-1.34,0-8.17,0-10.28,0-1,1.19-5.66,1.55-7.01.49-1.84,3.47-8.15,2.77-9.27-.63-1-19.54-8.23-22.02-8.85-8.22-2.04-14.38-1.56-22.4,1.02-4.33,1.4-9.59,3.77-11.87,7.83,2.68-1.03,16-6.09,17.71-4.87.58.41.74,1.09.56,1.73-.25.87-15.2,3.72-17.16,5.69-3.36,1.71-11.75,7.22-7.12,11.04,3.97-2.97,18.34-10.85,22.79-10.02,1.29.24,1.65,2.1.83,2.64-.38.25-6.95,1.5-8.86,2.26-3,1.19-13.89,6.56-14.37,9.65-.55,3.52,3.43,3.64,5.86,2.98,4.74-1.28,11.51-6.57,16.54-6.23s13.7,10.45,20.79,12.38c2.36.64,13.68,1.53,14.4-.69ZM214.75,392.38c-6,1.05-4.4,2.35-5.14,6.57-.35,2.01-7.89,3.73-10.1,4.75-4.09,1.88-7.83,3.62-7,8.92.63,4.07,8.1,5.75,11.66,6.05,11.28.96,32.76.98,44.02,0,1.14-.1,6.03-1.17,6.55-1.74.81-.9-.32-.99-.72-1.3-2.58-2.01-6.6-4.74-9.38-6.58-1.59-1.05-4.45-3.31-6.23-3.52-6.65-.79-16.6,10.35-23.28,5.05-2.99-2.37-.65-5.83-1.25-7.37-.18-.47-1.26-1.02-1.65-1.73-2.16-3.9.61-5.92,2.53-9.09ZM207.32,395.23c-.78-.82-9.18,4.45-9.71,6.27l9.15-3.13.56-3.15Z"/>
    <path class="cls-1" d="M75.36,215.34c.17.11.72,3.01,1.07,3.8,1.5,3.36,2.27,4.24,5.6,5.82.97.46,3.97.67,3.64,2.06-2.79,1.98-6.67,2.45-8.49,5.79-.65,1.19-1.03,5.72-2.64,5.35-.86-.2-2.01-5.25-3.49-6.8-2.06-2.14-4.67-2.31-6.69-3.48-2.42-1.4,3.04-2.89,3.91-3.42,1.9-1.16,3.54-2.62,4.39-4.74.56-1.39.5-5.79,2.7-4.39ZM81.1,227.31c-2.78-2.14-4.97-3.52-6.57-6.84-1.12,3.2-3.87,4.89-6.56,6.57,2.91-.51,6.13,5.88,6.57,6,1.2.33,1.35-3.22,2.63-3.65,1.25-.86,2.27-2.17,3.93-2.07Z"/>
    <g>
      <path class="cls-1" d="M69.11,108.8c.28-.98,1.78-1.23,2.19.09.36,1.13.17,8.87-.49,9.33-.46.33-1.71-.55-1.71-.85,0-1.97-.4-7.17,0-8.57Z"/>
      <path class="cls-1" d="M69.11,129.93c.13-.44,1.28-1.16,1.71-.85.81.58.83,9.69,0,10.28-.46.33-1.71-.55-1.71-.85,0-1.97-.4-7.17,0-8.57Z"/>
      <path class="cls-1" d="M66.25,127.37c1.21,1.38-5.78,8.9-7.42,7.42-1.24-1.12,6.77-8.16,7.42-7.42Z"/>
      <path class="cls-1" d="M59.68,111.96c.55-.02,6.49,5.54,6.87,6.26.4.78.03,1.59-.59,1.72-.54.11-6.49-5.55-6.86-6.27-.51-1-.11-1.09.58-1.71Z"/>
      <path class="cls-1" d="M81.67,134.79c-1.55,1.49-7.63-5.37-7.42-6.55.15-.89.69-.79,1.43-.3.94.61,7.08,5.81,5.99,6.85Z"/>
      <path class="cls-1" d="M80.26,111.95l1.42,1.42c-1.04.75-6.1,6.54-6.57,6.56-3.7.21,4.61-7.67,5.15-7.98Z"/>
      <rect class="cls-1" x="54.83" y="122.8" width="9.71" height="1.71"/>
      <rect class="cls-1" x="75.96" y="122.8" width="9.71" height="1.71"/>
    </g>
    <path class="cls-1" d="M147.78,270.29l111.24-.14c9.77,1.12,9.31,13.88.01,15.43h-109.67c-9.13-.99-10.2-12.66-1.58-15.3ZM217.04,283.29h41.41c4.11,0,6.87-5.81,3.98-9.12-.28-.32-2.67-1.73-2.84-1.73h-42.55c1.6,2.32,2.83,3.89,2.02,6.87-.41,1.49-1.93,2.45-2.02,3.98Z"/>
    <path class="cls-1" d="M324.42,279.29c1.24-.37.7-4.44,2.56-3.99l2,3.99c0-1.17.68-7.26,2.86-5.7-1.35,1.92-1.02,7.07-1.99,8.57-1.74,2.69-2.33-3.87-3.72-4.01-.13.91-.43,4.93-2,4.57-.47-.11-2.93-8.81-2.58-9.13,2.04-1.82,3.02,4.52,2.86,5.7Z"/>
    <path class="cls-1" d="M304.42,273.58c3.02-.39,3,3.91,5.13,5.14v-5.14s1.72,0,1.72,0v9.14c-2.6-.44-3.67-3.77-4.85-5.72-.9.03.93,6.19-2,5.72v-9.14Z"/>
    <path class="cls-1" d="M292.43,273.58c2.24-1.05,4.31,5.17,4.85,5.15l.29-5.15h1.71v9.14c-1.97.47-4.4-5.73-4.85-5.72-.96,1.75,1.02,5.54-2,5.72v-9.14Z"/>
    <path class="cls-1" d="M316.79,273.18c5.39-.28,5.47,9.56-.09,9.57s-5.01-9.3.09-9.57ZM318.61,275.38c-.48-.75-2.48-.97-3.24.3-2.14,3.56,1.49,7.07,3.07,4.78.38-.55.47-4.61.17-5.08Z"/>
    <path class="cls-1" d="M283.09,273.18c5.86-.34,4.89,12.31-1.95,9.12-3.08-1.44-2.85-8.84,1.95-9.12ZM282.54,274.81c-2.72.77-2.02,7.31,1.54,6.15,1.34-.43,2.13-7.18-1.54-6.15Z"/>
    <path class="cls-1" d="M153.07,255.87c2.61-.65,7.17-.83,6.75,3.02-.22,2.01-3.14,1.04.11,5.25-2.97,1.38-2.14-3.97-5.14-3.13v3.43s-1.72,0-1.72,0v-8.57ZM154.78,259.87c1.43.23,3.23-.29,3.42-1.99l-3.42-.87v2.86Z"/>
    <path class="cls-1" d="M151.35,258.15c-.72.66-2.65-1.57-4.18-1.09-3.45,1.1-.24,10.26,3.04,4.23l-1.71-.28v-1.71s2.86,0,2.86,0c1.75,7.13-7.87,7.04-7.4.36.52-7.4,9.08-3.03,7.4-1.5Z"/>
    <path class="cls-1" d="M167.77,256.59c1.58,1.95,1.1,7.6-2.41,7.89-6.78.57-5.2-9.46-.62-9.18.53.03,2.75.94,3.03,1.29ZM166.13,257.09c-3.76-2.34-4.7,5.43-1.82,6.14,3.17.79,2.8-5.53,1.82-6.14Z"/>
    <path class="cls-1" d="M195.33,258.15c-.67.68-3.34-2.35-4.57-1.14-1.59,1.57,2.55,2.36,3.26,2.74,5.58,3.02-2.71,7.48-5.53,2.68,1.51-2.09,2.05.44,3.24.76,2.23.62,3.71-1.12.74-2.47-1.89-.86-3.69-.1-3.32-3.31.47-4.1,8.02-1.16,6.18.73Z"/>
    <path class="cls-1" d="M259.74,263.73c-1.11,1.11-4.54.96-5.2-.56-1.31-3.05-.24-9.24,4.02-7.44,2.52,1.06,2.52,6.66,1.17,8.01ZM256.74,257.02c-1.66.52-1.15,6.75,1.13,6.27,1.27-.26,1.77-7.19-1.13-6.27Z"/>
    <path class="cls-1" d="M171.34,255.87c-1.31,9.96,5.31,9.96,4,0h1.71c.32,3.92.45,10.24-5.32,8.46-2.54-.78-2.15-6.33-2.1-8.46h1.71Z"/>
    <path class="cls-1" d="M178.77,255.87c3.24-2.32,9.56,2.29,5.9,4.61-2.57,1.63-5.03-1.61-4.19,3.96h-1.71v-8.57ZM180.48,259.87c4.67.64,4.74-3.48,0-2.86v2.86Z"/>
    <path class="cls-1" d="M233.03,263.3c.8-.72,3.48-.75,3.41.29-.09,1.36-5.18.75-6.27.85-.43-2.34,2.53-3.31,3.45-4.82,1.02-1.67,1.05-3.24-1.35-2.61-.49.13-1.31,2.67-2.1,1.72-1.12-1.34,2.99-4.94,5.15-2.58,2.58,2.83-3.01,6.22-2.29,7.15Z"/>
    <path class="cls-1" d="M277.58,273.57c-.32,2.96,1.4,8.32-2.71,9.05-2.1.38-5.31-2.15-4.14-3.34,1.32-1.34,2.33,3.07,4.61,1.46.73-.52.75-5.82.53-6.04-.18-.18-6.71.5-4.57-1.14h6.28Z"/>
    <path class="cls-1" d="M208.47,255.87l5.71.29c.14,1.92-3.87.13-4,1.14-.06.43-.07,1.92,0,1.99.49.51,4.65-1.11,4,1.14l-4,.33v2.53c.5.5,4.65-1.11,4,1.14h-5.71s0-8.56,0-8.56Z"/>
    <path class="cls-1" d="M206.75,255.87c1.07,1.03-3.85,5.68-4,7.13-.02.74,3.42.19,4-.28v1.71s-6.85,0-6.85,0c-.8-.68,4.28-5.92,4.56-6.57.83-1.96-4.79.45-3.99-1.99h6.28Z"/>
    <path class="cls-1" d="M249.59,263.29c.68.5,4.01-1.06,3.42,1.14h-5.71c-.43-2.34,2.53-3.31,3.45-4.82,1.04-1.69.99-3.38-1.4-2.53-1.06.38-.4,2.12-2.05,1.64-.5-3.27,3.39-4.76,5.17-2.03s-1.68,4.6-2.89,6.59Z"/>
    <path class="cls-1" d="M229.03,264.44h-1.71s0-6.85,0-6.85c-.12-.16-3.19,2.79-2.29-.29.07-.24,4.01-2.83,4.01-1.14v8.28Z"/>
    <path class="cls-1" d="M221.61,254.73h2.85c.75,1.72-1.71,1-1.71,1.14v9.14c0,.09,1.58-.14,1.71,0,1.69,1.92-2.85,2.31-2.85.85v-11.14Z"/>
    <path class="cls-1" d="M263.87,254.73v11.42h-2.85c-.75-1.72,1.71-1,1.71-1.14v-9.14c0-.14-2.46.58-1.71-1.14h2.85Z"/>
    <path class="cls-1" d="M290.14,273.58v9.14c-.49.24-1.71-.48-1.71-.86v-8.28h1.71Z"/>
    <g>
      <path class="cls-1" d="M231.89,224.46c1.5-1.53,4.29,4.87,5.71,5.14.44-1.31-1.11-5.55,1.15-5.14v8.57c-2.73.46-2.91-4.03-5.13-5.14v5.14s-1.72,0-1.72,0v-8.57Z"/>
      <path class="cls-1" d="M213.04,224.46c1.7.17,5.09-.7,6,1.14,1.33,2.67-1.33,3.79-1.34,4.28,0,.36,2.29,2.53,1.61,3.15-1.59,1.46-2.24-2.68-3.69-2.89-3.12-.44.08,3.19-2.59,2.89v-8.57ZM214.18,228.45c.41.4,4.07.21,3.42-1.99-.75-2.55-5.04.39-3.42,1.99Z"/>
      <path class="cls-1" d="M255.3,226.74c-.44.42-4.09-2.46-4.56-.27-.39,1.77,4.06,1.53,4.87,3.12,1.78,3.5-4.65,5.62-6.58,2-.97-2.39,4.59,1.9,5.13-.57.42-1.89-4.87-1.09-5.17-4.02-.44-4.34,8.26-2.09,6.31-.26Z"/>
      <path class="cls-1" d="M241.02,224.46c9.27-1.89,9.86,10.89,0,8.57v-8.57ZM243.09,225.63c-1.25.36-2.05,6.57,1.05,6.27,3.42-.32,2.5-7.31-1.05-6.27Z"/>
      <path class="cls-1" d="M224.46,224.46l6.29.29c.03,1.97-4.43.1-4.58,1.14-.06.43-.07,1.92,0,1.99.29.3,3.87-.45,4,.29.5,2.85-3.36.76-4,1.43-.08.08-.08,2.2,0,2.28.18.19,6.71-.49,4.57,1.14h-6.28s0-8.56,0-8.56Z"/>
      <path class="cls-1" d="M205.61,224.46c1.04.19,5.5-.39,5.71.29.55,1.79-3.37.05-4.32,1.41-.08.44.3,2.13.4,2.23.72.68,4.51-1.08,3.92,1.21-3.93-.05-4.4-.89-4,3.43h-1.71v-8.57Z"/>
      <rect class="cls-1" x="221.03" y="224.46" width="1.71" height="8.57"/>
    </g>
    <rect class="cls-1" x="197.05" y="255.87" width="1.71" height="8.57"/>
    <path class="cls-1" d="M243.88,254.73c-1.07,3.49-2.19,8.16-4.56,10.85.47-3.04,1.79-6.92,3.17-9.7.4-.82-.13-1.43,1.39-1.14Z"/>
    <rect class="cls-1" x="332.97" y="273.57" width="1.73" height="6.29"/>
    <g>
      <path class="cls-1" d="M232.46,161.06v-11.42c2.55.3,7.46-.99,9.07,1.49s-.3,3.12-.32,3.95c-.02.51,1.72,1.69,1.55,3.4-.08.73-1.71,2.59-2.02,2.59h-8.28ZM239.31,151.92h-4.58s0,2.3,0,2.3h4.58s0-2.3,0-2.3ZM234.74,156.5c-1.42,3.48,4.62,3.63,5.14,1.99.84-2.67-3.83-1.99-5.14-1.99Z"/>
      <path class="cls-1" d="M179.91,149.64c3.63-.09,9.79-.82,9.77,4.28,0,2.35-1.79,2.99-1.71,3.9.1,1.05,2.09,2.27,1.64,3.81-3.61,0-3.28-3.95-6.85-3.43v2.86s-2.86,0-2.86,0v-11.42ZM182.77,155.92c6.06.49,6.12-4.69,0-4v4Z"/>
      <path class="cls-1" d="M154.78,149.64h2.86s.33,4.58.33,4.58c.87-.17,4.6.2,4.81,0,.78-.78-1.8-5.87,2.28-4.57v11.42c-3.83.89-1.53-2.25-2.61-4.58-.87.17-4.6-.2-4.81,0-.26.26.41,3.42-.26,4.6-.29.51-2.59.1-2.59-.03v-11.42Z"/>
      <path class="cls-1" d="M207.33,151.64c0-.26-1.13-1.08-.02-1.74,3.82-2.27,1.73,3.73,2.31,4.31.18.18,4.96.18,5.15,0,.78-.78-1.8-5.87,2.28-4.57v11.42c-4.08,1.3-1.5-3.79-2.28-4.57-.18-.18-4.96-.18-5.15,0-.51.51,1.34,6.05-2.28,5.14-.06-3.32.08-6.67,0-9.99Z"/>
      <path class="cls-1" d="M200.47,149.64c1.01,3.92-3.48,1.79-6.29,2.29-.93,3.83,2.94,1.85,5.72,2.28.88,3.76-2.62,1.9-5.39,2.27-2.35,4.15,5.29,2.19,5.96,2.87.11.11-.07,1.25,0,1.71h-8.57v-11.42h8.57Z"/>
      <path class="cls-1" d="M152.5,150.22c.36.54-.12,1.88-.85,2.26-1-1.45-5.3-1.02-4.86.86.27,1.13,5.15,1.15,6,2.57,3.13,5.21-5.65,6.9-8.86,4.57l.58-2.28c.27-.2,5.78,2.67,6.27.28s-7.48-1.4-6.75-5.58,7.62-3.97,8.47-2.69Z"/>
      <path class="cls-1" d="M174.11,149.74c.52.32,3.72,9.92,4.66,11.32-3.68,1.07-2.82-1.76-3.5-2.2-.37-.24-4.07-.2-4.69.01s-2.24,3.55-3.8,2.19c-.44-.38,3.9-10.41,4.28-10.85.57-.67,2.37-.89,3.06-.47ZM174.2,157.06c.2-.19-.69-4.46-1.7-4.56-.84,3.15-3.53,4.85,1.7,4.56Z"/>
      <path class="cls-1" d="M219.89,149.64c.08-.08,2.2-.08,2.28,0,.71.68-1.74,9.33,2.56,9.68s1.83-8.96,2.59-9.68c.08-.08,2.28-.11,2.28,0v8.85c0,4.09-9.71,3.66-9.71,0,0-1.27-.32-8.55,0-8.85Z"/>
    </g>
    <g>
      <path class="cls-1" d="M126.32,99.87c.16.26,5.16,2.79,5.47,2.83,2.37.31,3.68-2.34,6.99-.15,4.9,3.25.67,10.79-4.7,8.12-3.34-1.66-1.98-4.62-3.53-6.18-.35-.35-4.4-2.47-4.85-2.56-.86-.16-1.68.72-2.64.85-8.42,1.07-7.77-10.08-.52-9.15,1.32.17,2.27,1.34,3.26,1.11.27-.06,4.55-2.55,4.75-2.74,1.5-1.51.36-4.98,3.83-6.46,4.44-1.9,8.48,3.9,5.3,7.61s-5.6-.11-8.28.83c-1.79.63-6.66,3.42-5.09,5.9ZM138.75,89.95c0-1.44-1.17-2.61-2.61-2.61s-2.61,1.17-2.61,2.61,1.17,2.61,2.61,2.61,2.61-1.17,2.61-2.61ZM124.31,98.23c0-1.47-1.19-2.66-2.66-2.66s-2.66,1.19-2.66,2.66,1.19,2.66,2.66,2.66,2.66-1.19,2.66-2.66ZM138.74,106.48c0-1.43-1.16-2.59-2.59-2.59s-2.59,1.16-2.59,2.59,1.16,2.59,2.59,2.59,2.59-1.16,2.59-2.59Z"/>
      <path class="cls-1" d="M244.45,92.81c.57-1.84,9.84-.9,11.35,1.78,2.39,4.23-1.67,5.83-1.67,7.36,0,1.22,2.64,2.59,2.3,4.28-3.81,1.21-4.17-3.49-6.58-3.98-3.71-.76-.91,2.6-2.51,3.74-.86.62-2.9.11-2.9-.61,0-2.56-.52-10.89,0-12.57ZM252.94,95.46c-.42-.69-4.07-.72-5.06-.65v4.57c1.21-.17,3.7.39,4.61-.25.66-.46.82-3.07.45-3.67Z"/>
      <path class="cls-1" d="M285.57,92.81c.47-1.51,12.75-2.21,11.89,4.99-.33,2.78-2.81,3.34-2.74,3.57.33,1.24,2.6,3.08,2.86,4.57-3.17,2.26-5.02-3.61-5.53-3.73-5.2-1.21-1.77,3.25-3.96,3.98-.79.26-2.51-.13-2.51-.81,0-2.57-.52-10.87,0-12.57ZM294.06,95.46c-.42-.69-4.07-.72-5.06-.65v4.57c1.21-.17,3.7.39,4.61-.25.66-.46.82-3.07.45-3.67Z"/>
      <path class="cls-1" d="M234.15,100.51c.12-.08.15-1.49.93-1.66.13-.03,1.89.46,1.95.54.4.52-1.35,2.48-1.18,3.67.06.42,1.35.07,1.21,1.18-.4,3.14-2.34.94-3.15.9-2.2-.13-5.77,3.1-8.63-.56s1.1-4.77,1.36-6.12c.29-1.5-2.31-3.03.38-5.37,1.65-1.43,4.69-1.74,6.27.04,2.54,2.86-1.56,4.76-1.36,5.89.11.61,1.66,1.88,2.22,1.49ZM228.82,99.99c-2.46.43-1.71,4.99,2.15,3.91,1.99-.56-1.12-4.09-2.15-3.91Z"/>
      <path class="cls-1" d="M204.47,106.23c-1.02-.67-2.48-.34-3.4-.87-.87-.51-1.44-2.78-1.85-3.01-.43-.24-3.2-.24-3.32-.12-.43.42,1.32,5.52-3.16,3.45l.28-13.46c3.34-.72,10.45-.48,11.34,3.58.82,3.75-2.18,4.86-2.08,6.05s2.68,3.8,2.19,4.39ZM200.9,95.52c-1.01-.98-3.63-.67-5-.71v4.57c2.67,1.11,7.66-1.3,5-3.86Z"/>
      <path class="cls-1" d="M162.21,92.81c.29-.93,3.14-1.14,3.43-.86.22.21-.16,4.75,0,5.72,1.49-.25,5.64.76,6.21-.94.9-2.7-2.41-5.34,2.93-4.78v13.71c0,.15-2.22-.11-2.85.57-.18-.96.22-5.49,0-5.71s-6.07-.22-6.29,0c-.31.31.48,4.11-.25,5.17-.77,1.12-3.17.43-3.17-.31,0-2.55-.52-10.9,0-12.57Z"/>
      <path class="cls-1" d="M217.04,91.95v2.86s-6.86,0-6.86,0v2.86c1.61.09,3.28-.14,4.88,0,1.05.09,1.43-.49,1.41.86-.04,3.14-4.22,2.14-6.29,1.42v3.43c1.14.19,7.16-.27,7.42,0,.16.17.03,1.82-.27,2.31-.5.82-8.11-.88-9.76.4-.25-.04-.83-.62-.83-.72v-13.42h10.28Z"/>
      <path class="cls-1" d="M269.01,91.95v2.86s-6.86,0-6.86,0v2.86s6.29,0,6.29,0c1.01,3.96-3.71,1.77-6.29,2.28v3.43c.73.74,8.43-1.74,7.43,2.28h-10.85v-12.85c0-.06.8-.86.86-.86h9.42Z"/>
      <path class="cls-1" d="M191.33,106.23c-5.35.48-1.88-4.02-8.31-3.46-3.77.33-2.29,2.38-3.65,3.17-.41.24-2.06-.47-2.88.29.64-1.84,5.14-13.78,5.79-14.19.48-.3,1.79-.17,2.37.02,1.76.59,5.7,11.74,6.68,14.16ZM184.48,95.95c-1.21-1.27-2.25,4.23-2.85,4.56h4c-.11-.7-.98-4.39-1.15-4.56Z"/>
      <path class="cls-1" d="M302.71,91.95v8.85c0,3.27,6.28,3.27,6.28,0v-8.85h2.86v9.99c0,3.78-6.53,5.27-9.67,3.38-.61-.37-2.33-2.34-2.33-2.81v-10.57h2.86Z"/>
      <path class="cls-1" d="M159.34,95.38c-.33.33-5.82-1.8-6.84.3-.59,2.76,8.58,1.2,7.99,6.79-.49,4.62-9.32,4.66-11.16,2.06-.36-.51.8-2.21,1.17-2.24.41-.02,7.24,3.09,7.11-.35-.07-2.02-9.21-.53-7.85-6.72,1.06-4.79,9.79-3.27,10.03-1.87.02.1-.37,1.95-.44,2.02Z"/>
      <path class="cls-1" d="M276.28,92.09c2.95-.61,5.58.21,7.57,2.44-1.82,2.72-2.96.56-4.89.29-7.08-.99-6.08,10,.5,8.45,2.26-.53,1.94-2.89,4.4.4-10.15,9.72-19.19-9.19-7.57-11.58Z"/>
      <path class="cls-1" d="M330.98,91.95c.83.25,1.16,2.54.86,2.85-.22.23-4.57-.23-4.57,0v11.42c-6.48,1.01-1.94-7.61-2.85-11.43h-4.57s0-2.85,0-2.85c2.85.54,8.73-.74,11.14,0Z"/>
      <path class="cls-1" d="M318.13,91.95v13.42c0,1.13-3.43,1.13-3.43,0v-12.57c0-.87,2.61-1.01,3.43-.86Z"/>
      <path class="cls-1" d="M276.35,129.38c0,2.56-2.07,4.63-4.63,4.63s-4.63-2.07-4.63-4.63,2.07-4.63,4.63-4.63,4.63,2.07,4.63,4.63ZM273.79,129.31c0-1.22-.99-2.21-2.21-2.21s-2.21.99-2.21,2.21.99,2.21,2.21,2.21,2.21-.99,2.21-2.21Z"/>
    </g>
    <g>
      <path class="cls-1" d="M63.97,166.77c-1.22,1.17-4.65-3.32-6.86-.86-.92,1.02-.91,5.84,0,6.87,1.59,1.8,5.06-.25,4.58-2.58-.35-.34-3.63.9-1.95-1.72h4.23c1.38,11.23-13.99,8.34-9.75-2.6,2.16-5.59,11.92-1.21,9.75.89Z"/>
      <path class="cls-1" d="M64.54,192.47v-11.14c0-1.05,9.13-2.68,9.73,3.97.76,8.31-2.87,7.28-9.73,7.17ZM71.25,190.05c.93-.8.99-5,.43-6.15-.79-1.63-3.37-1.1-4.86-1.14.32,1.71-.55,6.26.26,7.46.62.92,3.55.37,4.17-.17Z"/>
      <path class="cls-1" d="M121.65,163.35c.31,3.89-3.24,1.24-5.71,1.71v2.86c2.78.44,5.64-1.5,5.15,1.99-.09.65-4.25.12-5.15.29v2.53c2.64,1.25,6.64-1.5,5.72,2.61-1.75-.32-6.86.57-8.03-.25-.76-.53-.84-10.41-.29-11.21.81-1.16,6.63-.25,8.32-.53Z"/>
      <path class="cls-1" d="M101.09,163.35c3.83-.89,1.53,2.25,2.61,4.58.87-.17,4.6.2,4.81,0,.78-.78-1.8-5.87,2.28-4.57v11.99c-4.03.85-1.42-2.55-2.61-5.15h-4.81c-.36,2.76,1.44,6-2.28,5.15v-11.99Z"/>
      <path class="cls-1" d="M74.82,163.35v1.71c-2.27.37-6.25-1.31-6.29,2-.02,1.36.36.78,1.41.86,2.73.22,5.01-1.23,4.31,2.28h-5.72s0,2.86,0,2.86c2.81.48,7.29-1.63,6.29,2.28h-8.57v-11.99h8.57Z"/>
      <path class="cls-1" d="M97.67,192.47c-4.44.87-1.39-2.53-6.01-2.33-3.33.15-2.15,2.82-5.41,2.33.68-1.54,3.54-11.57,4.07-11.91.42-.27,1.89-.18,2.4.02,1.49.56,3.97,9.86,4.95,11.9ZM93.67,188.47c.21-.19-1.23-5-2.28-5.14l-1.15,5.14h3.42Z"/>
      <path class="cls-1" d="M76.54,181.34c.49-1.6,6.96-.58,8.57-.85,1,3.91-3.48,1.8-6.29,2.28v2.86s5.72,0,5.72,0v1.71c-8.59-1.02-7.39,4.79.57,3.43v1.71h-8.57c.54-2.84-.74-8.75,0-11.14Z"/>
      <path class="cls-1" d="M85.67,163.35c.64,3.45-1.29,2.08-4,2.29.58,2.82,2.27,10.72-2.28,9.7v-9.71c0-.29-4.87,1.24-3.43-2.28h9.71Z"/>
      <path class="cls-1" d="M99.38,163.35c.95,3.09-3.43,2.03-3.43,2.28v9.71h-2.86v-9.71c0-.26-4.38.8-3.43-2.28h9.71Z"/>
      <path class="cls-1" d="M101.67,190.19c.86.86,7.2-1.92,5.71,2.28h-8.57v-11.14c0-1.08,2.86-1.08,2.86,0,0,1.27-.31,8.54,0,8.85Z"/>
      <path class="cls-1" d="M110.8,189.05c-.55-.09-2.13.14-2.28,0-.32-.3-.3-8.2.86-8.56,3.28-1.02.67,6.7,1.42,8.56Z"/>
      <rect class="cls-1" x="108.52" y="190.19" width="2.86" height="2.29"/>
    </g>
    <g>
      <path class="cls-1" d="M391.81,116.51c2.21-2.14,4.7,5.57,6.28,6.28.99-2.37,2.07-7.07,5.15-6.28v11.99c-4.22,1.05-1.34-4.1-2.57-6.86-2.53,6.19-3.39,4.32-6.56,0-.19,1.08.24,6.62,0,6.86-.08.08-2.28.11-2.28,0,0-1.69-.43-11.58,0-11.99Z"/>
      <path class="cls-1" d="M375.81,116.51c2.2-2.14,5.68,6.64,7.42,7.42.2-1.14-.26-7.17,0-7.43.08-.08,2.28-.11,2.28,0v11.99c-3.02,1.61-6.52-7.45-7.14-7.43-.79,1.13.09,7.07-.29,7.43-.08.08-2.28.11-2.28,0,0-1.69-.43-11.58,0-11.99Z"/>
      <path class="cls-1" d="M360.39,137.64c-1.26,1.24-7.01-5.29-7.46,1.4-.22,3.18-.15,5.9,3.63,4.76,1.33-.4,2.2-2.61,1.2-2.74-1.69-.22-2.22.76-1.94-1.7h4.57c1.14,9.6-11.55,9.74-10.29-.87,1.01-8.53,12.6-3.13,10.29-.85Z"/>
      <path class="cls-1" d="M362.68,134.22c4.14-.89,10.62-.68,8.89,5.2-.38,1.29-2.02,1.55-2.03,1.94,0,.27,2.85,3.58,2.85,4.57-3.19,1.61-3.42-2.74-4.82-3.75-4.14-3-2.07,3.52-2.62,4.04-.08.08-2.28.11-2.28,0v-11.99ZM364.96,139.36c5.98.65,5.95-4.09,0-3.43v3.43Z"/>
      <path class="cls-1" d="M378.47,133.85c8.96-.3,6.34,16.9-2.88,11.73-3.61-2.02-3.25-11.52,2.88-11.73ZM377.93,136.01c-2.82.81-3.34,9.65,2.09,7.84,1.56-.52,2.05-9.03-2.09-7.84Z"/>
      <path class="cls-1" d="M361.94,116.63c6.29-1.42,7.41,4.24,6.32,9.18-.93,4.21-8.23,3.85-9.33.44-1-3.09-.86-8.75,3.01-9.62ZM365.4,126.08c1.15-1.16,1.35-6.54-.84-7.19-6.36-1.88-3.64,11.72.84,7.19Z"/>
      <path class="cls-1" d="M392.95,134.22c.06-.1,2.18-.64,2.28-.57.92,4.04,1.61,12.65-4.28,12.62-6.88-.04-5.26-7.18-5.43-12.05h2.86v8.86c0,1.2,4.57,1.2,4.57,0,0-1.37-.24-8.48,0-8.85Z"/>
      <path class="cls-1" d="M398.09,134.5c.65-2.1,11.93-1.01,8.85,5.43-1.19,2.49-6.32,1.46-6.57,1.71-.78.78,1.8,5.87-2.28,4.57.57-2.97-.77-9.21,0-11.71ZM400.37,135.93c-.07,2.25-.5,4.49,2.44,3.9,4.35-.88,1.29-5.08-2.44-3.9Z"/>
      <path class="cls-1" d="M356.39,116.51v9.42c0,2.6-7.25,4.86-9.25.1-.3-.72-.59-1.18.43-1.49,2.61-.8,1.97,1.79,3.5,2.18,3.73.94,3.04-5.71,3.03-7.93-2.81-.48-7.29,1.63-6.29-2.28h8.57Z"/>
      <path class="cls-1" d="M410.65,121.65c.93-2.13,1.86-6,4.57-5.14.99.91-3.36,6.62-3.73,7.97-.7,2.57.98,4.68-2.55,4.02,1.12-4.83-2.92-7.72-4-11.99,3.52-.74,3.42,3.61,5.7,5.14Z"/>
      <rect class="cls-1" x="370.67" y="116.51" width="2.86" height="11.99"/>
      <path class="cls-1" d="M411.22,142.79c-3.65,1.2-2.49-8.9-1.42-9.14.56-.12,1.42.64,1.42.85v8.28Z"/>
      <path class="cls-1" d="M411.13,143.45c1.53.91.12,3.7-2.19,2.77v-2.86c.67.09,1.67-.22,2.19.09Z"/>
    </g>
    <path class="cls-1" d="M283.93,186.12c.91.84,8.13-1.67,9.92-1.68,2.07-.01,5.05,1.62,6.74,1.21.35-.08,3.92-4.36,6.07-3.41.46,2.84,6.4,11.11,5.7,13.29-.21.65-3.25,2.26-3.95,2.44-1.2.3-2.18-.41-2.27-.34-.3.22.1,2.81-.88,3.97-.27.32-2.96,3.05-3.15,3.16-.73.44-7.26,3.69-7.7,3.75-.34.04-6.38-.02-6.7-.12-.38-.11-6.48-3.85-6.74-4.16-.42-.48-.35-1.41-.71-1.85-.48-.59-1.78-.68-2.03-1.71s1.19-2.59-.07-3.34c-.43-.26-1.5.38-2.42.22-1.02-.19-2.83-1.46-3.91-1.97-.12-.72,5.71-12.72,6.32-13.11.88-.56,4.07.88,4.81,1.52,1.02.88.79,1.99.97,2.15ZM278.82,183.71l-5.33,11.1,3.23,1.55,5.33-11.1-3.23-1.55ZM310.7,195.33c.62-.72-4.36-10.01-5.42-11.4-.6.48-2.37,1.22-2.43,1.97-.04.54,4.03,9.65,4.47,9.97.53.38,2.51-.71,3.38-.54ZM302.06,187.41c-6.49-.85-12.54-3.02-15.91,4.49,2.85.07,4.67-2.89,7.56-2.17,1.83.46,10.74,8.31,11.28,7.88,1.48-3.6-2.42-6.55-2.92-10.2ZM287.29,187.34c-1.55.14-3.65-.52-4.86.56-.29.25-3.36,6.38-3.47,6.84-.58,2.51,3.54,1.08,3.98,1.21.41.11,6.04,4.21,6.49,4.66.63.62.85,2.69,2.14,3.29,1.03-3.19,3.44,1.22,5.13,1.49.41.07,1.87-.32,1.43-1.19s-3.78-2.34-4.29-3.14c-.55-.85.27-1.72.58-1.71.66.01,4.89,4.76,6.57,3.71.46-.28.82-1.06.56-1.43-.23-.33-7.42-3.24-5.71-5.15.59-.65,5.69,4.01,6.81,4.33,1.04.29,1.07.21,1.75-.63.2-.96-10.28-8.92-11.37-9.16-1.97-.44-4.54,4.09-7.66,2.07-2.4-1.55.91-4.42,1.9-5.75ZM282.15,203.32c1.71.36,2.82-1.27,3.45-2.56.41-.83.81-.51-.32-1.44-1.2-.23-3.66,3.49-3.13,3.99ZM286.73,201.62c-.18.14-2.67,4.06-.87,3.98.18,0,2.53-2.39,2.57-2.57.2-.88-1.19-1.8-1.7-1.42Z"/>
    <g>
      <path class="cls-1" d="M358.68,199.33c-1.4,3.02-5.2,3.06-7.42.84-.06-2.15,2.59.27,3.61.17.94-.09,2.36-1.54,3.81-1.02Z"/>
      <path class="cls-1" d="M353.54,196.48c.62-.03,1.48-.3,1.69-.93.4-1.2-1.53-3.29.31-3.07,4.6,6.61-2.94,5.24-1.99,4Z"/>
    </g>
    <g>
      <g>
        <path class="cls-1" d="M103.95,254.44c.09-.31.93-1.02,1.42-.85,1.08.22,2.35,3.96,3.1,4.78.39.43.91.6,1.18.36.75-2.07,1.33-5.23,4.01-5.14v10.28h-1.71s-.29-6.29-.29-6.29l-2.29,4c-1.64.39-2.02-3.03-3.13-3.42-.45,2.78,1.54,6.64-2.29,5.71.45-2.52-.62-7.26,0-9.42Z"/>
        <path class="cls-1" d="M79.39,268.44c2.6.03,7.26-.8,7.91,2.71.52,2.79-1.66,3.11-1.66,3.32,0,1.18,1.75,2.7,1.75,3.96-3.65,1.91-2.1-4.3-5.71-3.7-.21,2.71,1.16,4.63-2.29,4v-10.28ZM85.11,273c.39-2.84-.92-3.1-3.43-2.86v2.86s3.43,0,3.43,0Z"/>
        <path class="cls-1" d="M90.81,255.01c0-.12-.93-1.8.85-1.42,1.49.31,3.35,5.45,4.86,6.28.17-1.29-.57-5.97.87-6.28.56-.12,1.42.64,1.42.85v9.42c-3.58.68-3.75-4.12-6.28-5.71v5.71s-1.72,0-1.72,0c-.03-2.94.05-5.9,0-8.85Z"/>
        <path class="cls-1" d="M76.69,254.87c.48-.51,2.78-1.32,3.56-1.32,5.97-.04,6.01,11.4-.44,10.77-4.47-.44-5.06-7.38-3.13-9.44ZM79.76,255.39c-2.11.38-2.5,7.13.49,7.13,3.16,0,2.79-7.72-.49-7.13Z"/>
        <path class="cls-1" d="M76.93,269.74c.57.62.99,1.75-.11,2.11-1.66.55-1.28-1.41-2.97-1.59-2.35-.25-3.09,1.49-3.04,3.61.15,5.47,6.26,2.64,4.58.85-.13-.14-1.91.09-2.27-.87,1.1-1.42,3.01-.75,4.56-.86,2.06,5.68-6.66,7.89-8.27,3.99-2.57-6.21,3.32-11.84,7.52-7.25Z"/>
        <path class="cls-1" d="M96.39,278.01c-.92.92-5.02.99-6.16.43-2.73-1.35-3.09-11.54,4.17-9.88,3.43.79,3.48,7.95,1.99,9.45ZM92.36,270.23c-2.42.68-2.4,7.13,1.01,6.81,2.92-.27,2.84-7.89-1.01-6.81Z"/>
        <path class="cls-1" d="M101.09,268.44c.37,2.82-1.5,10.02,3.06,8.48,2.01-.68.35-7.92.94-8.49.15-.14,1.73.09,2.28,0-.1,4.93,1.56,11.84-5.87,10.16-4.51-1.02-2.96-12.67-.41-10.15Z"/>
        <path class="cls-1" d="M109.09,269.29c.45-1.45,8.34-1.95,8.05,2.85-.25,4.05-5.43,2.81-5.77,3.14-.66.64,1.62,4.51-2.28,3.43.46-2.44-.63-7.37,0-9.42ZM111.38,273.58c5.21.47,5.18-3.91,0-3.43v3.43Z"/>
        <path class="cls-1" d="M66.99,263.14c-.69-.71-1.02-2.46.13-2.7s1.09,1.56,1.81,1.73c4.12,1,2.94-3.31,3.04-5.97l-4.86-.33c-2.03-2.97,5.63-2.71,6.6-2.04,1.09.76.74,7.49-.33,8.88-1.47,1.92-4.81,2.06-6.4.42Z"/>
        <path class="cls-1" d="M119.94,258.15c.12-.9,2.62-5.95,4-4.56.94.95-4.99,7.92-3.43,10.28-2.48.71-1.73-2.41-2.57-4.57-.41-1.03-3.4-4.87-2.56-5.71,1.73-1.73,3.3,4.37,4.56,4.56Z"/>
        <rect class="cls-1" x="86.25" y="254.16" width="2.28" height="9.71"/>
        <rect class="cls-1" x="118.79" y="268.43" width="1.73" height="7.43"/>
      </g>
      <path class="cls-1" d="M275.11,313.95c-5.67,5.18-12.71-4.25-6.66-8.66,5.36-3.91,11.09,4.61,6.66,8.66Z"/>
    </g>
    <g>
      <path class="cls-1" d="M275.29,238.17c-.34-7.59-.48-12.41,8.27-13.16,6.09-.52,17.36-.52,23.46,0,5.42.46,7.7,2.19,8.25,7.74.59,5.84.66,19.35,0,25.13-.49,4.33-2.81,6.65-7.14,7.14-5.96.67-19.68.59-25.72.02-11.21-1.05-5.05-12.17-7.4-16.02-.55-.9-14.32-7.6-16.67-9.03-5.95-3.63-3.25-3.76,2.41-3.55,4.59.18,9.9,1.23,14.53,1.74ZM277.58,229.88c-.45,1.59,0,7.5,0,9.71,0,.24-.9.96-1.37.83l-14.62-1.4c2.6,2.24,13.96,6.45,15.46,8.53,2.15,2.96-1.89,12.65,2.95,14.75,5,2.16,5.35-3.51,9.57-4.14.61-.85-1.98-2.58-2.55-3.44-.65-.98-.79-2.15-1.44-3.13s-2.41-1.85-2.75-2.97c-1.53-5.15.43-12.86,4.14-16.76,5.1-5.36,16.92-1.65,19.43,5.18.69,1.89,1.55,9.03,1.22,10.85-.47,2.61-2.24,2.52-3.03,3.58-1,1.34-1.23,4.69-3.59,5.82,2.56.79,5.54,5.45,7.69,5.47,3.62.05,4.11-3.25,4.32-6.02.47-6.15.65-18.61-.02-24.58-.33-2.9-1.19-4.51-4.27-4.87-5.63-.65-21.25-.67-26.87,0-1.29.15-3.94,1.4-4.27,2.58ZM299.84,239.31c-4.06,3.32-10.04-2.03-12.4,3.29-1.81,4.09.24,13.27,4.96,14.73,8.22,2.54,12.17-6.31,10.87-13.15-.38-1.98-3.21-2.71-3.43-4.87ZM304.99,262.73c-.82-1.54-4.52-3.68-6.07-3.82-1.11-.1-7.21.29-8.36.53-1.56.32-3.68,1.85-4.41,3.3h18.85Z"/>
      <path class="cls-1" d="M291.9,253.53c-1.91-3.12,2.46-.54,3.14-.51,1.89.09,2.91-2.61,4.23-.87-.63,2.43-6.7,2.46-7.37,1.38Z"/>
      <path class="cls-1" d="M295.28,245.02c.63.71-2.38,4.84,1.15,4,.13,2.68-3.22,1.58-3.45-.29-.12-.98,1.3-4.84,2.3-3.71Z"/>
    </g>
    <g>
      <path class="cls-1" d="M160.34,175.48c3.51-.58,15.09-.59,18.66-.08,3.75.53,5.17,2.97,5.5,6.49,1.22,13.03-.97,27.92,0,41.16-.07,2.06-1.62,3.68-3.27,4.72l-22.14.11c-2.71-.97-3.52-3.28-3.75-5.96-.83-9.75-1.04-31.03.02-40.57.37-3.38,1.5-5.28,4.99-5.86ZM182.2,182.19c.05-1.52.36-3.89-1.54-4.45s-17.1-.42-19.91-.15c-3.31.32-3.26,1.39-3.11,4.6h24.56ZM182.2,183.91h-24.56v33.7h24.56v-33.7ZM182.2,219.32h-24.56c.29,2.33-1.1,5.69,1.68,6.6,1.71.56,19.51.55,21.19,0,2.78-.91,1.4-4.24,1.68-6.6Z"/>
      <path class="cls-1" d="M161.78,203.75c-1.79-1.69-1.46-4.76.78-6.07,3.02-1.75,4.23,1.99,7.87-1.27,1.47-1.31,1.07-4.77,3.61-5.54,5.61-1.69,6.62,7.04,1.57,7.29-2.97.15-3.25-1.42-6.75,1.24-2.6,1.97,1.88,4.55,3.6,4.81,1.04.16,2.89-2.28,5.48.23,3.03,2.94-.61,7.94-4.53,5.67-2.48-1.44-1.38-3.22-1.82-3.95-.24-.39-3.72-2.51-4.22-2.59-.82-.12-3.51,2.14-5.6.17ZM177.02,193.09c-.41-.58-4.27-1.11-3.28,1.83,1.19,3.52,4.38-.27,3.28-1.83ZM162.85,199.41c-1.32,2.07,1.61,5.09,3.09,2.2,1.19-2.33-2.28-3.46-3.09-2.2ZM177.35,207.03c0-1.02-.83-1.85-1.85-1.85s-1.85.83-1.85,1.85.83,1.85,1.85,1.85,1.85-.83,1.85-1.85Z"/>
      <circle class="cls-1" cx="169.99" cy="222.7" r="2.65"/>
      <path class="cls-1" d="M173.63,179.34c.42,1.36-1.01,1.52-2.04,1.65-1.51.19-3.71.5-4.81-.8-.27-1.38,1.11-.81,1.99-.85,1.61-.07,3.25.04,4.86,0Z"/>
    </g>
    <g>
      <path class="cls-1" d="M241.6,190.19c2.5-1.26,6.34.24,6.81,3.17.42,2.56.52,9.96-1.38,11.7-2.03,1.86-3.32.22-2.59,5.12-2.74.28-4.38-3.35-6.69-3.87-5.32-1.21-12.42,2.63-12.74-6.4l-7.42,5.71c-.28-1.29.43-4.77-.1-5.62-.4-.64-4.22-.78-4.93-3.93-.41-1.84-.41-11.06,0-12.89s2.41-3.52,4.2-3.8c2.88-.45,18.36-.49,20.98.09,4.32.96,4.02,7.31,3.84,10.73ZM219.33,202.18c1.41-.71,3.62-3.49,4.97-3.88,4.3-1.24,14.55,2.53,15.55-3.87.29-1.86.3-9.55-.22-11.14s-1.87-2.08-3.45-2.26c-2.89-.34-17.51-.41-19.74.27-.5.15-1.44.72-1.73,1.13-.79,1.12-.81,11.32-.41,13.06.91,3.95,6.43,1.08,5.02,6.69ZM237.31,199.9c-2.92.58-7.44-.42-10.57,0-.3,7.18,7.14,3.67,11.59,4.69,1.62.37,2.75,2.27,4.4,2.74-.66-4.32,1.04-2.15,3.06-3.38,1.26-.76,1.19-7.88.97-9.5-.31-2.34-2.11-3.02-4.31-3.13-1.55-.07-.68,2.73-.99,4.16-.39,1.81-2.36,4.06-4.15,4.41Z"/>
      <circle class="cls-1" cx="233.3" cy="189.57" r="2.07"/>
      <path class="cls-1" d="M222.1,187.98c.38.61-.08,2.46.07,3.35-7.76,1.04-1.9-6.32-.07-3.35Z"/>
      <circle class="cls-1" cx="226.95" cy="189.54" r="2.01"/>
    </g>
  </g>
  <path class="cls-1" d="M169.05,46.82c0,2.84-2.3,5.13-5.13,5.13s-5.13-2.3-5.13-5.13,2.3-5.13,5.13-5.13,5.13,2.3,5.13,5.13ZM166.97,46.76c0-1.7-1.38-3.09-3.09-3.09s-3.09,1.38-3.09,3.09,1.38,3.09,3.09,3.09,3.09-1.38,3.09-3.09Z"/>
  <path class="cls-1" d="M187.73,34.45c-.38-.52-1.72-.97-2.42-1.86-2.98-3.79.11-4.61.11-6.6,0-1.23-1.83-3-1.54-6.31.1-1.17,3.27-8.56,4.04-9.1,1.23-.85,2.57-.58,3.27-1.02s.68-2.12,2.85-2.59c2.47-.54,3.3.8,4.44.81.9,0,2.74-1.34,4.48-1.3,4.41.11,4.24,2.72,6.35,4.39.83.66,2.01.67,2.79,1.2,3.26,2.24,4.48,6.56,3.66,10.36-.23,1.09-1.38,2.19-1.46,3.08-.12,1.41,1.75,2.61,1.13,5.11-.7,2.79-2.21,2.29-3.22,3.69-.9,1.24-1.13,3.82-2.36,5.64-4.31,6.37-14.21,6.7-19.08.88-1.81-2.16-1.99-4.94-3.05-6.38ZM205.57,20.59c-.39-.28-4.81,3.11-9.12,1.98-2.87-.75-3.78-3.95-6.01.24-4.62,8.66,1.35,23.64,13.01,19.86,6.44-2.09,8.97-12.69,6.61-18.28-.53-1.25-2.69-1.63-3.86-2.45-.47-.33-.52-1.28-.63-1.35Z"/>
  <path class="cls-1" d="M204.47,35.41c2.34,2.09-8.84,3.67-9.12.28-.13-1.51,4.06.79,4.85.78,1.04,0,3.73-1.56,4.28-1.07Z"/>
  <path class="cls-1" d="M198.76,33.12c-.5-1.9,1.83-.71,2.25-2.06.45-1.47-2.41-3.89.03-4.79,1.25,3.2,2.87,7.64-2.27,6.85Z"/>
  <path class="cls-1" d="M57.55,50.97c-1.56-1.65-3.15.65-4.58,1.13-2.36.8-5.34.73-7.26-.99,7.44-6.17-3.93-20.23,6.06-25.34,5.1-2.61,9,1.7,10.09,1.54,1.75-.27,4.32-2.16,7.48-2.12,2.75.03,5.7,2.01,7.01,2.12,1.89.16,4.71-4.63,10.66-.94,7.89,4.89.63,15.47,3.69,22.58.47,1.09,2.3,1.86,1.25,2.74-3.45,2.9-7.98-1.25-9.35-.82-.75.23-2.49,5.27-3.3,6.44-3.79,5.43-12.53,6-17.35,1.55-2.61-2.42-3.24-6.66-4.39-7.88ZM58.83,41.12c-.91,8.83,2.31,20.56,13.39,18.81,7.03-1.11,9.47-12.1,8.31-17.94-.31-1.55-5.05-4.44-5.14-7.14-1.05.74-1.41,1.88-2.58,2.84-4.13,3.39-8.81,3.77-13.98,3.44ZM57.11,43.41c-2.58-.02-1.95,4.56-.28,5.71l.28-5.71ZM83.38,43.41c-1.72-1.66-1.05,5.26-1.13,5.71,2.19-.33,1.99-4.87,1.13-5.71Z"/>
  <path class="cls-1" d="M75.39,50.83c.52,2.99-1.75,6.19-4.87,6.32-4.67.2-7.21-6.32-5.13-6.32h9.99ZM73.68,52.55c-1.79.09-3.64-.13-5.43,0-.63.05-1.9-.32-1.41.85,1.13,2.72,6.54,2.59,6.85-.85Z"/>
  <path class="cls-1" d="M71.39,43.41c.37.37,1.5,5,1.09,5.64-1.2.67-2.13.38-3.36.06.01-.92,1.67-.87,1.76-1.51.03-.24-1.53-6.25.52-4.2Z"/>
  <path class="cls-1" d="M62.83,45.69c-1.74-1.93,4.02-3.8,4.56-1.42s-2.2.3-2.47.35c-.44.07-1.57,1.65-2.09,1.07Z"/>
  <path class="cls-1" d="M77.68,45.69c-.56.57-1.62-.99-2.09-1.07-.31-.05-3.28,2.18-2.47.22,1.45-3.5,6.04-.65,4.56.85Z"/>
  <g>
    <path class="cls-1" d="M110.66,42.41c-1.11-.9-3.55-.14-3.85-3.35-.17-1.84,1.01-2.63,1.07-3.91.13-2.77-2.53-6.26.37-9.44.91-.99,2.22-.84,3.09-1.48,1.43-1.05,1.56-2.95,4.45-3.54,1.26-.26,13.28.36,13.87.72,1.1.67,1.86,3.78,1.69,5.09-.23,1.87-1.96,3.13-2.24,4.65-.86,4.61,1.03,8.49-1.32,13.53-2.91,6.23-10.78,6.73-14.99,1.59-.88-1.07-1.78-3.58-2.13-3.86ZM127.37,31.98h-9.42c-.57,0-3.76-1.7-4.28-1.14.19,1.36-.79,6.61-2.03,6.86-.74.15-2.65-2.67-3.14.29-.59,3.59,2.37,2.02,3.37,2.64.22.13.82,2.74,1.31,3.55,2.29,3.8,7.8,5.33,11.29,2.32.72-.62,2.9-4.38,2.9-5.1v-9.42Z"/>
    <path class="cls-1" d="M124.51,42.84c-.02,4-8.36.26-6.85-1.14.52-.49,5.15,2.65,6.85,1.14Z"/>
    <path class="cls-1" d="M121.09,40.55l1.71-1.15c.02-1.45-2.17-3.83,0-4.56.65,2.64,3.03,6.08-1.7,5.71Z"/>
  </g>
  <path class="cls-1" d="M29.99,93.48c-1.54-1.71,3.55-3.36,4.04-1.25s-1.94.27-2.19.31c-.39.06-1.39,1.46-1.85.95Z"/>
  <path class="cls-1" d="M43.12,93.48c-.5.5-1.44-.87-1.85-.94-.28-.05-2.9,1.93-2.18.2,1.29-3.09,5.34-.57,4.03.75Z"/>
  <path class="cls-1" d="M115.98,37.49c-1.54-1.71,3.55-3.36,4.04-1.25s-1.94.27-2.19.31c-.39.06-1.39,1.46-1.85.95Z"/>
  <path class="cls-1" d="M129.11,37.49c-.5.5-1.44-.87-1.85-.94-.28-.05-2.9,1.93-2.18.2,1.29-3.09,5.34-.57,4.03.75Z"/>
  <path class="cls-1" d="M193.95,27.34c-1.54-1.71,3.55-3.36,4.04-1.25s-1.94.27-2.19.31c-.39.06-1.39,1.46-1.85.95Z"/>
  <path class="cls-1" d="M207.08,27.34c-.5.5-1.44-.87-1.85-.94-.28-.05-2.9,1.93-2.18.2,1.29-3.09,5.34-.57,4.03.75Z"/>
  <path class="cls-1" d="M348.69,193.53c-1.54-1.71,3.55-3.36,4.04-1.25s-1.94.27-2.19.31c-.39.06-1.39,1.46-1.85.95Z"/>
  <path class="cls-1" d="M361.82,193.53c-.5.5-1.44-.87-1.85-.94-.28-.05-2.9,1.93-2.18.2,1.29-3.09,5.34-.57,4.03.75Z"/>
  <path class="cls-1" d="M288.03,246.64c-1.54-1.71,3.55-3.36,4.04-1.25s-1.94.27-2.19.31c-.39.06-1.39,1.46-1.85.95Z"/>
  <path class="cls-1" d="M301.16,246.64c-.5.5-1.44-.87-1.85-.94-.28-.05-2.9,1.93-2.18.2,1.29-3.09,5.34-.57,4.03.75Z"/>
  <path class="cls-1" d="M541.98,223.67c-1.35-1.87,3.9-2.96,4.15-.81s-1.96.06-2.21.07c-.39.02-1.54,1.3-1.94.74Z"/>
  <path class="cls-1" d="M555.03,225.09c-.55.45-1.33-1.02-1.74-1.14-.27-.08-3.09,1.6-2.19-.04,1.61-2.93,5.37,0,3.93,1.18Z"/>
  <path class="cls-1" d="M527.41,216.65c-.55.45-1.33-1.02-1.74-1.14-.27-.08-3.09,1.6-2.19-.04,1.61-2.93,5.37,0,3.93,1.18Z"/>
  <path class="cls-1" d="M540.67,279.21c-1.56-1.91,3.99-3.41,4.39-1.12.39,2.23-2.1.18-2.36.21-.42.05-1.57,1.49-2.03.91Z"/>
  <path class="cls-1" d="M554.74,279.93c-.56.51-1.49-1.01-1.93-1.11-.3-.07-3.21,1.9-2.35.09,1.55-3.24,5.75-.32,4.28,1.02Z"/>
  <path class="cls-1" d="M570.75,295.36c-.92-2.29,4.81-2.08,4.53.22s-2.06-.44-2.32-.49c-.42-.08-1.94.96-2.21.27Z"/>
  <path class="cls-1" d="M583.98,300.19c-.69.32-1.13-1.41-1.52-1.63-.26-.15-3.63.87-2.27-.6,2.43-2.64,5.59,1.38,3.79,2.24Z"/>
  <path class="cls-1" d="M566.59,257.46c-.92-2.29,4.81-2.08,4.53.22s-2.06-.44-2.32-.49c-.42-.08-1.94.96-2.21.27Z"/>
  <path class="cls-1" d="M579.81,262.28c-.69.32-1.13-1.41-1.52-1.63-.26-.15-3.63.87-2.27-.6,2.43-2.64,5.59,1.38,3.79,2.24Z"/>
</svg>