<?xml version="1.0" encoding="UTF-8"?>
<svg id="Layer_1" xmlns="http://www.w3.org/2000/svg" version="1.1" viewBox="0 0 599.7 469.6">
  <!-- Generator: Adobe Illustrator 30.0.0, SVG Export Plug-In . SVG Version: 2.1.1 Build 123)  -->
  <defs>
    <style>
      .st0 {
        fill: #002356;
      }
    </style>
  </defs>
  <g>
    <path class="st0" d="M26,257.5c1-.3,1.4.5,1,1.4-.2.4-5,5.2-5.6,5.6-1.4,1.1-2.2.3-1.6-1.3,1.7-.6,5-5.4,6.2-5.7h0Z"/>
    <polygon class="st0" points="14.8 284.7 14.8 274.9 16.3 275 16.6 284.1 14.8 284.7"/>
    <path class="st0" d="M9.8,269.8H.5c-.7,0-.7-1.8,0-1.8h8.7l.5,1.8h0Z"/>
    <path class="st0" d="M4.9,257.5c.6-.2.9.2,1.3.5.6.4,5.4,5.3,5.6,5.6.4.7-.5,1.8-1.5,1.1-.6-.4-5.8-5.7-5.9-6.1-.1-.5,0-1.1.5-1.2h0Z"/>
    <path class="st0" d="M10.7,272.7c.6,0,1.4.7,1.1,1.4-.2.4-5.1,5.2-5.6,5.6-1.2.9-2.3.4-1.7-.9.2-.4,5.8-6.1,6.2-6.1h0Z"/>
    <path class="st0" d="M20.1,272.7c.6-.2.9.2,1.3.5.6.4,5.4,5.3,5.6,5.6.4.7-.5,1.8-1.5,1.1-.6-.4-5.8-5.7-5.9-6.1-.1-.5,0-1.1.5-1.2h0Z"/>
    <path class="st0" d="M14.8,262.9v-9.2l.9-.5c1.6.3.7,7.6.9,9.2l-1.8.6Z"/>
    <path class="st0" d="M31.1,269.8h-9.4l.6-1.8c2.3,0,5-.3,7.2,0,1.4.1,2.2.3,1.6,1.8h0Z"/>
  </g>
  <path class="st0" d="M113.5,438.4c.1.6,0,.8-.3,1.3-1.1,1.8-4.5,4.2-5.8,6.1.3.2,1.4.4,1.7.4.9-.1,8.5-9,10.2-10l7,2c.1.5-.1.7-.3,1.1-1,1.5-8,8.1-8,8.7.5.7,1.1.7,1.8.4,2.3-2.6,4.6-5.3,7.1-7.8,1-1,6-6.4,6.7-6.7.7-.3,4,.5,5.1.7,1.2.3,3.3.5,2.2,2.2l-12.7,13.4c-.4.9,2,.7,2.2,1.5l-.9,1.1-48.8-12c2.2-1.6,12.9-13.8,14.3-14,.6,0,.9,0,1.3.5l-12.3,12.3v.7l15,3.5,7.7-7.2,7,1.8h0ZM138.5,436.2c-1.6-.2-3.4-1.3-4.9-.4l-11.6,12.3-.5,1.1,4.7.5,11.8-12.5.5-1.1h0ZM123.6,438.8l-4.3-.5-8,8.4c0,.5,3.8,1.3,4.3,1.1.5-.2,6.4-6.3,7.1-7.1.4-.5,1-1.1.9-1.8h0ZM101.1,444.6l4.7.6,5.1-5.5c0-.4-3.7-1.4-4.3-1.1-.3.1-4.5,4.4-4.9,4.9-.3.4-.7.5-.5,1.1h0Z"/>
  <path class="st0" d="M126.2,406.9c.7.8-4.8,6.2-5.1,7.6l9.4,2.9c1.4,2-7.5,5.4-9,5.7-5.2,1-15.4-.5-14.6-7.7.8-6.7,13.6-10.4,19.2-8.6h0ZM123.6,408c-4.6-.8-18.3,4.2-14.3,10.5,3.1,4.9,15.1,3.9,18.7-.3l-9.4-3.1,5.1-7.1Z"/>
  <path class="st0" d="M122.9,414.1c0-.4,0-.7.2-1.1.3-.6,4.3-5.6,4.8-5.8,2-.5,5.2,3.2,5.5,5.2,1.1,7.9-6.4,2-10.5,1.6h0ZM131.6,415.2c1-2.7-.5-5.2-3.1-6.1l-3.4,3.8,6.5,2.4Z"/>
  <rect class="st0" x="151.5" y="403.5" width="1.7" height="21.7" transform="translate(-284.2 480) rotate(-78.4)"/>
  <path class="st0" d="M155.2,423.9l-.2,1.1-.7.3c-5.5-1.3-11-2.1-16.5-3.5-.8-.2-1.8-.4-2.6-.7-1.4-.5-.6-1.2.5-1.5l19.5,4.3h0Z"/>
  <path class="st0" d="M158.8,421c-.9.7-16.9-3.4-19.4-3.6-1.4-.3-1.3-1.8.2-1.7,3.1.2,15.8,2.8,18.7,3.8.7.3,1.2.9.5,1.4h0Z"/>
  <path class="st0" d="M145.4,427.9c-.7.7-12.3-2.4-14.1-2.7l-.4-1.3,13.9,2.6.6,1.4h0Z"/>
  <path class="st0" d="M93.2,434.4v-1.5c.2-.2,5.8,0,6.5.5.4.2,3.5,5.7,1.3,5.6l-2.4-4.2-5.4-.5h0Z"/>
  <path class="st0" d="M34.5,441.9c-.2-.2-.5-.9-.4-1.1l55.7-41.1,14.8,4.9,9-7.8c20.8,4.3,42.3,6.6,63.1,10.9,1.6.3,5.1.3,3.6,2.6-14.8,14.6-28.6,30.4-43.2,45.3-.9.9-4.9,5.1-5.6,5.3l-16.7-3.5c-2.1,1.2-8.7,8.9-10.4,8.8l-69.8-24.3h0ZM177.3,409.8l-63.2-10.8-48.5,45.1,65.1,14.9c13.2-13.7,26.4-27.4,39.5-41.2,1.9-2,5-4.9,6.5-6.9.3-.4.7-.5.5-1.1h0ZM89.2,412.6l.2-1.1c1.1-1.5,5.4,1.8,6.7,1.3l6.9-6.5c-.3-.4-.7-.5-1.1-.7-1.6-.8-8.9-3.4-10.5-3.7-.5-.1-.9-.3-1.4,0l-52.6,39,67.3,23c.4-.2,6.7-6,7-6.5.2-.4.6-.3,0-.7l-48.2-10.9c-.7-.2-1.3-.6-1-1.4l3.9-4.2c-1.6-.6-10.7-3.4-10.9-4.6.7-1.5,2.4-2.5,3.6-3.5,4-3.2,8.3-6.2,12.6-9.1l9.8,3.3,4-3.6c0-.5-4.4-1.6-5.1-2.2-.5-.5-.5-.6,0-1.1,1.5-1,5.1,2,6.6,1.6.3,0,1.9-1.6,2.3-2,.2-.2.7,0,.5-.8l-5.4-1.8c.5-3.2,5.3,1,7,.7l2.8-2.6-5.1-1.6h0ZM79.7,427.5c-2.1-.1-6.3-2.9-8.1-2.5-4.1,3.2-8.9,6.2-12.9,9.6-.3.2-.7,0-.5.8,2.2.2,8.1,3.7,9.9,3.2l11.5-11.2h0Z"/>
  <path class="st0" d="M74.5,220.1c.5-.1.7,0,1.1.3,1.1,1.3,1,4.7,3.1,6.7s4.7,2,6.3,3.1c2.4,1.6-2.8,2.7-3.9,3.3-4.2,2-3.7,4.2-5.3,7.8-1.5,3.3-2.7-2.7-3-3.6-1-2.3-2.4-3.4-4.6-4.5-1.3-.7-3.4-.8-4-2.2,0-1,4.2-2.1,5.2-2.8,1.7-1.1,2.9-2.8,3.7-4.7.4-.9.7-3.4,1.5-3.6h0ZM81.9,231c-3.7-1-5.8-3.4-7.1-6.9-1.4,3.4-3.4,5.4-6.7,7.1,3.3,1.6,5.1,3.4,6.7,6.7l2.9-4.4,4.2-2.5Z"/>
  <path class="st0" d="M574.7,285.4c-1.1-3.4-2-6.5-5.3-8.3-1.2-.6-6.5-1.7-3.7-3.4,3.6-2.1,5.6-1,7.7-5.7.5-1,1.6-6.6,3.1-3.5,1.7,3.5,1.2,5.7,5.3,7.8,1.2.6,6.5,1.7,3.7,3.4-4,2.3-5.4.9-7.8,6-.7,1.5-.7,4.2-2.9,3.7h0ZM582.7,274.5c-3.6-.9-5.8-3.5-7.1-6.9-1.6,3.3-3.5,5.7-7.1,7.1,1.3.9,3,1.2,4.2,2.4,1.3,1.3,1.8,3.4,3.1,4.7.8-2.6,1.9-4.3,4.2-5.7.3-.2,3-1,2.7-1.5h0Z"/>
  <path class="st0" d="M534.5,261.1c0,2.8-2.2,5-5,5s-5-2.2-5-5,2.2-5,5-5,5,2.2,5,5ZM532.8,261.1c0-1.8-1.5-3.2-3.2-3.2s-3.2,1.5-3.2,3.2,1.5,3.2,3.2,3.2,3.2-1.5,3.2-3.2Z"/>
  <path class="st0" d="M32.1,179.3c0,2.8-2.2,5-5,5s-5-2.2-5-5,2.2-5,5-5,5,2.2,5,5ZM30.4,179.4c0-1.8-1.5-3.3-3.3-3.3s-3.3,1.5-3.3,3.3,1.5,3.3,3.3,3.3,3.3-1.5,3.3-3.3Z"/>
  <path class="st0" d="M430.1,237.2c4.5-.9,9-1.2,13.4-2.4,1.9-.5,7.1-2.7,8.4-2.4,1.8.3,1.4,6.6,1.2,8.1-1.3,12.4-16,16.4-21.7,4-.6-1.3-2.5-6.3-1.4-7.3h0ZM432.6,239c-.6.7,2,7.5,3,7.2,3.4-4.8,9.3-7.2,15.1-6.7.8-.5.3-3.7-.2-4.6-5.6,2.6-11.8,3.4-17.9,4h0ZM437.6,248.8c5.8,2.6,10.8-.7,12.7-6.4-.1-1.2-4.2-.1-5,0-3.2.9-6.7,3-7.7,6.3h0Z"/>
  <path class="st0" d="M436.8,214c1.4-.5,1.8.7,1.5,1.9-.7,2.5-7.2,8.1-5.9,10.8.8,1.8,7,1.3,5.8,3.6-.8,1.6-5.2-.1-6.3-.9-3.1-2.2-2.3-4.6-.7-7.5.5-.9,5.1-7.7,5.6-7.8h0Z"/>
  <path class="st0" d="M489.9,228.8c1.3.2,6.4,3.5,4.4,4.9-1.4,1-3.7-2.9-5.6-3.1-1-.1-.5,1.9-1.2,2.4s-1.7.2-1.8-.8c-.6-3.8,6.5-10.6,10.4-7.8.8,2.5-1.3,1.6-2.8,1.9-1.2.3-3,1-3.2,2.4h0Z"/>
  <path class="st0" d="M456.8,211.7c-.3.3-1,.5-1.4.3-2.3-3.6-5.7-3.4-9.5-2.7l-.5-1.2c1.6-2.1,5-1.9,7.3-1.2,1.5.5,5.9,3.2,4.2,4.9h0Z"/>
  <path class="st0" d="M429.5,217.5c-2.7,2.5-5.5-1.6-3.2-4.4,2.7-3.3,5.7,2.1,3.2,4.4Z"/>
  <path class="st0" d="M447.2,215.5c3.4-2.8,5.2,4.6,1.8,5.6-2.9.9-3.9-3.9-1.8-5.6Z"/>
  <path class="st0" d="M448.9,76.9l-9.4.7c-.2.8.1.6.5.8,1.7,1.3,4.4,2.5,2.5,5.1-.4.5-1.1.6-1.5,1.2-1.3,1.9,2.2,7.8,1.9,10.6-.1,1.3-3.7,4.6-4.7,4l-14.3-22.3-12,9.8c-.4,1,1.7,7.3,1.2,9.5-.3,1.4-2.1,3-3.5,2.3-.7-.4-3.9-6.6-4.4-7.8-.4-.3-4.5,2.6-5.6.7-.9-1.3,1.2-3.8.8-4.7-.9-1.2-7.6-4.3-7.4-5.6.6-.9,1.9-2.9,3.1-3.1,1.9-.2,7.5,2.2,8.8,1.5l9.8-12.2-21.3-14.3-.3-.8c.7-1.3,3.4-3.8,5-3.7,2.7.2,6.5,2.3,9.2,2.7,1.2,0,2-3.5,4.2-2.8,1.4.4,3,3.7,3,5.1,1,.7,2,0,2.8,0,.6,0,1.9,1.2,2.8,1.6,1.7.7,3.5,1.2,5.2,1.6,3.6-2.7,6.5-6.5,10.5-8.8,4.3-2.4,11.1-4.4,10.4,3.1-.6,6-7.1,11.1-10.8,15.3l1.4,5.9c2.6-.7,5.1-2.1,8-1.8-.9-1.1-7-4.1-5.8-5.8,5.2-2.2,11.6.4,13,6.1,2.7-2.8,6.6-4,10.4-2.6.9.3,4.9,2.6,4.3,3.7s-6.5,1.5-8,1.8c-.6.1-.6-.2-.5.7,4.7.9,7.5,6.5,6.5,11-.7,3.1-3.2-.8-4.5-1.9-2.2-1.9-4.7-3.7-7.1-5.4,1.3,9.9-.8,20-4.8,29.1,1.1.8,6.2,4.5,6.1,5.5l-.9.8h-74.2c0,0-1.2-.8-1.2-.8,1.6-3.3,5-5,7.9-7-2.2-7-4.4-14.2-4.8-21.7-.2-3.3.3-6.7.4-10l-12.3,9.3c-2.9-5.5,1.3-12.5,7.3-13.8l-10.1-2.9c1.8-4.2,8-5.4,12-4,2,.7,3,2.3,4.7,3.1,1.8-6.5,10-9.6,15.6-6,0,.7-6,4.5-7,5.3-.4.3-.8.4-.6,1,5.3-1.4,11.3,3,11.8,8.3-.6.9-5-.8-6.3-1-3.4-.6-6.8-.9-10.2-1.2-1.5,1.2,1,14.3,1.6,16.7.5,1.9,4.6,13.5,6.1,13.7,11.7-3.6,25.6-4.4,37.5-1.9,3.5.7,6.8,2.2,10.3,2.8,1.8-3.3,3.4-6.8,4.6-10.3.7-2.1,2.5-8.3,2.5-10.2v-6.3h0ZM443.7,48.3c-1.7-1.7-7.9,2-9.5,3.2-7.8,5.7-25.2,24.4-30,32.8-.4.6-2.7,5.1-2.5,5.3,7.5-3.2,14.2-8.6,20.3-13.9,5.2-4.6,17.4-15.3,20.5-20.9.7-1.3,2.5-5.2,1.2-6.4h0ZM423.5,58.4l-25.3-7.5c-1.1-.1-1.9.8-2.6,1.6l20.2,13.9c.3,0,.5-.1.7-.3.8-.5,6.1-5.9,6.7-6.7.2-.3.5-.4.4-.9h0ZM411.9,53c.2-1-.6-1.5-1.3-2.2-1.8,1.4-.4,1.9,1.3,2.2ZM394.1,60.6c-5.3-.6-9.5,3-9.8,8.3,1.5-1.2,4.6-2.2,3.7-4.5l.4-.6c2-.7,4.2-1.7,5.6-3.2h0ZM382.1,69.3c.4-.4-2.3-3-2.7-3.3-2.9-2.1-6.7-2.4-9.6-.2,1.1,1,2.9-.8,3.8-.5.6.2.5,2.3,2.5,2.1.5,0,1.1-.8,1.8-.6,1.3,1.7,1.6,2.6,4.2,2.5h0ZM450.3,73.6c-.4-4.4-3.6-7.4-8-7.6-.2,1,.2.6.7.9.8.5,1.5,1,2.2,1.4.5.3,1.4.2,1.6.6.3.5,0,1.6.5,2.4.4.7,2.3,1.6,2.9,2.3h0ZM399.9,72.5c-2.5-5-9.2-5.7-13.4-2.3-.4.8,2.7.6,3,.6.5-.1.2-1.2,1.5-1.1,1.1.1,1.1,2.1,3.6,1.9.8,0,.6-.9,1.1-1.1,1.6-.6,2.5,2.3,4.1,2.1h0ZM433.6,68.2c-.5-.2-.6.1-.9.4-2.4,1.7-4.5,4.8-7.1,6.3l-.3.7,12.5,20.2,1.4.7,1.5-1.8s-7.1-26.5-7.1-26.4ZM462.6,71.4c.1-.7-.3-.9-.9-1.1-2.9-1.2-8,.3-9.3,3.3,3,.8,2.5-1.1,3.2-1.7s1.8.4,2.7.2c1.1-.3,1.7-2.6,4.2-.7h0ZM381.4,71.4c-5.7-.8-11.5,2.9-11.2,9.1,1.5-.4.8-2.9,1.8-3.5,2.9.4,4.2-.8,4.7-3.6,2.1.1,2.6.2,4.3-1.1.3-.2.7,0,.5-.8ZM448.5,75.1c-2.5-3.1-8.4-2.9-10.9.2.8.5,1.5-1,2.3-.8.4,0,.7.8,1.2,1,2.2.7,2.6-1.4,3.5-1.4s2.3,1.9,3.8,1.1h0ZM391.6,103.7c-3.3-6.9-6.2-13.9-7.2-21.6-.3-2.6-.3-4.9-.4-7.6,0-.4.3-1.3-.4-1.3-1,9-.3,17.9,2.3,26.6,1.2,4.1.8,6.2,5.7,3.9h0ZM462.6,83.4c-.2-4.6-4.6-8-9.1-7.6.2,2.3,3.2,1.2,3.6,1.6.4.3.2,2.7,1.8,3.3.6.2,1.3-.5,2,.1.9.8.2,2.8,1.6,2.6h0ZM450.7,78.7v5.6c0,2.1-2.5,9.9-3.4,12.2-1,2.8-2.5,5.4-3.9,8.1.5.5,2.2,1.9,2.9,1.5,3.7-7.4,5.2-16.1,5.1-24.3l-.7-3.1h0ZM403.2,81.6c-1.9-.3-4.5-1.4-6.4-1.4-1.4,0-1.5.7-.5,1.6.5.4,4.9,3.2,5.2,3.1l1.6-3.3h0ZM440.9,81.3c0,0-2-1.3-2.1-1.1l.7,2.9c.8.2,1.8-1.1,1.4-1.8h0ZM410.1,96.5c.1,0,.8-.5.9-.7.2-.6-.6-6.2-.9-7-.1-.4-.1-.7-.5-.9l-3,2,3.6,6.7h0ZM450,111.7c-6.7-6.6-19.2-9.7-28.5-10.2-13.1-.7-29.8,1.5-40.1,10.2h68.5Z"/>
  <path class="st0" d="M242.8.1h84.8c5.4.3,9.8,4.6,10.7,9.9v79.4c-.7,5.2-5,9.5-10.3,10h-84.5c-6.2-.6-10.2-5.7-10.7-11.8V11.5c.6-5.6,4.4-10.4,10.1-11.3h0ZM242.5,2.6c-3.8,1.1-6.8,4.1-7.1,8.1v78c.4,4.5,4.4,8.3,8.9,8.5h83.1c4.8-.4,8.5-4.1,8.9-8.9V11.4c-.4-4.5-3.5-8.5-8.2-8.9h-85.5c0,0,0,.1,0,.1Z"/>
  <path class="st0" d="M256.1,24.1c1.9-1.8,11.9-1.7,10.4,3.5,1.2.2,3.1,1,3.9-.2,1.1-1.6,1.6-5.3,3-7.2,1.1-1.6,2.6-1.9,4.5-2.1,4-.3,12-.4,16,0,6.3.6,4.7,6.1,8,9.7,4.9.6,10.7-.5,15.5,0,2.3.3,4.6,2.6,4.9,4.9-.9,12.2,1.2,26.1,0,38.1-.3,3.2-2.9,5.2-6,5.2h-61.3c-3.2-.2-5.6-2.4-6-5.6.9-11.9-1.2-25.7,0-37.3.2-1.7,1.1-3.4,2.5-4.4,1.1-.7,3.3-.9,3.5-1.2.4-.6-.2-2.4,1-3.5h0ZM298.8,27.9c-.8-2.1-1.7-6.9-4-7.5-2.4-.6-13.6-.4-16.5-.2-4,.4-4.5,4.3-5.2,7.6h25.8,0ZM263.4,25.4h-5.4c-.5,0-.8,1.7-.4,2.2.7,1,5.1-.3,6.4,0l-.5-2.2h0ZM320.1,41v-8.2c0-1-1.9-2.9-3.1-2.7-18.1-.2-36.3.2-54.4,0-2.7,0-7.5-1.2-9.9.5-.5.3-1.5,2.1-1.5,2.5v7.8h18.9s0-.6.4-.9c2-2.1,3.7-3.9,6.4-5.3,8.9-4.5,19.3-1.8,25,6.2h18.3ZM303,52.2c0-9.5-7.7-17.2-17.2-17.2s-17.2,7.7-17.2,17.2,7.7,17.2,17.2,17.2,17.2-7.7,17.2-17.2ZM251.2,43.5v27c0,1.1,1.7,3.1,2.9,3.3l62.6.2c1.2.2,3.4-1.7,3.4-2.7v-27.6l-.5-.5h-16.1c.3,2.3,1.5,4.3,1.8,6.8.8,7.9-2.7,15.1-9.5,19-16.8,9.8-35.9-8.2-27.4-25.4h-17Z"/>
  <path class="st0" d="M306.4,38.8v-6c0-.3.9-.8,1.3-.9.9-.2,7.8-.2,8.6,0,1.4.4,1.7,6.8-.3,7.2-.8.2-9.6.1-9.6-.4ZM315.1,34.1h-6.5v2.9h6.5v-2.9Z"/>
  <path class="st0" d="M299.1,52.2c0,7.3-6,13.3-13.3,13.3s-13.3-6-13.3-13.3,6-13.3,13.3-13.3,13.3,6,13.3,13.3ZM296.8,52.2c0-6.1-4.9-11-11-11s-11,4.9-11,11,4.9,11,11,11,11-4.9,11-11Z"/>
  <path class="st0" d="M284.5,43.6c1.2-.1,2.8.3,2.1,1.7-.5,1-1.9.6-2.8.9-1.1.4-3.2,2.1-3.7,3.2-.7,1.5,0,4.7-2.5,3.7-1.5-4.2,2.6-9.1,6.8-9.5h0Z"/>
  <path class="st0" d="M276.2,133.8c0,2.6-2.1,4.7-4.7,4.7s-4.7-2.1-4.7-4.7,2.1-4.7,4.7-4.7,4.7,2.1,4.7,4.7ZM273.8,133.8c0-1.2-1-2.3-2.3-2.3s-2.3,1-2.3,2.3,1,2.3,2.3,2.3,2.3-1,2.3-2.3Z"/>
  <path class="st0" d="M270.4,308.7c7.6-1.2,8.6,10,1.7,10.8-6.8.7-8.2-9.7-1.7-10.8Z"/>
  <g>
    <path class="st0" d="M195.3,91.1c6.7-1,7.3,10.2-.4,9-5-.8-5-8.2.4-9ZM198.3,95.7c0-1.3-1.1-2.3-2.3-2.3s-2.3,1.1-2.3,2.3,1.1,2.3,2.3,2.3,2.3-1.1,2.3-2.3Z"/>
    <path class="st0" d="M199.3,104.6c4.4,4.2-2.4,11.2-6.9,6.4-4.3-4.6,2.8-10.3,6.9-6.4ZM198.3,107.9c0-1.3-1.1-2.4-2.4-2.4s-2.4,1.1-2.4,2.4,1.1,2.4,2.4,2.4,2.4-1.1,2.4-2.4Z"/>
    <path class="st0" d="M191.6,120h8.7c0,0,.8.8.9,1,.1.4-.8,1.2-.9,1.2h-8.7c-.6,0-.9-1.8,0-2.2Z"/>
    <path class="st0" d="M191.6,116.4h8.7c.7,0,.7,2.2,0,2.2h-8.7c-.6,0-.9-1.8,0-2.2Z"/>
    <path class="st0" d="M200.9,123.7v1.8c-.4.6-8,.6-9.1.2-1.1-.4-.6-.9-.7-2h9.8Z"/>
    <path class="st0" d="M191.6,126.9h8.7c.7,0,.7,2.2,0,2.2h-8.7c-.6,0-.9-1.8,0-2.2Z"/>
    <path class="st0" d="M149.3,87.9c8.6-.3,23.2-.7,31.3,1.1,4.1.9,3.9,4.5,4.3,8,.9,8.3,1.1,21.9-.4,30-1,5.3-4.3,4.8-8.9,5.3-12.2,1.3-27,1.4-39.1-.4-3.7-.6-4.4-2.1-4.9-5.6-1.3-9.2-1.3-24.1,0-33.3.4-2.7,1.8-3.6,4.2-4.1,3.7-.8,9.5-.9,13.4-1.1h0ZM149.6,90.1c-3.8.2-9.1.3-12.8,1-1,.2-2.3.2-2.7,1.3-1,7.4-1.4,14.9-1.2,22.4.1,3.3.4,7.6.8,10.9.4,3.5.9,3.6,4.2,4.1,11.6,1.8,28.9,1.6,40.5,0,3.1-.4,3.3-.8,3.8-3.8,1.3-8.2,1.3-22.9,0-31.1-.7-4.2-1.5-3.7-5.6-4.2-8.4-1-18.6-1-27.1-.6h0Z"/>
  </g>
  <path class="st0" d="M344.1,193.5c0,16.6-13.4,30-30,30s-30-13.4-30-30,13.4-30,30-30,30,13.4,30,30ZM341.8,193.5c0-15.3-12.4-27.7-27.7-27.7s-27.7,12.4-27.7,27.7,12.4,27.7,27.7,27.7,27.7-12.4,27.7-27.7h0Z"/>
  <path class="st0" d="M311.4,172c11.2-1.3,22.7,6.8,23.9,18.3.1,1.1.5,2.8-1.2,2.6-1.3-.1-1.1-2.9-1.4-4-2.5-8.7-10.2-15.4-19.5-14.8-1.9.1-7.3,2.5-6-1,.5-.5,3.5-1.1,4.3-1.2h0Z"/>
  <path class="st0" d="M208.4,230c13.6.8,29.3-1.4,42.7,0,4.2.4,5.7,3.1,6,7.1,1.1,14-.9,29.4,0,43.5-.3,3.6-1.7,6.3-5.6,6.7-13.4,1.3-28.8-1-42.4,0-3.4-.2-5.3-2.7-5.6-6-1.3-14.6,1-31.2,0-46.1.3-2.8,2.3-4.6,5-5.2h0ZM208.4,231.4c-2,.5-3.3,1.6-3.5,3.7l.2,47.7c.8,2.6,3.4,3.1,5.8,3.3,12.6-.8,26.4,1,38.8,0,3.5-.3,5.6-1.1,6-4.9-1-14.5,1.3-30.7,0-45-.2-2.7-1.6-4.9-4.5-4.9h-42.7c0,.1,0,0,0,0Z"/>
  <path class="st0" d="M224.4,249.9c-.6-.8-1.8-.9-2.5-1.7-4.6-4.3,2.4-10.5,6.3-4.8.6.9.8,1.9,1.2,2.8.2.4,0,.6.8.5,0-1.6,1.9-4.6,3.4-5.2,3.7-1.5,7.2,2.3,5,5.7l-3.3,2.7h8.9c.1,0,.6.5.9.4v7.1l-1.8.8c-.5,5.2.7,11.6,0,16.7,0,.6-.1,1.1-.7,1.4h-25.1c-.8-.2-.9-.7-1-1.4-.7-5,.5-11.5,0-16.7-3.3-.2-2.3-5.5-1.7-7.7.1-.1.7-.5.8-.5h8.9,0ZM228.7,249.8c.9-.7-1.3-6-2.3-6.9-1.3-1.1-3-1-4.2.2-1.9,4.2,3.3,6.3,6.5,6.7h0ZM234.5,242.3c-2.3.5-3.3,4.8-3.8,6.7l.5.8c1,.3,5.2-1.8,5.9-2.7,2.1-2.4.5-5.5-2.6-4.8ZM215.7,251.3v5.4h10.1v-5.4h-10.1ZM232.4,251.3h-5.1v23.9h5.1v-23.9h0ZM233.9,251.3v5.4h10.1v-5.4h-10.1ZM217.5,257.8v17.4h8.3v-17.4h-8.3ZM242.2,257.8h-8.3v17.4h7.8l.5-.5v-16.9h0Z"/>
  <path class="st0" d="M273,272v-1.1h6c.2,0,.8-2,2.9-1.9,1.4,0,2.3,1.9,2.5,1.9h23.2l.5.5-.5.5h-23.2c-.2,0-.7,1.8-2.5,1.8-2.2,0-2.7-1.8-2.9-1.8h-6,0ZM282.7,272.6c.8-.5.5-2.2-.9-2.5-2.8-.6-1.6,4.1.9,2.5Z"/>
  <path class="st0" d="M308.2,244.4v24h-35.2v-24h35.2ZM307.1,245.5h-33v21.8h33v-21.8h0Z"/>
  <path class="st0" d="M286.5,262.1c-.5-.3-.6-9.1-.4-10.3,0-.6.2-1.1.8-1.5.4-.3.6,0,1,.1,1,.4,9,5.2,9.2,5.8,0,.8-.9,1.1-1.4,1.5-1.5,1-5.8,3.7-7.3,4.3-.6.2-1.1.4-1.8.2h0ZM287.1,252.2v8.3l.7.4,7.2-4.4c.1-.5-.3-.6-.6-.9-1.9-1.4-4.7-2.4-6.6-3.9l-.7.4h0Z"/>
  <path class="st0" d="M172.9,182c2.1.2,2.7,2.2,3.9,3.6,3.3.5,8-.5,11.2,0,.7.1,1.1.6,1.4,1.1l-.2,27.7-1,.8h-35.6s-1.5-2.6-1.5-2.6c.6-7.8-.7-16.6,0-24.3.1-1.1.3-2.4,1.7-2.7,2.2-.4,10.2.6,11.4-.2.4-.2.7-1.5,1.2-2,.6-.7,2.5-1.2,2.4-2-.2-.9-5.5-5.2-4.7-6s1.1.3,1.4.6c1.6,1.6,3.1,3.5,4.6,5.2.9.4,2,.5,2.8-.2.9-.7,4.7-6.3,5.2-6.4s.5.8.3,1.3c-.5,1-4.9,5.3-4.4,5.9h0ZM175.1,185.7c-.5-4-8.8-4-9.4,0h9.4ZM188.5,186.8h-35.9v27.6h35.9v-27.6h0Z"/>
  <path class="st0" d="M186.4,188.5v23.6h-31.9v-23.6h31.9ZM155.5,189.7v21.4h29.8v-21.4h-29.8Z"/>
  <path class="st0" d="M209.3,208.8c-.4-.4-.4-1.3-.5-1.9-.5-5.5-.4-15.6,0-21.1,0-.6,0-1.6.6-2l39.7-.2c1.2.4,1.4,1.8,1.4,2.9.4,5,.5,14.6,0,19.6-.2,2.1-.7,3.4-3.1,3.4-11.5-.8-24.3,1-35.6,0-.7,0-2.1-.3-2.6-.8h0ZM248.5,184.6h-38.1l-.5.5v22.5c0,0,.6.6.7.7h38.2c.6-.5.6-1.5.6-2.2.5-5.6-.4-11.5-.4-17.1,0-1.3,1-4.1-.5-4.5h0Z"/>
  <rect class="st0" x="217.2" y="211.8" width="22.8" height="1.1"/>
  <path class="st0" d="M212.4,186.1h26.6c.6.7.7,1.5.7,2.3.3,3.7.5,13.1,0,16.7-.1,1.1-.8,1.9-2,2-7.6-.8-17,1-24.3,0-1.2-.2-1.8-.8-2-2-.5-3.5-.4-13.4,0-17.1,0-.9,0-1.6,1-1.9h0ZM238.6,187.1h-26.1v18.9h26.1v-18.9Z"/>
  <path class="st0" d="M242.1,186.5c1-.3,5.2-.3,5.7.6.2,1.1.6,4.4-.3,5.1-.7.5-5.6.6-6.2,0-.7-.6-.5-5.4.8-5.7h0ZM246.9,191.5c-.1-.9.3-3.4-.3-3.8l-4.4-.2v4h4.7Z"/>
  <rect class="st0" x="241.1" y="200.5" width="6.5" height="1.1"/>
  <rect class="st0" x="241.5" y="205.2" width="5.8" height="1.1"/>
  <rect class="st0" x="241.1" y="203.1" width="6.5" height=".7"/>
  <path class="st0" d="M405.4,128.7c1.7,2.4,2.6,5.2,2.9,8.1v144.3s1.1,2,1.1,2l11,10.4c8.7-5.4,18.3-9.2,28.1-12.2l-1.6-12.5c-4.6-1-8.6-1.9-12.6-4.4-17.5-10.7-15.1-37.1-12.2-54.5,0-.6-3-3.6-3.6-4.4-7.9-11.1-5.1-27.1,8.1-32.4-.9-19.1,21.4-28.8,35.2-15.7,11.4-6.5,26.4-1.1,31,11.2,8.1-.2,15.7,5.5,18.7,12.9,2.2,5.5,1.3,10.5-.1,16.1,8,7.5,8.3,18.3,3.1,27.6-.8,1.4-2.2,2.8-2.8,4.1-1.9,4.1-2.3,8.2-4.8,12.6-4,6.8-9.3,10.7-16.2,14.2l2.9,22.6c16.3,3,31.6,10.8,41.4,24.4,7.5,10.4,11.2,23.3,13.7,35.8,12.4-1,23.8,3.7,30.6,14.2h19.9c.7,0,.7,2.2,0,2.2h-18.7c2,5.6,3.1,10.5,2.9,16.5-.6,16.5-3,34.1-4.4,50.8-1.2,14.3-1.7,28.8-3.3,43.1,0,.6-.4,3.5-.7,3.7-.9.5-2.1,0-2.2-1.1,1.4-13.3,2.2-26.6,3.2-39.9,1.5-18.4,3.9-37.5,4.7-55.8.7-15-6.9-27.4-22-30.6-18,0-37.4-1.5-55.4-.5-16.8,1-30.2,12.8-33.1,29.3-.6,3.6-1,7.8-1.5,11.5-3.6,28.5-6,57.3-9.5,85.9-.5,2.3-3.1,1.1-2.5-1.1,3.5-26.9,5.8-53.9,9.1-80.8,2-16.3,2.5-30.5,17.5-40.6l7.5-4.3h-6.4c-3.7,0-11,3.3-14.2,5.4-9,6-13.3,14.9-14.9,25.3-4.9,31.6-7.1,63.7-11.7,95.3-.3,1.6-.9,1.8-2.5,1.7v-2.7c5-31.1,6.8-62.8,11.6-93.9,1.8-11.2,5.6-20.3,15.1-27,4-2.8,12.1-6.6,17-6.6h61.1c-2.8-15.6-8.4-31.9-20.5-42.8-25.9-23.3-71.6-18.7-100.1-2.6-17.8,10-28.4,28.2-37.7,45.7-9.1,17.2-16.3,35.4-24.5,53.1-4.3.3-8.6,0-12.9-.2-20.9-1-41.8-3.2-62.7-4-3.5-.1-3.7.4-5.6,3.2-5.3,7.8-7,20-5.8,29.3.2,1.8,1.1,7.4,2.5,8.4,18.9,6,38.5,10.2,58.2,12.8,16.5,2.2,41.1,5,56.3-2.4,22.2-10.7,38-45.9,47.4-67.6.5-1.3,2.3-1.4,2.5,0s-7.2,17.3-8.5,19.9c-8.8,17.6-19.7,35.1-35.4,47.3l-2.4,29.2c-.1,1.2-1.4,1.1-2.2.8-.4-.3-.4-1-.4-1.5,0-4.6,1.1-10.5,1.5-15.2.3-3.9.5-7.9.7-11.8-2.4,1.2-4.8,2.5-7.3,3.4-18.7,6.3-50.8,1.2-70.3-2.4-14.3-2.6-28.8-5.9-42.5-10.7-1.5-2.9-2.1-6.2-2.4-9.5-4.5,1.2-8.1,1.8-12.8,1-.9-.1-3.1-1.1-3.7-.9-.3,0-1.9,1.6-2.7,2-3,1.7-7.4,1.8-10.8,1.9-10.2.4-20.7,0-30.8-.4-7.2-.2-22.9,1.4-23.7-9.3s18.7-22.1,28.5-22.3c2.6-8.8,15.4-12.5,23.5-13.6,13.7-2,26.3,5.2,38.4,10.4,1.9-1.3,2.3-4.4,5.1-4.3,21,1.2,42.1,3,63.1,4,4.4.2,8.9.4,13.4.3l15.5-34.8h-67.8l.7,6.9c9.5,1,22.7-3.3,29.2,5.8,1.3,1.8,4,9,.8,9.4h-137.4c0-.1-1-.6-1-.6-1.1-7.4,4.9-14,12.2-14.6,2.6-.2,17.5.4,18.2,0l1.1-6.8h-52l-.5.5v29c0,.5-1.9,2.2-2.4,2.7-5.8,4.3-18.3,4.4-25.1,2.7-4.2-1-9.9-3.2-9.1-8.5-5.9,1.5-11.7-3.1-13.2-8.7-2.3-8.5,4.4-16.8,13.2-15.2v-2.5h-58.7l-4.2,31.2c-1,1.3-2.1,2-3.6,2.5-6.5,2.6-20.9,2.6-27.4-.2-1.9-.8-3.4-1.7-3.6-4l-4-29.5H2.3c0,0-.8-.8-.9-1-.1-.4.8-1.2.9-1.2h39.7c0-1.2.1-2.6,1.1-3.5l5.1-2.9c-3.3-4.6-6.7-9.3-9.1-14.4-2-4.2-7.1-15.6-2.1-18.9,5.4-3.5,13.1,3.9,16.7,7.4-1.4-9.5-3.7-20-2.9-29.5.6-7.8,6.5-15.6,12.4-6.2,6,9.4,7.3,24.7,8.6,35.8l6.5-10.7c3-3.1,8.3-9.2,12.9-4.9,3.8,3.6.9,13.6-.4,18-2.4,8.2-6.2,16-10.2,23.5v.5c2.9.6,5.5,2.5,5.1,5.8h58.4c-.3-2.9.4-4.3,2.8-5.7,6.3-3.7,22.9-3.4,29.6-.7,3.2,1.3,4.8,2.7,4.2,6.4h52l.9-.6,2.9-22.6h-110.4c-5.6,0-12.5-8.1-12.5-13.6v-165s-.7-3.6-.7-3.6V63.3c.6-5.8,5.1-9.6,10.7-10.3h83.8c4.8-.3,11.4,5.2,11.4,10v59.6h140.7l-1.5-6c1.4-23.8-1.8-49.7,0-73.3.5-6.7,4.2-11.4,11.1-12.1h95c6.2.9,10.3,5.2,10.7,11.4v75.8c-.3,4.9-5.9,10.4-10.7,10.4h-58.6ZM369,33.5c-4.3.6-7.9,3.7-8.6,8.1v76.2c.3,4.6,3.9,8.2,8.5,8.5l96.6-.3c5.2-1.7,6.6-5.3,7-10.4,1.6-23.4-1.2-48.6,0-72.2-.5-6.5-4-9.5-10.3-10h-93.1c0,.1,0,.1,0,.1ZM216.1,146.9V62.2c0-3.4-6.2-7.6-9.6-7.1h-81.6c-5.3.2-9.5,4-10,9.2v83.1c0,3.4,4.4,8.5,7.8,8.5h70.9l-1.5-13c-2.6-.9-4.1-3.9-6.4-5.4h-39.8c-4.1,2.9-9.7,11.4-8.9,0h-6.4c-1.4,0-4.1-2.5-3.8-4.2,1-14.6-1.4-31,0-45.3.3-3.1,1.9-4.2,4.9-4.5,7.1-.7,15.3.6,22.6,0,.6-2.2,2.4-3.6,4.4-4.5-.6-2-6.7-6.1-7.4-7.8-.5-1.2.6-1.9,1.9-1.1,2.1,1.2,6,7,7.8,7.8,1.1.5,3.1-.7,4.5.1l12.9-15.4c1.2-1.2,2.8-.4,2,1.3l-11.6,13.8-.6,1.4c2.1.4,3.7,2.1,4.5,4l.7.4h26.5c3.1.3,4.6,1.8,4.9,4.9,1.3,14.1-1,30.3,0,44.6l-.9,2.7-2.3,2,14.5,9.2h0ZM170,83.4c0-.9-.9-1.5-1.6-1.9-3.5-2.2-9-1.6-11.5,1.9h13.1ZM129,85.9v48.9h58v-48.9h-58,0ZM201,85.9c-3.3-.6-8.3.4-11.8,0v48.4c0,.4,1,.7,1.4.5-.6-7.2,4.3-.5,6.7,0,1.3.2,4.7.5,4.8-1.3l-.3-47c-.1-.2-.7-.6-.9-.6h0ZM405.7,279.2v-143.8c0-1.1-2.7-6.3-3.9-6.6h-32.5c-2.3.9-7.5-3.7-8-3.7h-142.7v17.4h172.8c0,0,.9,1.1.9,1.3v125.3l2.2-.2,10.2,9.8,1.1.5h0ZM224.8,155.9l-31.2-20.3,4.7,37c.5.4,6.8-8.5,7.8-9.1.4-.2.5-.4,1-.3,1,.2,8.7,13.9,10.2,15.6l4.8-2.9v-.8s-9.6-14.4-9.6-14.4c-.4-1.1-.3-1.4.7-1.8,2.9-1.4,8.2-2,11.4-2.9h0ZM139.2,140l3.2-2.4c-2.4-1.5-3.8-.4-3.2,2.4ZM191,137.1c-.4,0-2.5-.4-2.1.5l2.5,2.4-.4-2.9ZM389.8,145.1h-171.1l.3,3.8c2.6,2.1,7.1,4,9.4,6.2.3.3.8.5.8,1.1,0,.8-.6,1-1.3,1.3-3.3,1.5-8.6,1.8-12.2,3.2l4,6,32.4.2c3.2.9,4.6,3,4.9,6.3,1.2,14.4-.9,30.7-.1,45.2-.5,3.4-2.8,5.4-6.2,5.7-13.2-1.1-28.8,1.5-41.7,0-2.4-.3-5.7-2.7-5.7-5.2v-47.5c0,0,.9-1.6,0-1.1l-6.2,7c-.8,12.9,1,27,0,39.8-.4,4.4-2.1,6.7-6.7,7.1-13.3,1.1-28.2-.9-41.7,0-2.7-.5-4.8-2.5-5.3-5.2l.2-48.1c1.1-2.4,2.8-3.8,5.4-4,13.6-1.2,29,.9,42.8,0l3.4,1.5-1.5-10.1h-.5c0,0-61.5.5-61.5.5v140.9h236.1l-2.1-3.8,2.5-5.2c-2.8-.9-5.6-3-8.5-3.3-9.6-.9-21.1,1.1-30.5,0-2.4-.3-4.8-2.8-4.9-5.2v-46.8c.1-.9.8-2.3,1.3-3.1.2-.3,2.9-2.1,1.4-2.2-.6,0-4.3,1.5-5.5,1.7-1.9.4-3.9.5-5.9.5l1.1,3.4c-1.1,14.9,1.4,31.8,0,46.5-.3,3.1-2.7,5-5.6,5.2-13.5,1.2-28.8-.9-42.5,0-2.4,0-5-2.5-5.2-4.9v-47.2c-.5-1.9,3-5.2,4.5-5.2h31.7l-9.3-5.7c-6.4-.7-13.9.6-20.2-.1-2.9-.3-5.4-2.6-5.7-5.6v-46.8c.6-2.9,2.7-4.7,5.6-4.9,5.1-.4,10.8.4,15.9,0,15-16.1,41-15.5,56.3,0,9.9.8,21.5-1.1,31.2,0,3.7.4,5,3.4,5.3,6.7,1.1,14.1-.9,29.6,0,43.9-.3,2.3-.8,4.2-2.8,5.6-.3.2-2.3,1.1-2.5,1.1h-34.3l2.9,5.2,1,.5c9.3.8,19.4-.7,28.6,0,2.1.2,3.8.7,5,2.6,2.2,3.2,0,8.4,1,11.7.4,1.2,3.6,4.7,4.1,6.4l7.8,16.3v-121.8h0ZM116,299.5h13.2l.5-.5v-140.3c0-1.1-3.4-.1-4.2-.1-3.6,0-6.7-1.3-9.6-3.3v144.3ZM350.4,193.5c0-20.1-16.3-36.3-36.3-36.3s-36.3,16.3-36.3,36.3,16.3,36.3,36.3,36.3,36.3-16.3,36.3-36.3ZM207,166.8h-.5c-.4.4-1.1.8-.9,1.4l1.4-.7v-.7h0ZM148.2,168.4c-2.6.8-3.3,2.6-3.5,5.2-1.2,14,.9,29.7,0,43.9,0,2.7,2.1,5.1,4.9,5.3,13.4-.9,28.2,1.2,41.4,0,3.2-.3,4.6-1.7,4.9-4.9-.8-14.2,1-29.5,0-43.5-.2-2.7-.7-5.5-3.8-6h-43.8c0,0,0,0,0,0ZM252.5,168.3h-31.7l4.7,7.7c0,.5-7.1,5.5-7.8,5.6-.3,0-.6.1-.9,0l-8.6-13c-1.7-.2-2.6,1.3-3.1,2.8v46.7c0,2.6,1.9,4.3,4.4,4.5,13.4-.8,27.8,1,41,0,3.1-.2,4.8-1.3,5.2-4.6v-45.7c0-1.3-1.9-3.9-3.1-4.2h0ZM284.6,168.3h-15.4c-1.1,0-3.3,2.5-3.1,3.8,1,14.9-1.4,31.7,0,46.4.2,1.8,2,4.1,3.8,4.1h18.3c-2.8-3.2-5.7-6.4-7.8-10.1-8-14.3-6.2-31.7,4.2-44.2h0ZM340.1,222.6h33.5c.5,0,2.3-1.2,2.7-1.7.8-1,1-2.3,1.1-3.6,1.2-14.2-.9-30.2,0-44.6.2-1.3-2-4.5-3.1-4.5h-31c3.8,4.2,6.1,9.4,8,14.7,1.1.7,10.8-.3,13.2.2s1.7,2.3,2.2,3.2c.3.5,1.6.4,2.2,1.1.8.9.3,2.1.7,2.9.5,1,2.5,1.1,3,3.9.4,2.4.4,10.1.1,12.6-.2,1.9-1.2,3-3.1,3.4h-20.6c-1.9,3-3.6,6.1-5.9,8.7-.4.5-3.6,3.2-3.1,3.6h0ZM365.1,184.6h-13.4l.4,2.2h13.4l-.4-2.2ZM367.1,187.8h-14.7l.4,2.9h15.6c0-1,0-2.7-1.3-2.9h0ZM463.7,190.8l-6.9,4.2c-8.3,3.4-16.8,2.5-24.7-1.4-.7-.4-1.3-1-2-1.3-.3-.2-.3-.6-.7,0-.8,1.2-4.2,12.2-3.8,12.7,1.9-.8,3.6-.9,5.5-.3s3.9,2.3,1.2,3.4c-1.9-1.6-4.9-1.7-6.8-.2-1.2.9-1.8,6.4-2,8.1-2,15.2-2.9,36.9,11.6,46.4,9.2,6,23.4,5.1,32.7-.2.7-.4,2-2.4,3-1,.8,1.2-1.5,4.6-2.3,5.7-2.9,4.2-8.3,8.9-12.8,11.1-.5.3-6.4,1.8-5,3.1,13.3-2.9,27-4.1,40.6-2.5-1.6-7.2-1.6-15-3-22.2-.8-3.9-3.2-7.4-2.9-11.6-.4-1.2-5-1.8-4.2-4,.5-1.6,4.6,1.3,6,1.5,9.6,1.5,16.7-7.5,14.1-16.7-2-7.4-11.4-9.6-16.9-4.5-1.5,1.4-2,3.7-4.1,4.1-4.6-2.8-3.3-9.9-2.9-14.4-9.3-3-14.4-10-13.6-19.9h0ZM349.5,209.2h19.8c.2,0,1.5-.7,1.7-.9.3-.3.3-.7.4-1.1.3-2.3.3-11.2,0-13.4-.1-.7-.9-2-1.6-2h-16.9v3.3c10-.5,7.8,14.2-1.6,10.2l-1.6,4h0ZM352.8,196.2l-1.5,7.7c1.7,1.8,5,1.2,6.2-1,2-3.6-.9-7.3-4.7-6.7h0ZM340.1,230.3l-2.9-5.4-7.3,4.2,2.8,5.2c2.5-1.4,4.5-3.5,7.4-4h0ZM268.2,231.4c-2.2.7-3.3,2.2-3.5,4.4,1,14.5-1.3,30.7,0,45,.3,3.8,2.4,5,6,5.3,2.8.2,6.2,0,9.1,0,9.3.1,21.3.8,30.5,0,3.8-.3,5.3-1.8,5.6-5.6-.9-14,1.1-29.3,0-43.2-.1-1.3-.3-2.9-1.1-4-1.4-1.9-2.6-1.1-4.5-1.3-13.8-1.6-28.1-.3-42-.6h0ZM376.7,242.2v-6.4c0-1.5-1.9-4.5-3.4-4.5h-27c1.5,3,2.6,1.9,5.2,2.2,6.7.7,15,2.6,20.9,6,.7.4,4,3.1,4.3,2.7h0ZM328.7,285.8h28.8c-2.2-3.1-6.6-.7-9.1-3.4-.5-.5-.7-1.6-1.1-1.8-1.1-.7-3.6-.1-5.8-1.8-2.8-2.2-1.8-5.1-2.6-6.2,0-.1-1.8-.7-2.4-1.1-4-2.7-1.8-7-2.7-8.4,0-.1-1-.3-1.4-.6-3.1-2.6-3.9-5.3-2.7-9.2.8-2.8,1.2-3.5,1.7-6.6.1-.8,1-2,.9-2.6,0-.7-1.5-2.6-1.7-4.1,0-1.2.7-2.4.5-3.4,0-.2-2.3-4.3-2.6-4.4-2.1.4-2.9,2.7-3,4.6.8,14.2-1.1,29.5,0,43.5.1,1.9.9,5.1,3.1,5.6h0ZM357.5,255.3l-10.6-19c-2.9-5.7-5.9-4.9-10.6-1.6-3.1,2.2-4.2,4.4-2,7.9,9.7-1.7,14.9,9.6,23.1,12.8ZM362.9,258.1c-4.1,1.2-8.3-1.5-11.5-3.8-2.8-2-9.9-8.9-12.6-9.5-3.8-.8-5.4,1.1-4.7,4.7.7,4.3,9.7,12.5,12.5,16.5,3,4.1,3.7,8.7,7.1,12.8,4.7,5.6,9.9,6.8,16.3,9.8,5.2-7,11.6-12.9,19-17.5-2.2-4.4-4-9-6.2-13.4-3.8-7.8-6.3-13.9-14.7-17.6-5.6-2.5-12.5-4.1-18.6-4l11.2,19.7c.8.8,2.7.3,2.2,2.4h0ZM332.8,252.8c-.9-.1-.6,0-.8.5-1.7,4.5,1.3,9,6.2,7.5l-5.5-8h0ZM336.5,263.3c-.6,4,.6,7.3,5.2,6.9,2.3-.2,4.1-1,2.5-3.2-1.2-1.6-2.8-3.1-4.1-4.6l-3.6.9h0ZM346.6,270.9c-2.6,1.5-7,1-4.4,4.9,1.4,2.1,5.4,2.9,7.2,1.1l-2.9-6ZM391.6,327.8c6.7-12.3,15.1-24.1,26.5-32.5l-24.5-23.7c-.9,0-4.9,2.5-5.9,3.2-7.8,5.2-14.4,12.4-19,20.6l22.8,32.4ZM352.8,281.8c-.4-.7-2-3.3-2.9-2.2-.5.6,2.1,2.6,2.9,2.2ZM66,338.3c0-1.5.5-3,.9-4.4.7-2.3,2.5-6.4,2.7-8.5,1-8.9-3.1-29.3-7.2-37.4-2.2-4.3-5.9-7.9-8.5-1.4s0,23.9,1.3,31.5c1,6.2,2.5,9.7,5.5,15.2l3.1,9c-1.1-13.9-2.2-27.8-4.7-41.5l.2-.9,1.6.3c1.8,9.7,3.1,19.5,4,29.3.2,2.6,0,5.8.4,8.3,0,.5.2,1.1.7.5h0ZM70.7,354.6c1.2,1.2,7.2-7.9,7.8-8.7,4.6-7.5,13.4-27.5,12.5-36-.8-7.5-7.3-2.5-10.1.7-9.7,11-14.7,30-14.9,44.4l2.2-.2c2.3-9.4,4.9-18.8,9-27.6.8-1.7,3.7-8,4.8-9,.4-.4.6-.7,1.3-.5.3.2.6.5.6.9,0,.6-4.2,8.3-4.8,9.7-3.8,8.4-6.6,17.3-8.3,26.4h0ZM278.4,314c0-3.9-3.1-7-7-7s-7,3.1-7,7,3.1,7,7,7,7-3.1,7-7ZM63.4,355c-.8-12.1-5.3-28.1-14.9-36.1-2.9-2.5-11.6-7.9-11.6-.4s13.2,30,20.9,35.4c.6.4,1.2.8,2,.7-3.1-8.6-6.7-17-11.9-24.5-.7-1-4.7-5.8-4.8-6.1,0-.5.8-1.4,1.4-1.1,1.1.5,3.8,4.3,4.7,5.5,5.6,7.8,9.7,17.2,12.7,26.4l1.5.2h0ZM307.8,362.3l-4.3-32.1h-64.6l-4.3,32.1h73.2ZM390.1,330h-84.1l2.9,23.2h68.4s1.2-.6,1.2-.6l11.6-22.6h0ZM156.9,347.1c-2.1.2-10.2,1.5-10.8,3.8-.1.6.4,1.4.9,1.5.2,0,3.4-1.6,4.5-2,6-1.8,15.5-1.9,21.5,0,1,.3,4.2,2.1,4.5,2.1,1.3,0,1.2-1.9.2-2.7-3.5-2.9-16.2-3-20.7-2.6h0ZM178.4,354.6c-10.2,4.3-22.1,4.2-32.3,0v29.2c0,2.1,5.9,4,7.6,4.4,7.4,1.7,19,1.7,24.7-4v-29.5h0ZM83,355c-12,4.3-26.1,4.5-38.1,0l4.4,31c4.4,3.7,26.4,3.7,29.4,0l4.3-31h0ZM143.9,360.1c-3.2-.1-5.2-.2-7.8,1.8-7.9,6.3-2.2,19.6,7.6,17.8l.2-2.2c-11.6,1.3-11.8-16.9,0-14.9v-2.5h0ZM143.9,364.8c-8.9-1.4-8.7,11.4,0,10.5v-10.5ZM278.8,392c-11.2-4.2-22.5-11.2-35-10.1-2.7.2-6.5,1.3-9.2,2.1-4.6,1.4-10.7,3.4-12.8,8.1,4.8-1.7,9.9-4.2,15.1-4.7,1.6-.1,3.7-.4,2.9,1.8-5.6,1.4-11.2,2.3-16.4,5-2.4,1.2-8.5,5.3-9.1,7.9-.3,1.6,0,3.9,2.1,3.2.9-.3,4.3-3,5.7-3.8,3.4-1.9,7.4-3.6,11.3-4.7,1-.3,7.6-2.3,6.1.6-.4.7-8.7,2.8-10.4,3.4-3.4,1.3-12.3,5.7-13.2,9.3-.4,1.5.5,2.6,1.9,3,5.7,1.5,14.9-6.9,20.8-6.3,3.6.3,11.7,7.8,15.5,9.9,3.8,2.2,7.6,3.6,12.1,3.5,1.5,0,5.5-.7,6.8-1.2.5-.2.5-.4.6-.8.4-2.3-.2-6.1,0-8.7.4-6.1,2.5-12.1,5.1-17.6h0ZM215.4,396.3l-5.1,1.6-.7,6.3c-5.4,2-21.9,5.6-16.2,14.3,2.1,3.2,8.8,4,12.4,4.2,13.8.8,28.3-.6,42.1,0,2.7-.3,5.1-.8,7.4-2.2-4-2.6-7.7-5.8-11.7-8.4-4.4-3-4.5-3.6-9.8-1.6s-14.4,8.6-19.1,3.4c-3-3.3,0-5.2-.4-6.5-.1-.4-1.1-.8-1.6-1.3-1.2-1.5-1.2-3.8-.5-5.5l3.2-4.3h0ZM196.5,406.5l10.5-4.2c.7-.7.2-2.5.4-3.5-3.9,2-8,4.2-10.9,7.6h0Z"/>
  <path class="st0" d="M148.6,230h42.7c4.9.7,5.7,3.6,6,8,.8,12,.2,26.8-.4,38.8-.2,4.7,1,9.8-5.6,10.4-13.4,1.2-28.5-.9-42.1,0-2.5,0-4.5-1.8-5.4-4l-.2-48.4c.3-2.5,2.6-4.4,5-4.8h0ZM148.2,231.4c-2.6.8-3.3,2.6-3.5,5.2-1.2,14,.9,29.7,0,43.9.3,3.9,2.2,5.3,6,5.6,12.6,1.1,26.8-.9,39.6,0,3.4-.3,5.3-1.7,5.6-5.3-1-14.4,1.3-30.4,0-44.6-.2-2.7-1.4-4.4-4.2-4.9h-43.4c0,0,0,.1,0,.1Z"/>
  <path class="st0" d="M157.2,240.5h25.1c0,.1.8.8.8.8v35.2c-.6.5-1.3.5-2,.5-7.5.6-16-.5-23.6,0l-1.3-.5v-35.4c-.1,0,1-.6,1-.6h0ZM182.4,241.5h-25.4v6.2h25.4v-6.2ZM182.4,248.8h-25.4v27.2h25.4v-27.2Z"/>
  <path class="st0" d="M179.1,260.9c0,5.2-4.2,9.4-9.4,9.4s-9.4-4.2-9.4-9.4,4.2-9.4,9.4-9.4,9.4,4.2,9.4,9.4ZM178,260.9c0-4.6-3.7-8.3-8.3-8.3s-8.3,3.7-8.3,8.3,3.7,8.3,8.3,8.3,8.3-3.7,8.3-8.3Z"/>
  <path class="st0" d="M164.6,246.6h-6c-1.1-1-.5-2.7-.2-4h5.6c1,1,.4,2.7.5,4ZM163.5,243.7c-5.9-.7-5.9,2.5,0,1.8v-1.8Z"/>
  <path class="st0" d="M176.2,244.5c0,.9-.7,1.6-1.6,1.6s-1.6-.7-1.6-1.6.7-1.6,1.6-1.6,1.6.7,1.6,1.6ZM175.5,245.1c.2-1.9-1.6-1.9-1.4,0h1.4Z"/>
  <path class="st0" d="M166.8,242.6v4.2c-2.6.7-.8-2.7-1.1-4.2h1.1Z"/>
  <path class="st0" d="M179.9,244.5c0,.7-.6,1.4-1.4,1.4s-1.4-.6-1.4-1.4.6-1.4,1.4-1.4,1.4.6,1.4,1.4ZM179.1,244.1h-1.1v.7h1.1v-.7Z"/>
  <path class="st0" d="M175.2,260.1c-1.4,2,1.4,1.7,0,4.6-2.8,5.5-13.3,3.5-12.1-5.2,1-7.3,12.4-6.5,13-.7.1,1.2-.6.9-.9,1.3h0ZM168.5,255.4c-8.1,1.5-3.5,15.5,4.4,10.2,2.9-1.9.5-2.8.7-4.7.2-1.7,2.1-1.6.2-3.9-1.3-1.6-3.4-2.1-5.4-1.7Z"/>
  <path class="st0" d="M552.1,222.6c.2-.3.1-1.1.7-1.4l.9.5c.4.3.2.5,0,.8-.5,1.3-7.3,6.1-8.8,6.5-.7.2-.7.2-1.1-.4,0-.5.4-.8.8-1.1,1.6-1.3,6.3-3.6,7.5-5h0Z"/>
  <path class="st0" d="M564.7,145.1c1.4-.3,4.5,7.4,4.7,8.7.2,1.2-.9,1.6-1.6.5-.4-.7-.7-2.3-1.1-3.3-.6-1.3-2.1-3.4-2.5-4.4-.2-.5-.2-1.4.4-1.5h0Z"/>
  <path class="st0" d="M566.7,194c.5.5-.9,8.9-1.5,9.9-.6,1.1-1.8.8-1.6-.5.5-3,2-6.2,1.7-9.4h1.5Z"/>
  <path class="st0" d="M571.1,164.3c.3,3.7-.7,7.3-2.4,10.5l-1.2-.9c1.3-3.1,2.5-6.2,2.2-9.6h1.5Z"/>
  <path class="st0" d="M551.9,184.2l-.2,1.1c-2.3.9-5.8-.5-7.8-2-1.2-.9-2.7-2-.9-3,2.2,2.6,5.5,4.1,8.9,4h0Z"/>
  <path class="st0" d="M547.1,166.8l.2-1.1.4-.3c3.4-.3,7.9-.2,9.9,3-.3,1.3-3.1-.7-3.7-1-2.3-.8-4.4-.7-6.8-.7h0Z"/>
  <path class="st0" d="M543.3,167.6l.8.8c-.7,1.4-2,2.4-2.5,4-.6,1.9.2,3.7-.9,5.3-2.3-2.9-.4-8.2,2.5-10.1h0Z"/>
  <path class="st0" d="M563.1,142.5c-.8.1-1.1-.2-1.6-.7-.5-.5-2.9-3.7-3.3-4.4-.3-.5-.7-.7-.5-1.5,1-.1,1.3,0,2,.7s4.1,5.1,3.4,5.8h0Z"/>
  <path class="st0" d="M561.2,171.2c.2.7,2.9,4.3,1.3,4.7-.6.1-.8-.5-1-.8-.8-1.2-2.9-4.3-.3-3.8Z"/>
  <path class="st0" d="M569.6,162.1c0-1.5-1.3-3.7.2-4.7.6,0,1.8,3.9.9,4.5l-1.1.2h0Z"/>
  <path class="st0" d="M566.9,174.8c1.8-.5,1.2,1.8.4,1.8-.4,0-1.4-1.5-.4-1.8Z"/>
  <path class="st0" d="M550,126.6l-4.7-8.1-26.8-18.7,31.5,14.7c1.2,1.4-.4,9.9,0,12.2h0Z"/>
  <path class="st0" d="M551.5,131.2c-.5.2-.8.3-1.3.1-1.4-.6-4.9-3.7-6.5-4.8-1-.7-2-1.5-3.2-1.9-1.1,0-8.7,7.9-10.4,9.2-.8.6-1.4,1.3-2.4.5l-22.2-42.7,61.8,11.6v1.1l-14.5,10.2-1.3,16.6h0ZM563.8,104.4l-49.7-9.4,7.5,3.9,29.5,14c4.4-2.3,8.8-5.3,12.7-8.5h0ZM509.8,96.5l19,35.9,14-13.2-33-22.7h0ZM547.5,126.9l-3.1-6.2c-.5.9-2.9,1.8-2.3,2.8l5.4,3.3h0Z"/>
  <path class="st0" d="M565.6,190.4l-1.5-9.4c-.3-.3-3.9,2.3-4.7,2.7-.6.3-3.8,1.8-4,.7-.2-1,5.3-3,6.5-4s1.2-2.2,2.5-2.6l1.1.8c-1.2,1.5,0,1.7.4,3,.5,1.8,1.2,5.7,1.2,7.5,0,.4,0,.8-.4,1.1l-1.1.2h0Z"/>
  <path class="st0" d="M563.5,207.4c.3,1.8-1.3,3.1-2,4.4-1.1,2.2-2,4.5-3.7,6.5-1.3.9-1.6,3.5-3,1.2v-.5c2-2.2,4.2-4.8,5.6-7.3.8-1.5,1-4.9,3.1-4.3h0Z"/>
  <g>
    <path class="st0" d="M71.4,121.7c-.2.5-1.4.8-1.8.5-.5-.4-.9-9.8.5-10.1.4-.1,1.3.8,1.3.9v8.7Z"/>
    <path class="st0" d="M71.4,143.1c-.2.5-1.4.8-1.8.5-.6-.4-.6-8.8,0-9.6.5-.5,1.5-.2,1.8.3v8.7h0Z"/>
    <path class="st0" d="M55.6,126.9h8.3c0,0,.8.8.9,1,.1.4-.8,1.2-.9,1.2h-8.3c0,0-.8-.8-.9-1,0,0,.9-1.2.9-1.2Z"/>
    <path class="st0" d="M85.4,126.9l.4.4c1.8,2.8-8,1.8-9.4,1.5-.5-.4-.2-1.5.3-1.8h8.7Z"/>
    <path class="st0" d="M81.5,116.4c0,0,.4,1,.3,1.2,0,.4-5.4,5.8-5.9,6.1-1.5.9-2.4-.1-1.7-1.3.2-.4,5.3-5.4,5.6-5.6.4-.2,1.2-.6,1.6-.3h0Z"/>
    <path class="st0" d="M74.9,132c.6-.2.9,0,1.4.3.3.2,5.1,4.9,5.3,5.3.8,1.4-.2,2.1-1.5,1.5-.5-.2-5.8-5.7-5.8-6.2s.2-.8.6-.9h0Z"/>
    <path class="st0" d="M66.3,132s.3.9.2,1.1c-.1.5-5.2,5.7-5.6,5.9-1,.4-2.1.1-1.8-1,.1-.4,5.1-5.4,5.6-5.7.4-.2,1.3-.6,1.6-.3Z"/>
    <path class="st0" d="M59.6,116.4c.6-.2.9.2,1.3.5.7.5,5.6,5.5,5.7,5.9.3,1.3-.8,1.4-1.8.7-.8-.6-4.4-3.9-5.1-4.7-.5-.6-1.2-2.1-.2-2.4h0Z"/>
  </g>
</svg>