<?xml version="1.0" encoding="UTF-8"?>
<svg id="Layer_1" data-name="Layer 1" xmlns="http://www.w3.org/2000/svg" viewBox="0 0 601.45 468.81">
  <defs>
    <style>
      .cls-1 {
        fill: #002356;
      }
    </style>
  </defs>
  <path class="cls-1" d="M588.04,265.39c-3.2,1.36-6.6,2.35-8.38,5.57-.48.87-1.96,6.89-3.48,3.97-1.35-2.61-1.05-5.09-4.09-7.13-1.1-.74-5.42-1.77-5.42-2.92,0-1.31,3.37-1.88,4.45-2.45,1.35-.72,2.98-2.19,3.68-3.56.47-.93,1.86-7.51,3.5-4.15,1.98,4.04,1.19,5.84,6,8.12,1.47.7,3.96.55,3.73,2.57ZM584.07,264.33c-3.47-.81-5.47-3.32-6.7-6.52-1.24,1.76-2.65,4.44-4.54,5.59-.99.61-2.57.36-2.52,1.64,2.94.79,5.97,3.5,6.52,6.52h1.08c-.12-1.9,1.45-3.81,2.92-4.87.55-.39,3.83-1.56,3.23-2.37Z"/>
  <path class="cls-1" d="M85.34,221.86c-1.14,1.13-4.59,1.06-6.79,3.52s-1.66,4.25-2.81,6.24c-1.48,2.57-2.42-2.9-3.14-4.25-2.27-4.24-4.63-3.41-7.69-5.34-2.3-1.45,1.8-2.2,3.04-2.91,2.2-1.25,4.09-2.64,5.09-5.05.37-.88,1.19-6.42,2.66-3.19.87,1.92,1,4.18,2.67,6.02,1.99,2.19,5.4,2.22,7.35,4.14-.09.27-.17.62-.37.82ZM75.3,214.35l-.74.23c-1.23,3.09-3.32,5.34-6.49,6.48l3.98,2.53,2.54,4.16.74-.22c.84-2.62,3.32-5.66,6.13-5.93v-1.08c-2.96-.13-5.75-3.29-6.16-6.16Z"/>
  <path class="cls-1" d="M169.41,40.55c0,2.78-2.26,5.04-5.04,5.04s-5.04-2.26-5.04-5.04,2.26-5.04,5.04-5.04,5.04,2.26,5.04,5.04ZM167.63,40.54c0-1.81-1.47-3.28-3.28-3.28s-3.28,1.47-3.28,3.28,1.47,3.28,3.28,3.28,3.28-1.47,3.28-3.28Z"/>
  <path class="cls-1" d="M536.23,251.12c0,2.77-2.25,5.02-5.02,5.02s-5.02-2.25-5.02-5.02,2.25-5.02,5.02-5.02,5.02,2.25,5.02,5.02ZM534.45,251.14c0-1.81-1.47-3.28-3.28-3.28s-3.28,1.47-3.28,3.28,1.47,3.28,3.28,3.28,3.28-1.47,3.28-3.28Z"/>
  <path class="cls-1" d="M31.91,169.13c0,2.79-2.26,5.05-5.05,5.05s-5.05-2.26-5.05-5.05,2.26-5.05,5.05-5.05,5.05,2.26,5.05,5.05ZM30.18,169.12c0-1.85-1.5-3.35-3.35-3.35s-3.35,1.5-3.35,3.35,1.5,3.35,3.35,3.35,3.35-1.5,3.35-3.35Z"/>
  <g>
    <path class="cls-1" d="M251.49,19.9c1.06-.27,6.79,5.3,6.99,6.03.35,1.3-.76,1.44-1.77.68s-5.1-4.64-5.6-5.63c-.26-.5-.05-.97.38-1.08Z"/>
    <path class="cls-1" d="M246.22,21.89c.12-.44,1.14-.75,1.44-.54.66.44.29,7.85.32,9.18l-1.76.59v-9.23Z"/>
    <path class="cls-1" d="M236.09,4.34c1.03-.78,4.69,3.31,5.41,4.16.43.51.87,1.09,1.27,1.62.88,1.16.25,1.81-.9,1.26-.23-.11-3.42-3.01-3.82-3.42-.61-.63-2.82-2.98-1.97-3.63Z"/>
    <path class="cls-1" d="M246.22.34l.91-.34c.14,0,.9,1.11.9,1.25v7.97c0,.68-1.81.68-1.81,0V.34Z"/>
    <path class="cls-1" d="M256.97,4.39c.76-.22,1.51-.05,1.56.84-1.97,1.59-3.83,4.35-5.77,5.82-.41.31-.66.67-1.28.53-.47-.42-.66-.43-.37-1.09.32-.73,5.32-5.94,5.87-6.1Z"/>
    <path class="cls-1" d="M241.76,19.96c.52-.15,1.54-.02,1.55.48.01.44-5.22,5.9-5.96,6.35-1.14.69-1.85-.22-1.07-1.43.37-.57,5.11-5.29,5.48-5.4Z"/>
    <path class="cls-1" d="M232.28,16.64c-.87-.26-.73-1.81.36-1.81h7.97c.68,0,.68,1.81,0,1.81h-8.33Z"/>
    <path class="cls-1" d="M253.65,14.83h7.97c.11,0,.67.73.9.91-.23.17-.79.91-.9.91h-7.97c-.55,0-.84-1.49,0-1.81Z"/>
  </g>
  <g>
    <path class="cls-1" d="M572.73,161.54l1.12.85c.04.45-5.52,6.28-6.08,6.53-.74.34-1.8-.33-1.8-.74,0-.48,5.92-6.58,6.76-6.64Z"/>
    <path class="cls-1" d="M566.88,177.05c.82-.17,6.61,5.57,6.7,6.35.07.61-.08.9-.56,1.26-.9.18-6.36-5.39-6.62-6.41-.12-.49.06-1.11.48-1.19Z"/>
    <path class="cls-1" d="M551.12,184.3c-.1-.67,0-1.07.34-1.65.38-.64,5.52-5.47,6.06-5.54l1.19.86c-.82,1.08-6.35,7.57-7.6,6.33Z"/>
    <path class="cls-1" d="M563.07,188.1c-.12.44-1.14.75-1.44.54-.43-.29-.58-8.2-.29-9.16.13-.43.52-.69.83-.98l.9.54v9.05Z"/>
    <path class="cls-1" d="M547.68,174.16c-1.48-.25-.85-1.81-.36-1.81h8.69c.68,0,.68,1.81,0,1.81-2.34,0-6.24.35-8.33,0Z"/>
    <path class="cls-1" d="M568.68,172.35h8.69l.54.9c-.22.17-.79.91-.9.91h-8.33c-.55,0-.84-1.49,0-1.81Z"/>
    <path class="cls-1" d="M558.36,169.09c-.67.1-1.07,0-1.65-.34-.32-.19-5.05-4.92-5.25-5.25-.34-.55-.65-.96.02-1.47.45-.45.87-.09,1.29.17.34.21,5.06,4.93,5.25,5.25.34.58.44.97.34,1.65Z"/>
    <path class="cls-1" d="M563.07,167.28c-.04.06-1.33.55-1.4-.23.46-1.92-1.26-8.76.3-9.74l1.1.37v9.6Z"/>
  </g>
  <g>
    <path class="cls-1" d="M65.05,121.71c.53-.15,1.46-.04,1.56.49.21,1.1-3.2,3.58-4,4.32-.56.52-.82,1.36-1.44,1.82-1.18.86-2.7.63-1.98-.89.17-.37,5.47-5.62,5.86-5.73Z"/>
    <path class="cls-1" d="M75.13,121.65c.41-.09,5.95,4.93,6.35,5.59.8,1.34-.15,2.08-1.46,1.47-.3-.14-4.37-4.22-4.71-4.71-.39-.55-1.31-2.11-.18-2.35Z"/>
    <path class="cls-1" d="M80.63,106.15c.49-.12,1.11.06,1.19.48.16.83-6.1,7.24-7.06,7.05-.61-.47-.71-.72-.37-1.45.23-.49,5.7-5.95,6.23-6.09Z"/>
    <path class="cls-1" d="M59.56,106.08c.6-.16.88.23,1.28.53.65.49,5.61,5.48,5.72,5.87.35,1.3-.76,1.44-1.77.68-.65-.49-5.61-5.48-5.72-5.87-.13-.49.07-1.09.49-1.21Z"/>
    <path class="cls-1" d="M55.57,116.58h8.33c.51,0,1.61,1.64-.18,2.03-.56.12-.78-.22-.91-.22h-7.24c-.55,0-.84-1.49,0-1.81Z"/>
    <path class="cls-1" d="M76.57,118.39c-.44-.12-.75-1.14-.54-1.44.32-.48,6.71-.46,7.8-.38,1.15.08,2.93.34,1.61,1.66-.61.62-.95.17-1.27.17-1.66,0-6.42.33-7.6,0Z"/>
    <path class="cls-1" d="M69.51,123.46l1.39.05c.57.34.93,9.4-.49,9.72l-.9-.54v-9.23Z"/>
    <path class="cls-1" d="M70.96,108.43c.02.66,1.04,4.16-.9,3.44-.11-.04-.55-.5-.55-.54v-9.05l.55-.54.9.54c.04,2.05-.06,4.11,0,6.16Z"/>
  </g>
  <path class="cls-1" d="M179.1,419.44c3.55,3.33,3.54,10.67,2.99,15.22-.48,3.97-3.3,6.59-6.84,8.01,3.01,2.48,7.15,4.1,10.11,6.55,4.82,4-4.03,3.99-6.49,5.22-.53.7,6.16,8.85,6.16,9.96s-5.52,4.98-6.88,4.35c-1.28-.6-5.05-7.99-6.17-9.6-.55-.14-.58.09-.88.38-1.07,1.07-4.02,6.08-5.38,5.73l-1.15-1.05c-1.12-6.15-1.48-12.43-2.41-18.6-.11-.72-.25-2.49-.91-2.71l-105.32-.05c-8.82-1.28-9.17-9.56-8.51-16.83.42-4.66,3.58-8.08,8.18-8.84l117.66-.05c2.12.21,4.26.84,5.83,2.31ZM54.84,440.31h106.1c.37-.27.39-.32.39-.74,0-1.33-.44-3.02-.23-4.46.71-.86,1.86-.22,2.67.19,4.16,2.09,7.03,6.77,12.2,4.46,1.71-.76,3.4-3.22,3.63-5.06.24-1.97.23-7.79-.1-9.7-.43-2.52-2.71-4.83-5.25-5.25-40,.09-80.14-.61-120.06.35-1.75.75-3.4,2.12-3.96,4.01-.51,1.72-.55,10.03-.04,11.79.48,1.65,3.03,4.08,4.64,4.41ZM167.27,460.95c.84-1.14,2.79-4.32,3.79-5.09.33-.26.59-.45,1.04-.3,1.86.9,6.17,10.69,7.51,10.32l2.13-1.54-6.48-10.77c.23-1.35,5.12-1.93,6.32-2.4.42-.16,1.05-.29.91-.9l-18.83-11.77,2.9,22.22.72.22Z"/>
  <path class="cls-1" d="M62.99,432.89c-.09.3-.7.66-1.08.54v-3.62c-1.43-.28-1.34,2.71-2.36,2.54-1,.34-1.6-3.47-2.35-2.54.62,3.31-1.49,5.79-1.47.89,0-.97.09-2,.12-2.98.1-3.25,3.02,1.63,3.16,2.82.85.63,2.2-3.09,2.62-3.52.33-.33,1.36-.53,1.36.08v5.79Z"/>
  <path class="cls-1" d="M147.36,427.09l.74-.37c1.44.19,1.52,4.31,3.07,3.82.17-.05,1.2-2.56,1.63-3.08.34-.42,1.45-1.39,1.45-.36v5.79l-.72.37-.36-3.44c-.69-.85-1.58,2.89-2.35,2.89l-2.17-2.89-.55,3.45-.72-.37v-5.79Z"/>
  <path class="cls-1" d="M112.96,427.09c2.91-1.87,7.71,1.04,4.07,3.98-.05.6,2.1,2.08.82,2.36s-1.51-1.97-2.89-2.18c-1.09-.17-.09,1.79-1.1,2.18l-.9-.54v-5.79ZM114.41,430.17c1.53.12,3.1.17,2.38-1.84l-2.38-.34v2.18Z"/>
  <path class="cls-1" d="M162.21,427.82c0-.31-.3-.75,0-1.27,1.53-.47,3.32,3.95,3.8,3.97,1.17-.79,0-3.15.91-3.8l.72.37v5.79l-.9.54-3.44-3.98-.07,3.38-1.02.61c0-1.87,0-3.74,0-5.61Z"/>
  <path class="cls-1" d="M120.93,428l.35,1.27,2.9.71c-.49,1.03-3.03.31-3.25.54l.16,1.47,3.46.34c.95,1.34-4.42,1.45-4.91.74l.16-6.02c3.28-1.93,7.37,1.22,1.13.93Z"/>
  <path class="cls-1" d="M128.17,427.09l.6-.48c2.39-.41,6.03.45,4.64,3.55-.74,1.66-2.77.75-3.46,1.25-.54.39-.23,3.15-1.78,1.47v-5.79ZM132.1,428.05l-2.48-.05.04,2.14c1.01.49,2.28.09,2.79-.92l-.35-1.17Z"/>
  <path class="cls-1" d="M71.68,427.09c.09-.3.7-.66,1.08-.54.58.43-.27,2.94.55,2.89.48-.03,2.9-3.85,3.62-2.53.26.48-2.1,2.19-1.95,3.02l2.49,2.95c-1.55,1.82-2.66-2.22-3.79-1.99l-.72,2.18-1.28-.19v-5.79Z"/>
  <path class="cls-1" d="M157.14,428l.35,1.27,2.9.71-2.9.71c-1.32,2.66,2.92,1.27,3.28,1.65v1.08s-4.55-.34-4.55-.34v-6.2c3.97-1.53,7.41,1.47.93,1.11Z"/>
  <path class="cls-1" d="M68.33,427.01c.28.34,2.5,6.18,2.26,6.42-1.87-.33-1.94-2.26-4.47-1.39-.15.05-2.52,2.97-1.89.29.27-1.15,2.48-7.28,4.09-5.32ZM68.42,430.9l-.9-2.53c-1.52,1.55-1.8,2.85.9,2.53Z"/>
  <path class="cls-1" d="M105.72,426.91h1.45c.25,1.49-.85,5.17,1.33,5.35,2.93.25.62-6.25,2.3-5.53,1.5,1.39.82,6.15-1.35,6.63-4.15.91-3.91-3.65-3.72-6.45Z"/>
  <path class="cls-1" d="M94.14,428.01c-.14.21-.05,1.08.35,1.27l2.9.72c-.97,1.21-3.41-.33-3.25,1.81,1.2,1.57,3.88-.97,3.62,1.63l-4.55-.34v-6.2c.39-.56,4.83-.75,4.55.56-.22,1.04-3.08-.25-3.62.56Z"/>
  <path class="cls-1" d="M133.97,433.43c-.28-.27,2.23-7.11,3.4-6.86,1.08.24,2.4,5.21,3.12,6.31l-.9.55c-.5-.12-.42-2.03-3.27-1.45-.82.17-1.58,2.18-2.35,1.45ZM136.87,428.36l-.73,1.98c.4.84,2.24.79,2.02-.19l-1.29-1.8Z"/>
  <path class="cls-1" d="M83.27,426.92c1.16,1.25-3.05.49-3.45,1.07-1.38,1.97,3.1,1.14,3.08,2-.65,1.23-3.29-.19-3.26,1.09.04,1.71,1.08,1.18,2.36,1.27.56.04,1.43-.36,1.27.53-.54.82-3.88.73-4.36.39l-.18-6.38c.44-.62,4.17-.38,4.55.03Z"/>
  <path class="cls-1" d="M86.89,433.07v-1.08c1.27-.03,2.52.8,3.63-.18l-.25-.91c-1.16-.2-3.2-.67-3.39-2.01-.32-2.24,2.93-3.03,4.35-1.79s-2.31.54-2.54.71l-.35,1.1c.26.89,3.58.26,3.58,2.54,0,2.41-3.48,1.99-5.04,1.63Z"/>
  <path class="cls-1" d="M101.28,426.62c2.77-.61,4.57,2.19,1.9,1.57-.47-.11-.66-.62-1.44-.41-2.09.55-2.16,3.77,0,4.42,1.38.42,2.48-1.54,2.9.32-5.01,3.87-8.38-4.79-3.36-5.9Z"/>
  <path class="cls-1" d="M143.02,429.45c.73.67,1.56-2.09,1.89-2.44.38-.4,1.36-.47,1.35.08,0,.2-1.74,2.6-2,3.43-.22.71.01,2.77-.72,2.91-1.17.23-.83-2.16-1.07-2.91-.26-.83-2-3.23-2-3.43.06-1.8,2.9,1.33,2.53,2.35Z"/>
  <path class="cls-1" d="M170.9,428l-1.82-.17c-2.24-1.39,4.84-1.88,5.08-.73.26,1.21-2.07.81-2.17.9v4.52s-1.08.91-1.08.91v-5.43Z"/>
  <path class="cls-1" d="M16.18,381.73l69.9.19c.51.24.71.43.81,1,.42,2.31-.26,5.82-.05,8.28-.25.74-5.36,1.32-5.4,5.11-.03,3.55,3.13,3.92,5.39,5.5.18.52.18,8.04,0,8.57-.12.37-.42.54-.75.7H15.64c-.51-.24-.71-.43-.81-1-.42-2.31.26-5.82.05-8.28.29-.85,5.3-1.13,5.4-5.14.08-3.34-3.12-4.27-5.4-5.46.16-1.64-.54-8.16.3-9.01.24-.24.67-.35,1-.45ZM69.51,384.18l-51.91.05-.44.69.26,4.46c2.08,1.05,4.43,2.73,4.94,5.2.99,4.82-1.29,7.05-5.17,9.15l-.03,4.72,52.15.36c.35-.06-.04-2.62,1.43-2.52,1.02.53,1.02,1.48.95,2.51l12.7-.16.28-5.03c-3.54-2.14-5.76-3.41-5.39-8.04.28-3.45,2.55-4.74,5.27-6.31l.02-4.74-12.88-.34c.49,3.04-2.66,3.05-2.17,0Z"/>
  <path class="cls-1" d="M48.42,392.54c0,1.68-1.36,3.04-3.04,3.04s-3.04-1.36-3.04-3.04,1.36-3.04,3.04-3.04,3.04,1.36,3.04,3.04ZM47.27,392.59c0-1.06-.86-1.92-1.92-1.92s-1.92.86-1.92,1.92.86,1.92,1.92,1.92,1.92-.86,1.92-1.92Z"/>
  <path class="cls-1" d="M41.26,395.41c-1.75.49-1.76-2.61-3.25-1.57l-.18,1.21c-.35.47-.8.52-1.11,0-.14-.24-.29-4.96.17-5.28,1.45-.39,3.22-.34,4.19.95,1.09,1.45-.54,2.14-.54,3.06,0,.64.9.9.72,1.62ZM40.19,391.79c0-.7-.56-1.26-1.26-1.26s-1.26.56-1.26,1.26.56,1.26,1.26,1.26,1.26-.56,1.26-1.26Z"/>
  <path class="cls-1" d="M56.11,389.62c1.93-.1,4.89-.28,4.74,2.35s-3.69,1.02-4.02,3.63l-.73-.37v-5.61ZM57.2,392.88c3.3.3,3.28-2.48,0-2.18v2.18Z"/>
  <path class="cls-1" d="M50.68,389.61c.18,1.71-.83,5.53,1.92,4.63,1.81-.59.5-3.22.99-4.63,1.28-.91,1.88,4.8-.01,5.6-4.18,1.76-4.33-2.72-3.97-5.61h1.08Z"/>
  <path class="cls-1" d="M35.11,391.06c-4.7-1.78-5.47,4.5-.72,3.26l-.36-1.44h1.44s-.05,2.12-.05,2.12c-2.47,1.32-6.26-.14-5.31-3.31.54-1.8,4.48-3.26,5-.62Z"/>
  <path class="cls-1" d="M27.46,399.44l.04,3.57c-1.18.26-1.04-.34-1.63-1.08l-1.62,1.08v-3.98s3.21.41,3.21.41ZM24.97,400.84c.23.32,2,.56,1.81-.54-.59-1.21-2.29-.14-1.81.54Z"/>
  <path class="cls-1" d="M62.29,401.09c0,1.19-.96,2.15-2.15,2.15s-2.15-.96-2.15-2.15.96-2.15,2.15-2.15,2.15.96,2.15,2.15ZM61.49,401.1c0-.76-.61-1.37-1.37-1.37s-1.37.61-1.37,1.37.61,1.37,1.37,1.37,1.37-.61,1.37-1.37Z"/>
  <path class="cls-1" d="M65.89,400.84l.72-1.81v3.98c-1.24.04-1.46-1.56-2.35-2.16l-.18,2.16h-1.08s.36-3.98.36-3.98l2.53,1.81Z"/>
  <path class="cls-1" d="M31.49,399.03c-.15,1.08-2.04.47-2.17.91-.25.85,1.76.61,2.17.91-.28,1.32-2.47.01-2.17,1.44l2.17.54c-3.55,2.06-2.93-1.39-2.89-3.8h2.9Z"/>
  <path class="cls-1" d="M43.44,403.01c-1.47.45-.97-1.32-2.35-1.09-.47.08.31,1.44-.91,1.09v-3.98c1.22-.13,3.5-.16,3.27,1.61-.12.95-1.37,1.08-.01,2.37ZM40.91,399.76c-.83.83,1.49,2.29,1.81.9.2-.89-1.57-1.13-1.81-.9Z"/>
  <path class="cls-1" d="M39.09,399.03l-2.17,1.27,1.81.9-1.81.55c-.29,1.16,1.85.3,2.17,1.08-3.55,2.06-2.93-1.39-2.89-3.8h2.9Z"/>
  <path class="cls-1" d="M70.09,400.51l1.26.12c.7.5.52,3.62-.61,3.81-1.41.23-1.76-3.56-.64-3.93Z"/>
  <path class="cls-1" d="M70.46,388.19c1.39-.23,1.96,3.83.32,3.98-2.07.2-1.47-3.79-.32-3.98Z"/>
  <path class="cls-1" d="M50.64,399.07l1.49,3.94c-.83.04-1.05-.76-1.99-.76s-1.16.8-1.99.76l1.49-3.94h1.01ZM50.68,401.56c.14-1.81-1.22-1.81-1.08,0h1.08Z"/>
  <path class="cls-1" d="M35.11,399.75l-1.81.54c4.12,1.19,1.05,4.85-1.08,2l1.99.36.19-.91c-3.84-.81-1.34-4.48.72-1.99Z"/>
  <path class="cls-1" d="M71.32,398.31c-2.31.55-2.32-3.72-.86-3.96s1.4,3,.86,3.96Z"/>
  <path class="cls-1" d="M44.88,399.03c1.23,4.55.99,2.07,2.9,0-.25,1.28-1.25,5.53-2.61,3.15-.27-.46-1.8-3.61-.29-3.15Z"/>
  <path class="cls-1" d="M55.39,399.03c.31,1.05-.82.62-1.04,1.3-.3.92.58,2.96-.77,2.68l.02-3.03-1.47-.94h3.26Z"/>
  <rect class="cls-1" x="54.84" y="400.66" width="3.99" height=".73" transform="translate(-344.21 457.73) rotate(-89.98)"/>
  <path class="cls-1" d="M432.01,230.31c.58-.81,4.69.93,5.95,1.06,3.67.37,7.21,0,10.43-1.88,1.28-.75,4.63-4.01,5.5-3.94l.89.61c-1.7,5-9.37,7.81-14.28,7.78-1.24,0-10.27-1.14-8.49-3.63Z"/>
  <path class="cls-1" d="M440.22,219.7c-1.4,1.34-10.46-1.15-8.05-7.16.6-1.5,4.89-8.1,6.02-9.19,1.32-1.27,2.53-.54,1.97,1.23-.73,2.31-6.24,7.91-6.01,10.29s6.18,2.28,6.42,3.99c-.07.26-.15.64-.34.82Z"/>
  <path class="cls-1" d="M497.51,215.78c-.19.27-2.31.14-3.07.36s-2.9,1.34-3.05,2.04,6.68,3.81,4.35,5.43c-1.81,1.25-3.83-2.79-5.64-3.06l-1.42,2.54-1.61-.08c-.68-4.46,4.72-10.22,9.19-9.37.96.18,1.74,1.45,1.26,2.14Z"/>
  <path class="cls-1" d="M458.75,199.12c-1.22,1.38-4.09-2.35-5.6-2.85-2.3-.76-6.45.69-5.92-2.16,2.87-1.45,6.82-.51,9.35,1.26.79.55,3.05,2.76,2.17,3.75Z"/>
  <path class="cls-1" d="M451.8,203.96c1.49,1.22,1.09,5.53-1.2,5.67-5.03.31-2.28-8.51,1.2-5.67Z"/>
  <path class="cls-1" d="M429.2,206.99c-2.71-2.5,1.42-7.49,3.47-4.37,1.79,2.73-.9,6.74-3.47,4.37Z"/>
  <path class="cls-1" d="M309.05,68.42c.46-.15,2.17-6.34,2.65-7.49,9.05-21.88,34.21-33.69,56.74-25.11,10.27,3.91,17.76,11.96,25.17,19.73,1.92,2.02,7.21,7.08,8.33,9.05.97,1.7-.16,2.36-1.66,1.67-12.69-12.3-22.67-27.84-41.67-30.4-19.59-2.64-39.03,9.81-45.42,28.37-.23.68-1.48,4.18-.53,4.18h43.45c2.96,0,7.75,4.86,7.98,7.95l.16,34.96c.16,1.38,2.99,1,4.08.82,3.02-.52,10.33-6.67,12.77-8.96,10.01-9.37,19.55-20.68,29.13-30.62,5.74-5.96,11.65-11.77,17.4-17.72,22.31-23.08,40.01-47.95,74.77-51.61,67.6-7.1,102.07,69.75,63.34,122-16.87,22.75-44.71,34.38-72.93,29.36.46,5.13,4.38,3.58,8.05,4.8,10.68,3.57,16.77,17.58,11.91,27.89,7.72,7.21,8.37,19.11,3.35,28.1-1.93,3.46-2.41,4.16-3.96,7.99-3.39,8.41-6.29,14.73-14.32,19.72-1.12.7-5.65,2.39-5.68,3.56l3.13,22.21,12.54,3.4c25.15,8.86,38.62,31.2,42.24,56.79.47.73,6.66.35,8.04.47,9.25.8,17.87,6.39,22.86,14.08h19.92c.72,0,.72,2.17,0,2.17h-19.01c2.48,5.46,3.43,10.86,3.27,16.85-.31,11.81-2.61,24.33-3.27,36.2-1.09,20.38-3.52,40.61-4.76,60.96-1.96.84-2.58.57-2.51-1.58.3-8.6,1.49-18.11,2.2-26.79,1.84-22.38,4.72-44.97,5.81-67.34.79-16.26-7.72-30.94-25.16-32.08s-37.51.88-55.74.06c-15.63,2.08-27.79,14.91-30.18,30.29-.51,3.25-.45,6.74-.87,10-3.47,27.55-6.29,55.1-9.73,82.61-.18,1.45.36,2.92-.41,4.3-.54.97-1.71,1.44-2.31.22-.22-.45.42-6.61.55-7.78,2.55-23.42,5.42-46.94,8.29-70.29,2.6-21.2,1.44-36.19,22.24-48.01.71-.4,4.16-1.6,1.16-1.77-3.3-.19-9.91,1.29-13.05,2.55-21.38,8.59-20.52,31-23.02,50.12-1.98,15.09-4.18,30.29-6.07,45.35-1.21,9.56-1.78,19.37-3.32,28.91-.22,1.34-1.65,2.53-2.26,1.21-.34-.73.33-6.33.48-7.7,2.49-22.49,5.68-44.94,8.64-67.4,2.32-17.66,1.17-37.14,17.31-48.59,5.52-3.92,11.56-6.21,18.38-6.6,19.29-1.11,39.66.85,59.06.04l1.16-.55c-4.13-21.82-13.09-41-33.71-51.31-26.13-13.07-64.15-7.48-88.71,7.01-11.69,6.9-18.49,15.53-25.75,26.76-14.53,22.48-24.24,47.59-35.33,71.85-1.5.63-3.06-.15-4.52-.2-7.9-.24-15.68-.96-23.56-1.43-16.76-.99-33.55-1.59-50.29-2.8-1.25.13-3.74,4.45-4.4,5.68-4.44,8.27-6.39,24.81-3.19,33.62.74,2.05,5.65,3.14,7.79,3.8,25.01,7.7,67.78,15.39,93.49,12.52,29.29-3.28,47.37-38.03,58.42-62.16,1.28-2.8,2.76-7.91,4.29-10.19.19-.29.39-.61.75-.69.79,0,1.43.45,1.5,1.28.11,1.31-4.48,11.28-5.41,13.28-9.11,19.72-21.25,40.3-38.51,53.83-.49,5.12-1.18,10.27-1.63,15.39-.37,4.2-.2,9.3-.76,13.37-.15,1.07-.6,1.76-1.77,1.49l-.99-1.51c.64-4.06.65-8.18.99-12.27.24-2.91.52-5.76.72-8.69.06-.86,1.34-6.29.18-6.33-4.31,2.67-9.91,4.56-14.94,5.33-25.06,3.86-65.84-3.99-90.62-10.59-2.49-.66-13.23-3.37-14.49-4.7-1.79-1.9-1.97-6.71-2.53-9.25-3.92.88-8.08,1.52-12.13,1.09-1.15-.12-3.41-1.17-4.3-1-.95.18-5.05,4.07-7.28,3.53-15.55-.9-32.43,1.19-47.81.01-7.67-.59-15.77-4.92-12.37-13.84,2.49-6.52,10.68-12.72,17.02-15.21,2.47-.97,9.76-2.16,10.92-3.56.63-.76,1.1-2.22,1.86-3.21,4.08-5.36,15.57-9.16,22.1-9.76,14.03-1.29,25.64,5.07,37.98,10.49l.47-.1c2.65-5.55,5.28-3.78,10.03-3.56,16.4.77,32.87,1.98,49.25,2.9,7.34.41,14.7.58,22.04,1.04l15.44-35.08h-67.17c-.34.26-.46.37-.47.82-.04,1.72.74,4.29.86,6.1.84.61,12.7.34,14.84.34,4.61,0,6.54-.54,10.78,2.22,3.78,2.47,6.73,7.86,5.17,12.28l-139.27.15c-1.83-2.47-.07-7.27,1.65-9.58,6.23-8.35,18.9-4.08,27.81-5.14,1.04-.35,1.03-5.9,1.31-7.2h-45.63v42.91c0,3.51-4.67,8.08-8.18,8.48-16.26-.85-33.86,1.24-49.96.05-3.11-.23-5.94-1.63-7.71-4.24-.42-.62-1.87-3.72-1.87-4.29v-42.91h-16.84l-.54.54v15.93c0,2.92-5.76,7.96-8.91,7.75-16.64-1.07-35.36,1.56-51.76.05-3.29-.3-6.64-2.21-8.29-5.11-.23-.41-1.29-2.85-1.29-3.05v-15.57l-.54-.54H1.98c-.72,0-.72-2.17,0-2.17h30.06l.54-.54v-35.49c0-.14.85-2.26,1.02-2.6,4.15-8.29,15.72-4.13,23.04-5.56,11.57.69,24.06-.85,35.52,0,3.52.26,7.12,1.54,9.16,4.6.26.39,1.51,2.97,1.51,3.2v35.85l.54.54h16.3c1.06-1.11.37-3.04.55-4.52,1.67-13.39,16.75-9.65,26.23-9.58,9.76.07,20.5-.74,30.09-.4,8.43.31,12.09,5.75,11.44,13.91l.54.54,45.18.07,3.4-22.74-.47-.82h-111.17c-4.81,0-11.77-8.11-11.77-12.86v-109.9h-8.87c-3.93,0-8.97-6.28-8.52-10.31v-108.3c.43-5.51,3.62-9.61,9.23-10.32h172.54c3.44-31.42,28.81-58.55,59.69-64.7,24.74-4.92,48.78,2.73,67.26,19.44,5.1,4.62,12.64,12.16,17.01,17.39.7.83,2.62,2.77,1.47,3.65l-1.04.3c-11.98-11.83-22.55-25.1-38.15-32.5-40.36-19.16-88.51,2.1-101.17,44.66-.68,2.3-2.53,8.89-2.46,10.96.02.44.13.56.47.82h11.95c1.34-2.38,1.53-5.47,2.38-8.13,10.39-32.69,45.25-50.91,78.02-38.96,13.97,5.1,23.79,15.48,33.68,26.07.92.99,5.41,5.73,5.55,6.42.1.48.17,1.07-.28,1.39l-1.67-.19c-10.14-10.23-19.01-22.03-32.14-28.69-31.73-16.09-68.42.28-80.07,33.03-.54,1.52-2.34,6.97-2.3,8.22.01.44.14.56.48.82h12.31ZM374.77,112.24h18.65c1.83-1.26,3.35-2.94,4.9-4.52,21.4-21.77,41.64-44.84,63.35-66.29,20.02-19.77,44.78-30.89,72.56-18.23,52.08,23.74,37.09,105.7-16.77,116.02-31.16,5.97-51.37-11.25-70.64-32.59-.79-.87-4.63-4.6-2.66-5.23l1.42.32c9.44,8.66,17.34,19.53,28.22,26.46,35.99,22.92,77.85,3.15,88.29-36.66,10.02-38.22-17.82-75.02-58.22-70.53-27.14,3.02-41.08,24.5-59.22,41.81l-47.06,49.26c1.97,1.06,3.91,1.53,5.76,2.93s3.03,3.26,4.56,4.85l69.7-72.24c21.35-21.65,59.06-18.46,70.53,11.68,11.59,30.46-11.85,67.99-45.71,65.63-22.27-1.56-33.67-18.26-47.82-32.93-.8-1.84.97-2.22,2.19-1.1,10.53,10.05,19.45,23.37,33.5,28.78,25.94,9.99,51.42-7.67,57.1-33.41,8.63-39.09-31.39-65.34-63.23-40.77-11.19,8.64-23.28,22.85-33.36,33.27-13.95,14.41-27.48,29.25-41.81,43.29l.56,5.59c.19,48.27-.46,96.71.33,144.88l11.78,11.29c7.22-4.22,14.62-7.64,22.56-10.3.87-.29,4.92-1.18,5.16-1.35.44-.31.38-.99.38-1.46-.03-2.34-.75-7.27-1.15-9.74-.09-.57-.24-1.14-.51-1.66-5.32-1.37-10.01-2.37-14.47-5.8-15.53-11.98-13.03-35.9-10.37-53.06-4.15-5.7-7.63-10.38-7.9-17.78-.29-8.16,4.69-16.84,12.6-19.36.02-7.09,2.07-13,7.65-17.52,6.23-5.04,16.24-5.68,23.19-1.82,1.4.78,3.79,3.25,5.14,3.03.36-.06,3.53-1.37,3.53-1.57-8.05-4.91-15.08-11.1-21.73-17.73-3.63-3.62-9.06-8.93-12.08-12.9-1.71-2.24-.19-3.2,1.77-1.77,8.82,9.28,17.2,19.17,27.8,26.51,1.65,1.14,6.22,4.34,7.85,4.82,2.46.73,6,.13,9.35,1.15,4.85,1.48,6.92,4.74,10.13,6.16,6.94,3.07,24.79,1.35,32.32-.44,48.59-11.58,72.99-74.23,44.61-115.6-26.17-38.15-76.08-39.01-109.08-8.98-13.15,11.97-26.28,26.88-38.75,39.83-12.16,12.63-24.78,27.95-37.65,39.49-2.03,1.82-4.84,3.44-6.7,5.25-.36.35-.68.47-.55,1.08ZM361.74,112.24l.38-32.43c-.1-5.11-2.62-8.6-7.85-9.17l-247.29-.06c-4.24.05-7.51,2.9-8.13,7.08v110.1c-.22,3.14,4.13,7.41,7.06,7.41h7.79v-68.98c0-2.55,2.41-7.35,4.16-9.24,1.42-1.53,6.38-4.7,8.33-4.7h235.56ZM407,269.39V124.73c0-4.3-7.6-10.78-12.12-10.33H129.06c-5.41-.45-12.84,6.14-12.84,11.42v163.68l.82.47,12.97-.45.34-.75c-.69-49.23.92-98.54.02-147.76-.05-2.74-1.36-6.55.53-8.85h261.45c.06,0,.64.56.72.73.62,1.32.13,11.19.17,13.59.59,31.8-.01,63.83,0,95.57,0,5.62.03,11.24.01,16.86h1.99s11.78,10.5,11.78,10.5ZM391.07,256.36v-121.49l-.54-.54H132.52l-.36,155.35h236.82c-.49-1.26-1.84-2.36-1.83-3.8,0-1.35,2.03-3.79,1.67-4.51-1.79-1.42-3.59-3.49-5.51-4.65-2.08-1.26-4.71-1.98-6.88-3.26-7.22-4.28-11.68-13.07-15.71-20.14-21.4-9.17-42.12-19.97-63.47-29.23-1.33-.58-2.82-1.39-4.23-1.38v51.6c0,.4-2.04,3.5-2.56,3.96-1.29,1.15-3.87,2.2-5.59,2.37l-116.97.02c-4.91-.42-8.33-3.92-8.51-8.87v-109.39c.31-4.27,3.94-7.77,8.15-8.15,39.91.33,79.98-.58,119.79.46,1.92.11,5.7,4.38,5.7,5.89v11.41c.86.18.58-.12.81-.47,5.03-7.69,6.08-25.14,18.53-23.4l86.74,40c4.04,3.32,4.35,7.29,2.62,11.99-2,5.44-5.32,10.98-7.51,16.41-.18.39-.18.77-.1,1.18.1.51,5.22,6.97,6.11,8.41,6.22,10.09,6.34,19.04,10.04,29.45.21.59-.19.96.82.79ZM365.71,229.56c4.35-11.37,10.49-22.04,14.47-33.53.19-4.42-2.29-5.6-5.65-7.33-26.13-13.47-54.65-24.04-80.88-37.53-6.02-2.21-8.07.83-10.56,5.73-8.09,15.9-14.05,33.49-22.31,49.39-1.86,5.18.53,7.53,4.86,9.83,6.5,3.45,14.24,6.27,21.02,9.4,20.02,9.27,40.02,18.61,59.97,28.02,6.38,2.15,10.03-1.46,11.12-7.43-2.71-2.94-5.49-5.98-7.96-9.13-1.15-1.47-2.77-4.82-3.97-5.81-1.46-1.21-7.9-3.06-8.3-4.39-.12-.41-.14-.84.1-1.22,1.07-1.52,7.75,3.01,8.17,2.56-.09-6.43,5.33-8.08,10.48-5.23,1.34.74,8.81,7.13,9.43,6.68ZM148.37,156.52c-8.59.91-6.21,8.26-6.42,14.58-.43,12.92.2,25.86-.39,38.75,1.21,19.63-1.53,41.28,0,60.83.25,3.2,1.37,5.83,4.45,7.13l118.87.29c3.39-.07,5.76-3.12,5.97-6.34v-49.99c-.26-1.32-5.72-2.97-7.15-3.73-4.79-2.55-7.26-6.75-5.46-12.12,3.06-9.14,9.02-18.58,12.51-27.68-.68-5.27,2.81-20.05-4.53-21.38-9.36-1.7-22.77-.06-32.49-.07-20.6,0-41.02-.75-61.56,0-7.38.8-16.72-1.02-23.82-.28ZM482.69,230.3c1.81-.38,3.28,1.19,5.35,1.69,12.47,3.03,21.04-14.2,11.3-21.8-3.52-2.75-8.7-2.54-12.29.03-2.7,1.93-4.99,8.21-7.54,2.06-1.76-4.23-.79-7.39-.99-11.68-1.89-1.3-3.9-1.86-5.88-3.18-3.57-2.38-6.16-5.79-6.95-10.07-.2-1.05-.24-6.66-.93-6.67-7.47,6.14-17.88,7.92-26.97,4.51-1.14-.43-6.19-3.53-6.85-3.04l-3.66,11.56c1.71.12,3.52-.73,5.19-.69s5.23.94,2.89,2.83c-2.12-.7-7.86-.25-8.98,1.85-.52.98-1.4,7.66-1.59,9.27-1.82,15.03-2.65,36.06,11.71,45.41,9.07,5.9,22.43,5.1,31.81.29.84-.43,3.57-3.12,4.2-1.15.81,2.5-6.83,10.41-8.83,12.09-1.61,1.35-3.82,2.74-5.68,3.74-.73.39-7.01,2.51-5.74,3.86,10.82-2.7,22.33-3.68,33.51-3.27,1.18.04,6.41,1.07,6.89.39l-3.05-23.06c-.19-1.22-1.07-2.16-1.4-3.31-.43-1.46-1.41-7.15-1.74-7.68-.66-1.06-4.6-1.28-3.79-3.98ZM389.18,261.72c.24-.41.09-1.02,0-1.46-1.23-5.53-3.47-12.86-5.17-18.38-1.48-4.83-3.42-10.6-6.18-14.82-.61-.94-4.22-5.65-4.85-6.01-.26-.15-.37-.25-.73-.17l-4.35,10.33c-.02,1.83,6.83,4.91,7.42,5.97.29.51.28,1.2.13,1.76-.88,1.38-4.54-1.51-5.5-2.18-4.24-2.96-11.72-10.22-15.85-12.03-3.39-1.48-6.04.23-5.78,3.94.14,1.99,3.11,5.93,4.38,7.6,2.52,3.33,8.47,8.63,9.31,12.42.17.77,0,1.62.18,2.35,1.49,5.79,3.61,9.98,8.22,13.9l-1.54,1.53c-3.74-1.97-6.31-6.14-7.75-10.01-.52-1.4-.74-3.24-1.21-4.59-.85-2.46-2.36,1.7-3.42,2.69-3.03,2.82-7.35,2.53-11.04,1.45-.4.38,4.51,7.64,5.13,8.45,4.7,6.14,7.09,6.18,13.32,9.5,1.2.64,6.26,5.31,6.68,5.22,3.44-4.35,6.99-8.74,11.27-12.29,1.11-.92,7.11-4.77,7.34-5.15ZM393.88,261.87c-1.5.38-9.41,6.17-10.97,7.52-5.15,4.46-9.9,10.45-13.14,16.42l22.57,32.47c6-9.39,11.81-19.74,20.09-27.34.94-.86,6.4-4.91,6.5-5.48l-23.31-23.32-.77-.36c-.34-.07-.65,0-.97.09ZM279.21,304.32c0-3.84-3.11-6.94-6.94-6.94s-6.94,3.11-6.94,6.94,3.11,6.94,6.94,6.94,6.94-3.11,6.94-6.94ZM41.17,302.07c-3.01.71-5.44,3.17-6.07,6.24v52.53c.17,3.45,3.34,6.39,6.69,6.7,16.7-1.14,35.33,1.47,51.81,0,3.98-.36,6.62-3.58,7.06-7.42-1.07-16.16,1.37-34.04,0-50-.36-4.25-2.77-7.39-7.07-8.14l-52.42.09ZM304.47,320.14l-64.43.11-4.66,32.2,73.12.23-4.04-32.54ZM390.52,320.09h-82.92c-.13,0-.43.4-.49.6l3.06,22.96,68.71-.08,12.03-22.74-.39-.74ZM129.9,331.78c-4.05.51-6.57,2.89-7.17,6.96,1.06,15.76-1.4,33.36-.01,48.9.43,4.84,3.96,7.11,8.51,7.43,14.91,1.02,30.98-.81,46.02,0,4.42-.35,7.39-2.61,8.15-7.06-1.06-15.8,1.35-33.32,0-48.92-.36-4.15-2.98-6.79-7.07-7.41l-48.42.1ZM274.42,409.48c-.29-9.18.77-18.34,5.11-26.54-.13-.63-10.16-4.88-11.59-5.45-13.97-5.58-29.68-8.4-42.69,1.47-.46.35-3.53,2.84-2.93,3.41,5.11-1.38,10.82-4.43,16.17-4.67,1.13-.05,3.11.54,2.14,1.8-.3.39-5.63,1.21-6.8,1.53-5.13,1.4-13.44,4.71-17.08,8.63-1.26,1.36-3.13,3.9-1.67,5.58,1.55,1.78,2.83-.37,4.24-1.2,6.25-3.7,13.12-7.2,20.51-7.69,2.05,2.65-3.95,2.94-5.83,3.54-3.8,1.22-15.3,6.33-17.06,9.74-1.28,2.47.57,4.31,3.04,4.49,4.92.35,13.17-6.87,19.17-6.53,3.92.22,9.87,6.21,13.26,8.48,6.86,4.58,14.01,6.15,22.01,3.43ZM215.44,387.08c-.5-.43-4.28.98-4.73,1.6-1.35,1.88.28,5.03-.86,6.02-.94.82-6.97,2.4-8.78,3.17-4.09,1.76-10.88,5.21-7.67,10.69,1.79,3.07,7.64,4.66,10.98,4.96,14.05,1.26,29.96-.99,44.21,0,1.15.03,6.82-1.42,7.05-2.37.16-.68-3.5-2.48-4.25-2.99-2.34-1.61-10.19-8.05-12.31-8.34-2.5-.34-10.78,4.34-13.61,5.43-3.22,1.24-6.77,2.39-9.79-.13-3.2-2.68-.7-5.23-1.04-6.96-.08-.42-1.82-1.94-2.17-2.86-.53-1.4-.37-2.61.17-3.97.27-.68,3.05-4.05,2.8-4.26ZM207.84,389.62c-.53-.54-9.75,5.17-10.14,6.87l10.08-3.68.06-3.2Z"/>
  <circle class="cls-1" cx="272.28" cy="304.32" r="5.39"/>
  <path class="cls-1" d="M272.17,118.89c7.77-.32,5.41,11.84-1.64,8.7-4.69-2.09-3.05-8.51,1.64-8.7ZM274.75,123.4c0-1.27-1.03-2.31-2.31-2.31s-2.31,1.03-2.31,2.31,1.03,2.31,2.31,2.31,2.31-1.03,2.31-2.31Z"/>
  <path class="cls-1" d="M217.98,239.7l1.74.08,3.15,5.36c1.71-.24,2.34-6.51,5.25-5.44v9.41h-1.81v-5.07c-1.7.05-1.83,4.01-3.44,4-1.24,0-1.66-3.63-3.07-4v5.07c-.56.02-2.03.16-2.09-.54.03-.17.28-.29.28-.36v-8.51Z"/>
  <path class="cls-1" d="M191.18,245.13v-5.43h1.81v9.41c-3,.4-3.83-4.1-6.16-5.43v5.43l-2.04-.52.21-8.74c1.68-1.21,4.28,3.65,5.16,4.67.32.38.35.75,1.03.6Z"/>
  <path class="cls-1" d="M239.34,249.12v-9.41h5.25c.32,0,2.03.91,2.36,1.26,1.53,1.61,1.75,4.48.52,6.33-.31.47-2.16,1.82-2.52,1.82h-5.61ZM241.15,241.69v5.43c0,1.12,5.25.82,5.09-2.89-.13-2.98-4.67-3.9-5.09-2.54Z"/>
  <path class="cls-1" d="M178.02,239.47c6.25-.26,6.34,8.6,2.04,9.57-8.43,1.9-8.78-9.29-2.04-9.57ZM176.1,246.82c3.59,3.58,7.45-3.49,3.03-5.39-2.86-1.23-5.3,3.13-3.03,5.39Z"/>
  <path class="cls-1" d="M213.45,239.7c2.13.42,2.85,2.92,2.28,4.82-.22.72-1.38,1.07-1.38,1.88,0,.7,1.87,2.36,1.45,2.72-2.98.94-2.87-4.68-5.74-2.3l-.05,2.3h-1.81v-9.42c1.57.21,3.79-.29,5.25,0ZM210.6,241.2c-.76.25-1.59,3.53,1.03,3.61,4.15.12,2.41-4.47-1.03-3.61Z"/>
  <path class="cls-1" d="M214.36,165.83c.51.08,1.37-.18,1.75.06s2.2,4.87,3.13,4.65,1.9-5.61,4.17-4.71v7.79l-.9.54c-.99-.21-.39-4.15-.55-5.07-1.37.76-1.46,3.76-3.07,4l-2.71-3.63-.06,4.11-.49.6c-.36.19-1.26-.24-1.26-.54v-7.79Z"/>
  <path class="cls-1" d="M237.17,239.7v1.45s-4.46-.01-4.46-.01c-2.5,3.7,3.85,1.89,4.1,3.1.33,1.56-4.07.62-4.35.9v2.54s4.91.34,4.91.34l.16,1.11h-7.24v-8.87l.54-.54h6.34Z"/>
  <path class="cls-1" d="M244.41,166.01l.85-.5c1.45.12,4.06,5,4.4,5.02.53.03.39-.77.37-1.08-.05-1.15-.37-2.41-.19-3.62h1.81v7.79l-.85.5c-1.26-.1-3.26-4.15-4.4-5.02-.7.45-.39.58-.37,1.08.04.88.69,3.65-.36,3.98-.36.19-1.26-.24-1.26-.54v-7.6Z"/>
  <path class="cls-1" d="M168.28,239.41c1.33-.15,3.06.71,4.07,1.57l-.96,1.21c-7.41-4.26-7.25,8.76,0,4.43l.93.92c-1.57,2.88-6.32,2.21-7.89-.46-1.91-3.25.11-7.24,3.84-7.66Z"/>
  <path class="cls-1" d="M148.45,165.83h5.25c.97,0,2.38,2.28,2.56,3.24.88,4.64-4.4,6.13-7.81,4.54v-7.79ZM150.49,167.33c-.94.36-.73,4.63-.43,5.04s.98.37,1.46.36c4.73-.18,3.91-6.77-1.02-5.4Z"/>
  <path class="cls-1" d="M182.29,169.83c0,2.4-1.94,4.34-4.34,4.34s-4.34-1.94-4.34-4.34,1.94-4.34,4.34-4.34,4.34,1.94,4.34,4.34ZM179.85,171.88c2.03-2.52-1.22-6.68-3.77-4.14s1.55,6.89,3.77,4.14Z"/>
  <path class="cls-1" d="M233.77,169.86c0,2.4-1.94,4.34-4.34,4.34s-4.34-1.94-4.34-4.34,1.94-4.34,4.34-4.34,4.34,1.94,4.34,4.34ZM229.1,166.98c-3.08.49-2.62,5.72.28,5.76,3.85.05,3.35-6.33-.28-5.76Z"/>
  <path class="cls-1" d="M157.99,187.43c-4.04-4.12,2.36-11.27,5.09-6.36,2.47,4.43-1.81,9.7-5.09,6.36ZM161.39,181.5c-2.46-2.31-4.29,4.58-1.46,5.28,2.25.55,2.95-3.87,1.46-5.28Z"/>
  <path class="cls-1" d="M207.93,165.93c.76-.73,1.67-.54,2.24.29.44.64,2.75,6.04,2.94,6.85.3,1.27-.93,1.47-1.66.57-.29-.36-.3-1-.53-1.28-.54-.66-2.58-.46-3.35-.1-1.04.48-1.48,3.03-2.97,1.37,1.26-1.43,2.31-6.69,3.34-7.69ZM209.28,168c-.79-.72-1.52,2.45-1.44,2.89h2.17s-.73-2.89-.73-2.89Z"/>
  <path class="cls-1" d="M167.28,171.62l-.17,2.18c-.43.64-1.36.47-1.55-.24l.07-7.38c1.91-.55,6.37-1.14,6.74,1.62.49,3.6-2.12,4.1-5.09,3.82ZM170.45,169.72c2.09-2.05-3.76-4.63-3.19-.81.28,1.9,1.73,1.43,3.19.81Z"/>
  <path class="cls-1" d="M201.86,239.7c1.81,2.27-2.86,1.14-3.93,1.5l-.43.29c-.16.29-.17.61-.19.93-.04.61-.04,1.36.62,1.58l3.75.05v1.45s-4.3.42-4.3.42l-.05,3.21h-1.81v-9.42h6.34Z"/>
  <path class="cls-1" d="M164.02,165.83v1.08s-4.35,0-4.35,0v2.18c.9.05,1.83-.07,2.73,0,.55.04,1.03-.28.9.54-.25,1.55-2.61.72-3.62.91l.34,2.01,3.82.16c.82,2.53-4.4,1.25-5.97,1.09v-7.97h6.16Z"/>
  <path class="cls-1" d="M189.37,167.28c-1.6.01-3.21-1.13-4.34.55-.3,1.42,4.93.93,4.74,3.98-.17,2.75-4.57,2.91-6.41,1.64l.22-1.46c.27-.2,3.86,1.76,4.34.18.45-1.47-2.15-1.61-3.04-2.03-3.46-1.64-.72-4.94,2.45-4.65,1.02.09,2.35.51,2.04,1.79Z"/>
  <path class="cls-1" d="M240.79,165.83l1.72.53c-.46,3.25.96,8.57-4.41,7.79-.7-.1-2.74-1.56-2.74-1.98v-6.34l1.72.53c-.63,1.78-.75,7.19,2.37,6.31.4-.11,1.34-1.33,1.34-1.58v-5.25Z"/>
  <path class="cls-1" d="M205.33,185.03c0,1.86-1.51,3.36-3.36,3.36s-3.36-1.51-3.36-3.36,1.51-3.36,3.36-3.36,3.36,1.51,3.36,3.36ZM203.69,185.01c0-.98-.8-1.78-1.78-1.78s-1.78.8-1.78,1.78.8,1.78,1.78,1.78,1.78-.8,1.78-1.78Z"/>
  <path class="cls-1" d="M185,185.01c0,1.84-1.5,3.34-3.34,3.34s-3.34-1.5-3.34-3.34,1.5-3.34,3.34-3.34,3.34,1.5,3.34,3.34ZM183.5,185.02c0-1-.81-1.82-1.82-1.82s-1.82.81-1.82,1.82.81,1.82,1.82,1.82,1.82-.81,1.82-1.82Z"/>
  <path class="cls-1" d="M211.91,185.11c.75-.75,3.82,0,3.53-1.35-.39-1.8-2.97-.1-3.43-.19-.38-.07-.89-.93-.18-1.26,1.75-1.13,4.84-.73,5.35,1.52.24,1.08.61,4.71-1.11,4.36s-.69-.04-2.24.12c-2.25.23-3.21-1.9-1.91-3.21ZM215.44,185.39c-.76-.04-3.08-.05-2.53,1.26s2.97.28,2.53-1.26Z"/>
  <polygon class="cls-1" points="224.86 179.23 224.86 190.45 221.96 190.45 221.95 189.18 223.07 188.8 223.07 180.88 222.01 180.64 221.96 179.23 224.86 179.23"/>
  <path class="cls-1" d="M198.42,167.28v6.34c0,.68-1.81.68-1.81,0v-6.16c-.59-.82-1.66-.51-2.54-.54v-1.09h6.7l.54.54-2.89.91Z"/>
  <path class="cls-1" d="M259.98,165.83v1.08s-2.3.06-2.3.06l-.6.49v6.7l-1.65-.34-.21-6.31-2.13-.77c-.61-.32.03-.91.19-.91h6.7Z"/>
  <path class="cls-1" d="M148.45,179.23c.84.09,3.22-.49,3.26.9l-1.84.77v7.88c.12.42,1.97.14,1.47,1.67h-2.9s0-11.22,0-11.22Z"/>
  <path class="cls-1" d="M196.25,180.31c-.57,1.96,1.09,1.25,1.45,1.99l-.22.91h-1.23c.08.75-.11,1.64-.02,2.37.26,1.94,1.93.46,1.47,2.69-1.71.24-2.96-.16-3.24-2.01-.23-1.56.69-2.92-1.11-3.6v-.53c1.96-.38,0-2.45,2.9-1.82Z"/>
  <path class="cls-1" d="M190.09,179.23c.23,1.38-.65,1.53-1.81,1.45l.18,1.11,1.27.52v.9s-1.29.34-1.29.34l-.5,4.57-1.11.16c-.21-1.18.37-3.85-.19-4.72-.26-.4-1.27-.14-.89-1.25,1.6-.5.72-1.81,1.42-2.56.59-.63,2.09-.55,2.91-.53Z"/>
  <path class="cls-1" d="M208.56,180.31c-.57,1.96,1.09,1.25,1.45,1.99l-.22.91h-1.23c-.02,2.24-.56,3.27,1.81,4.16.31,1.21-3.33,1.73-3.5-1.14-.08-1.32,1.08-2.46-.87-3.24l.78-2.66,1.79-.02Z"/>
  <path class="cls-1" d="M153.52,188.28v-6.88l-1.45-.55.35-1.09c.93-.3,2.24-.46,2.91.37v7.6l-1.81.54Z"/>
  <rect class="cls-1" x="203.85" y="239.7" width="1.81" height="9.41"/>
  <path class="cls-1" d="M192.99,165.83v7.79c0,.68-1.81.68-1.81,0v-7.79h1.81Z"/>
  <path class="cls-1" d="M220.51,179.23v8.51c0,.38-1.03.69-1.45.54v-7.79c0-.11-.39-.38-.33-.68l1.78-.58Z"/>
  <path class="cls-1" d="M172.71,179.59c.12.61-.32.95-.58,1.41-.73,1.3-3.59,5.92-4.49,6.74-.49.45-.71.67-1.45.54l5.12-8.1,1.4-.59Z"/>
  <path class="cls-1" d="M166.09,179.66c2.93-.85,3.44,3.93,1.29,4.58-2.78.84-3.67-3.89-1.29-4.58ZM166.38,180.68c-.94.29-.82,3,.72,2.53.94-.29.82-3-.72-2.53Z"/>
  <path class="cls-1" d="M171.89,184c3.6-.77,2.68,5.59-.62,4.09-1.77-.8-1.32-3.67.62-4.09ZM172.17,184.66c-.89.61-1.41,1.75-.36,2.53,1.72.53,1.63-2.82.36-2.53Z"/>
  <circle class="cls-1" cx="261.43" cy="168.62" r="1.08"/>
  <circle class="cls-1" cx="261.54" cy="173.07" r="1.08"/>
  <path class="cls-1" d="M152.93,259.75c1.51-1.56,4.03-2.52,6.19-2.68h95.25c9.55,1.09,9.3,14.68,1.73,16.23-2.49.51-4.82.05-7.14.06-30.55.13-61.09-.07-91.64.03-6.09-1.01-8.52-9.35-4.39-13.64ZM229.2,259.62l-.29,10.77.47.82h25.35c.15,0,1.69-.74,1.98-.92,2.93-1.91,3.46-6.16,1.27-8.84-.4-.49-2.39-1.82-2.88-1.82h-25.89Z"/>
  <path class="cls-1" d="M330.14,184.02c2.55-.44,5.47.1,7.52,1.72,7.39,5.85-.24,23.77-10.79,19.48-9.31-3.79-4.24-19.91,3.27-21.2ZM332.31,188c-4.08.34-7.98,10.18-4.61,12.77,4.55,3.49,8.97-6.06,8.24-9.68-.32-1.59-1.91-3.23-3.64-3.09Z"/>
  <path class="cls-1" d="M323.71,179.24l-8.32,20.26-4.31-2.05,6.81-15.58c.08-.9-2.43-1.62-3.17-1.97.01-6.89,5.37-1.23,9-.67Z"/>
  <path class="cls-1" d="M306.97,222.59c-.32.31-.93.44-1.37.29l-34.6-16.11-.52-1.28c.31-1.04,2.86-.44,3.61,0,9.6,4.96,19.82,8.78,29.47,13.62.97.49,4.96,1.98,3.41,3.48Z"/>
  <path class="cls-1" d="M361.63,197.03c.85-.14,2.39.58,3,1.21.14.6-2.03,1.8-2.56,2.14-6.1,3.95-12.34,7.75-18.55,11.53-1.24.65-5-.89-2.67-1.97l20.78-12.91Z"/>
  <path class="cls-1" d="M356.21,206.47c9.81-1.78,5.64,15.93-2.19,11.08-4.69-2.9-2.36-10.25,2.19-11.08ZM357.27,208.97c-2.77,1.24-4.91,5.37-1.09,6.75,2.29.22,4.49-6.07,1.09-6.75Z"/>
  <path class="cls-1" d="M346.79,191.26c2.63-.55,5.41.27,6.22,3.03,1.44,4.94-3.2,10.93-8.27,7.55-3.6-2.4-2-9.74,2.05-10.58ZM347.88,193.77c-1.78.34-3.14,4.26-1.88,5.72,3.03,3.53,7.06-6.71,1.88-5.72Z"/>
  <rect class="cls-1" x="281.95" y="191.63" width="2.67" height="18.46" transform="translate(-19.57 370.79) rotate(-64.63)"/>
  <path class="cls-1" d="M296.79,206.05c1.31-.43,13.25,6.19,15.47,6.9,1.13.65.56,1.7-.49,1.97-1.45.38-12.67-5.66-15-6.4-.85-.39-.87-2.18.01-2.47Z"/>
  <path class="cls-1" d="M316.9,217.55c-.37-.63.18-1.91.89-2.04,1.34-.25,11.87,5.82,14.14,6.38l1.54,1.65c-.41.72-1.05,1.14-1.88.89-1.83-1.15-14.17-5.98-14.69-6.88Z"/>
  <path class="cls-1" d="M289.58,163.39c.66-.17,1.41-.15,2.09-.09,1.41.13,11.53,4.69,13.18,5.66,1.49.87,2.39,2.27,2.49,4.03s-3.67,10.53-5.22,11.62-2.97.92-4.67.44c-2.31-.66-7.67-3.31-9.95-4.53s-4.29-2.16-4.36-5.08c-.04-1.88,3.56-9.76,4.92-11.04.32-.3,1.15-.9,1.53-1ZM289.93,165.9c-.58.18-.77.67-1.05,1.13-.49.81-2.76,6.19-3.02,7.12-.78,2.82,1.27,3.27,3.32,4.31,1.29.65,10.07,4.79,10.64,4.57.6-.5,1.08-1.08,1.51-1.73.78-1.2,3.01-5.81,3.38-7.12.19-.69.39-1.52-.01-2.18-.43-.71-11.45-5.85-12.76-6.07-.66-.11-1.36-.22-2.02-.02Z"/>
  <path class="cls-1" d="M316.11,94.85c.63.13.73-.16,1-.62.94-1.57,1.46-6.55,2.43-7.71.54-.65,1.91-.28,2.72-.35l-4.04,13.35c-.86.06-2.43.32-3.04-.3-1.09-1.11-1.63-6.45-2.89-7.97-.69,0-2.21,7.15-2.89,7.96-.54.64-2.07.35-2.85.31l-4.57-13.35,3.09.35,2.89,8.33,2.89-8.33c.5-.5,2.19-.55,2.74-.19s2.39,7.32,2.52,8.52Z"/>
  <path class="cls-1" d="M191.9,99.56l-2.48-.05c-.92-1.53-.07-2.97-.04-4.46.07-2.85,0-5.71-.23-8.54.33-.45,2.23-.52,2.67-.27.81.47,3.38,6.85,4.6,7.88.85.02,3.66-6.88,4.68-7.63.8-.58,1.84-.29,2.74-.33v12.86c-.65.81-2.2.85-2.9,0v-6.7c-1.48.63-3.08,5.83-4.53,5.82-1.76-1.16-2.36-3.66-3.69-5.36-.23-.3.01-.66-.83-.46v7.24Z"/>
  <path class="cls-1" d="M222.32,91.96v7.06c-.65.81-2.2.85-2.9,0v-12.86c.93.03,1.88-.23,2.74.34.92.6,5.29,7.24,5.77,7.26,1.07-1.83.56-4.94.22-7.03.21-.88,2.83-.82,3.22-.03v12.31c-.7.85-1.86.71-2.74.2-1.19-.69-3.9-5.29-5.3-6.65-.32-.31-.3-.79-1.02-.61Z"/>
  <path class="cls-1" d="M300.54,86.16v2.53h-6.34c-.85.7-.81,2.25,0,2.9h5.61v2.17h-5.61c-.84.72-.84,2.54,0,3.26h6.7c-.03.88.27,1.95-.54,2.53h-9.05l-.54-.54v-12.31l.54-.54h9.23Z"/>
  <path class="cls-1" d="M216.53,88.7h-6.52v2.9h6.16v2.17h-6.16v3.26h6.7c.82,0,.43,1.98.18,2.53h-9.23l-.54-.54v-12.86h9.23c.82,0,.43,1.98.18,2.53Z"/>
  <path class="cls-1" d="M165.52,96.72c-.62,2.69-1.18,3.2-4.03,2.85l5.41-12.88c.58-.67,2.28-.73,3.04-.46,1.02.35,4.64,11.31,6.02,12.8-2.66,1.76-3.44-.25-4.57-2.31h-5.88ZM169.09,89.42l-1,.62-1.53,4.08h3.98s-1.45-4.71-1.45-4.71Z"/>
  <path class="cls-1" d="M330.9,86.22l5.49,13.34-2.91-.16-.88-2.37-6.11-.31c-1.27,2.06-1.22,3.35-4.21,2.85l5.25-13.04,3.39-.3ZM331.32,94.13c-.16-.55-1.71-5.48-2.53-4.71l-1.45,4.71h3.98Z"/>
  <path class="cls-1" d="M278.09,99.56l-2.84-.06c-.3-.18-.62-2.07-.96-2.48-.65-.78-4.89-.21-6.11-.31-1.27,2.06-1.22,3.35-4.21,2.85.61-1.67,4.79-12.81,5.42-13.23.55-.37,3.03-.33,3.46.19l5.25,13.04ZM271.03,89.43l-1.99,4.51c.15.77,4.06,1.03,3.93-.29l-1.94-4.22Z"/>
  <path class="cls-1" d="M157.68,86.16c4.9.72,5.33,7.91.48,9.17-1.56.41-3.06.22-4.64.25l-.16,3.65-2.69.29-.05-13.35c2.2.23,4.94-.31,7.06,0ZM158.14,92.6c.4-.4.55-1.68.45-2.25-.37-2.26-3.43-1.59-5.08-1.65v4.35c1.13-.12,3.84.34,4.62-.45Z"/>
  <path class="cls-1" d="M262.52,97.93c-.42,1.46-4.67,1.74-5.97,1.62-7.16-.63-8.19-10.62-1.89-13.1,2.94-1.16,6.07-.64,8.21,1.7l-1.67,1.59c-8.1-5.53-11.57,8.52-1.81,7.23,1.1-.36.41-3.31.59-4.3h2.54v5.25Z"/>
  <path class="cls-1" d="M348.34,86.17c-1.8,4.57-6.2,8.02-5.07,13.4l-2.56-.16c-.72-.5-.13-3.82-.43-5s-5.19-7.68-4.62-8.23c4.2-1.02,4.23,3.33,6.34,5.78,2.4-2.21,2.12-6.86,6.34-5.78Z"/>
  <path class="cls-1" d="M184.74,86.24c.21-.12,3.14-.46,2.82.46-.98,1.96-3.98,5.55-4.54,7.41-.49,1.64.15,3.46-.32,5.11l-2.7.3c-.26-1.77,0-3.66-.57-5.4-.35-1.06-4.88-7.66-4.53-7.96,4.47-1.2,3.94,3.76,6.69,5.43.51-.12,2.63-5.05,3.16-5.35Z"/>
  <path class="cls-1" d="M288.95,86.16v2.54s-3.98,0-3.98,0v10.32c-.42.73-2.31.8-2.74.2.05-1.98-.53-4.05-.55-5.99,0-1.19.98-4.09-.2-4.48l-3.41-.21-.34-2.38h11.23Z"/>
  <path class="cls-1" d="M244.05,86.16v2.54s-3.98,0-3.98,0v10.86l-2.3-.06-.6-.49v-10.32l-3.95-.04c-.17-.82-.69-1.91.15-2.5h10.68Z"/>
  <path class="cls-1" d="M119.23,103.43c-.44-.5-.77-1.56-.85-2.23-.27-2.43-.3-9.2.03-11.57.39-2.78,2.88-2.46,3.19-3.33s-.07-2.76.08-3.9c1.02-7.65,11.92-8.87,14.63-1.66.65,1.74.35,5.27.72,5.8s2.56.78,3.02,2.78c.4,1.78.29,9.46.09,11.53-.25,2.62-1.22,3.56-3.81,3.8-3.33.31-11.26.39-14.51,0-.76-.09-2.12-.67-2.59-1.21ZM124.37,86.53h9.78l.48-.6c.78-4.5-3-9.68-7.8-7.08-2.8,1.51-2.86,4.04-2.86,6.94,0,.42.03.47.39.74ZM121.47,89.06l-.54.54v11.95c0,.06.56.64.73.72.67.32,12.89.39,14.31.2.44-.06.72-.05,1.1-.35,1.2-.92,1.05-8.95.89-10.73-.09-.94-.14-1.68-.92-2.34h-15.57Z"/>
  <path class="cls-1" d="M128.06,91.67c1.37-.42,3.34.05,3.67,1.65s-.75,2.21-1,3.55c-.13.7.1,1.49-.02,2.15-.24,1.37-2.57,1.18-2.85.31.64-2.14-1.23-3.74-1.16-5.38.03-.8.55-2.04,1.36-2.29Z"/>
  <path class="cls-1" d="M50.8,331.44c.74-.76,1.93-.95,2.81-1.44.18-3.19-.11-6.68.89-9.89,2.74-8.83,14.06-12.33,21.5-6.69,5.52,4.19,5.85,9.61,5.62,16.08.53,1.09,3.81.8,4.46,4.98.59,3.84.49,14.73.09,18.73-.29,2.87-1.71,5.48-4.87,5.64-8.63-.64-18.33.79-26.83,0-2.58-.24-4.57-1.92-4.87-4.54-.49-4.29-.49-15.63,0-19.92.11-.96.54-2.27,1.21-2.95ZM76.75,323.17c.24,1.7,0,4.32,0,6.16,0,.74,2.53.74,2.53,0v-5.43c0-9.43-13.04-14.32-19.75-7.43-3.56,3.66-3.12,8.05-3.38,12.82.3.9,1.7.55,2.48.59v-6.7c0-1.67,2.44-4.97,3.8-5.97,5.32-3.92,13.37-.57,14.3,5.97ZM61.18,329.87h12.86c.5-.32.53-.73.58-1.26.06-.65-.33-5-.48-5.72-.97-4.87-7.97-6.54-11.3-2.77-.51.58-1.65,2.76-1.65,3.42v6.34ZM53.47,332.48c-1.34.39-1.62,2.51-1.72,3.71-.35,4.12-.39,12.22.02,16.3.3,3,1.1,3.92,4.15,4.18,5.97.52,17.98.56,23.93,0,2.05-.19,3.53-.83,3.8-3.08.45-3.83.45-14.66,0-18.48-.12-1.03-.47-1.68-1.25-2.37l-28.92-.26Z"/>
  <path class="cls-1" d="M64.26,351.96l-.48-.6c-.59-1.85.94-4.34.67-6.07-.12-.76-1.07-1.65-1.29-2.72-1.32-6.32,7.99-8.05,9.18-1.92.48,2.45-1.25,3.39-1.37,4.63-.09.91,1.86,6.69.17,6.69h-6.88ZM66.87,339.36c-3.17.94.05,4.08.14,5.17.16,1.95-2.23,5.93,1.23,5.26,2.1-.41-.24-3.81-.08-5.21.12-1.03,1.91-1.92,1.65-3.59-.22-1.42-1.6-2.03-2.93-1.63Z"/>
  <g>
    <path class="cls-1" d="M11.56,254.9s-.89.26-1.11.2c-.55-.14-5.39-4.86-5.95-5.61-.74-.99-.67-2.09.66-1.76.69.17,5.64,4.82,6.07,5.53.25.41.58,1.28.33,1.64Z"/>
    <path class="cls-1" d="M19.54,262.88c.42-.45,2.31,1.14,2.7,1.46.85.69,3.67,3.36,4.2,4.14.58.86.37,1.21-.38,1.85-.66.3-5.87-4.88-6.25-5.73-.25-.56-.34-1.1-.27-1.72Z"/>
    <path class="cls-1" d="M14.47,265.59c.23-1.45,1.81-1.08,1.81,0v8.69c0,.68-1.81.68-1.81,0,0-2.49-.35-6.43,0-8.69Z"/>
    <path class="cls-1" d="M4.33,270.48c-.05-.04-.32-1.06-.29-1.21.07-.4,5.05-5.37,5.7-5.86,1.01-.76,2.13-.62,1.77.68-.11.41-5.36,5.7-5.9,6.05-.33.22-.98.57-1.28.34Z"/>
    <path class="cls-1" d="M21.89,258.17h8.69c.68,0,.68,1.81,0,1.81h-8.69c-.55,0-.84-1.49,0-1.81Z"/>
    <path class="cls-1" d="M14.47,243.87c.24-.86,1.81-.54,1.81,0v8.69c0,.68-1.81.68-1.81,0v-8.69Z"/>
    <path class="cls-1" d="M.53,258.17h8.33c.11,0,.68.74.9.91l-.54.9H.53c-.55,0-.84-1.49,0-1.81Z"/>
    <path class="cls-1" d="M19.54,254.91c-.1-.67,0-1.07.34-1.65.21-.35,5.09-5.24,5.45-5.41,1.18-.57,1.81.33,1.1,1.47-.21.34-4.93,5.06-5.25,5.25-.58.34-.97.44-1.65.34Z"/>
  </g>
  <path class="cls-1" d="M151.26,337.91c2.73-.53,3.76,1.62,5.71,1.76s5.78-2.27,7.09-.6c1.68,2.13-3.37,8.92-3.61,11.55,7.04,6.64,14.67,17.05,13.73,27.25-1,10.77-16.34,11.23-24.47,10.68-26.44-1.77-14.61-26.92-2.03-37.91-.19-2.22-5.51-7.59-4.97-9.3.45-1.44,3.6-.76,4.76-1.06s2.31-2.08,3.8-2.37ZM161.49,341.09c-3.88,1.79-5.95.77-9.57-.73l-5.27,3.07,3.62,6.17,7.75.2,3.48-8.71ZM150.16,352.39c-2.01.45-7.48,7.39-8.74,9.37-4.31,6.78-9.44,18.54.74,22.74,6.19,2.55,22.09,2.78,27.13-2.11,6.43-6.25-.93-19.29-5.64-24.81-.76-.89-4.14-4.45-4.92-4.85-1.12-.58-7.22-.64-8.57-.33Z"/>
  <path class="cls-1" d="M157.97,362.57c.72-.57,2.19-.81,2.78.07l-10.48,15.22c-.54.67-1.83.76-2.55.35-.66-.49-.07-.52.19-.91,3.28-4.96,6.75-9.81,10.06-14.74Z"/>
  <path class="cls-1" d="M158.49,369.78c5.7-1.29,6.56,7.45,2.3,8.46-6.51,1.54-6.49-7.51-2.3-8.46ZM159.21,371.55c-1.7.44-1.78,3.72-.62,4.85,3.63,1.56,2.99-5.47.62-4.85Z"/>
  <path class="cls-1" d="M147.62,362.17c5.9-1.32,6.66,7.79,2,8.54-5.88.95-6.29-7.58-2-8.54ZM149.81,368.52c.93-.94.88-5.11-1.46-4.56-2.82.65-.82,6.88,1.46,4.56Z"/>
</svg>